<svg width="290" height="75" viewBox="0 0 290 75" fill="none" xmlns="http://www.w3.org/2000/svg">
<g filter="url(#filter0_dd_174_520)">
<rect width="29.9659" height="29.9659" transform="matrix(1 -3.77386e-05 -0.500033 0.866007 48.5453 22.2957)" fill="#2C3E50"/>
</g>
<g filter="url(#filter1_dd_174_520)">
<rect width="29.9659" height="29.9659" transform="matrix(1 -3.77386e-05 -0.500033 0.866007 32.975 14.7551)" fill="#3D5A40"/>
</g>
<path d="M113.562 18.2H114.682L115.042 27.4H113.562C112.976 25.0533 111.842 23.2133 110.162 21.88C108.482 20.5467 106.456 19.88 104.082 19.88C102.456 19.88 101.002 20.2 99.7222 20.84C98.4422 21.48 97.3622 22.4 96.4822 23.6C95.6022 24.8 94.9222 26.2667 94.4422 28C93.9889 29.7333 93.7622 31.6933 93.7622 33.88C93.7622 38.1733 94.6555 41.48 96.4422 43.8C98.2289 46.0933 100.816 47.24 104.202 47.24C109.349 47.24 112.656 44.5067 114.122 39.04H115.762V49H114.362L113.442 45.84C110.642 48.2133 107.256 49.4 103.282 49.4C101.016 49.4 98.9622 49.04 97.1222 48.32C95.3089 47.6 93.7489 46.5867 92.4422 45.28C91.1622 43.9467 90.1622 42.3333 89.4422 40.44C88.7489 38.5467 88.4022 36.44 88.4022 34.12C88.4022 31.6933 88.7755 29.48 89.5222 27.48C90.2689 25.48 91.3089 23.76 92.6422 22.32C94.0022 20.88 95.6155 19.7733 97.4822 19C99.3755 18.2 101.456 17.8 103.722 17.8C105.322 17.8 106.829 18.0267 108.242 18.48C109.656 18.9333 111.189 19.6667 112.842 20.68L113.562 18.2ZM132.033 37.16C130.513 37.7467 129.219 38.32 128.153 38.88C127.113 39.44 126.273 40 125.633 40.56C124.993 41.12 124.526 41.68 124.233 42.24C123.966 42.8 123.833 43.3733 123.833 43.96C123.833 44.84 124.126 45.56 124.713 46.12C125.299 46.68 126.073 46.96 127.033 46.96C127.726 46.96 128.366 46.7867 128.953 46.44C129.566 46.0933 130.099 45.6267 130.553 45.04C131.006 44.4267 131.366 43.72 131.633 42.92C131.899 42.0933 132.033 41.2267 132.033 40.32V37.16ZM132.033 35.44V33.8C132.033 30.5467 130.646 28.92 127.873 28.92C127.419 28.92 127.033 28.96 126.713 29.04C126.393 29.12 126.126 29.2533 125.913 29.44C125.699 29.6267 125.499 29.8933 125.313 30.24C125.153 30.5867 124.993 31.0133 124.833 31.52C124.539 32.2933 124.246 32.8133 123.953 33.08C123.686 33.32 123.286 33.44 122.753 33.44C121.419 33.44 120.753 32.7733 120.753 31.44C120.753 30.16 121.433 29.1733 122.793 28.48C124.153 27.76 126.086 27.4 128.593 27.4C131.259 27.4 133.153 27.88 134.273 28.84C135.393 29.7733 135.953 31.3733 135.953 33.64V42.6C135.953 45.64 136.553 47.16 137.753 47.16C138.126 47.16 138.486 47.12 138.833 47.04C139.179 46.9333 139.473 46.68 139.713 46.28L140.273 47.24C139.953 47.8533 139.366 48.3733 138.513 48.8C137.659 49.2 136.766 49.4 135.833 49.4C134.659 49.4 133.779 49.0267 133.193 48.28C132.633 47.5333 132.353 46.48 132.353 45.12H132.153C131.459 46.4267 130.499 47.4667 129.273 48.24C128.046 48.9867 126.686 49.36 125.193 49.36C123.513 49.36 122.193 48.9333 121.233 48.08C120.273 47.2267 119.793 46.08 119.793 44.64C119.793 44 119.899 43.3867 120.113 42.8C120.353 42.2133 120.726 41.6533 121.233 41.12C121.739 40.5867 122.406 40.0667 123.233 39.56C124.059 39.0267 125.073 38.4933 126.273 37.96L132.033 35.44ZM143.661 49H142.781V42.12H143.781C144.821 45.88 146.714 47.76 149.461 47.76C150.528 47.76 151.368 47.5067 151.981 47C152.621 46.4667 152.941 45.6667 152.941 44.6C152.941 44.2 152.874 43.8667 152.741 43.6C152.634 43.3067 152.408 43.0133 152.061 42.72C151.741 42.4 151.274 42.04 150.661 41.64C150.074 41.24 149.288 40.7333 148.301 40.12C147.394 39.56 146.608 39.04 145.941 38.56C145.274 38.08 144.714 37.6 144.261 37.12C143.808 36.6133 143.461 36.08 143.221 35.52C143.008 34.96 142.901 34.3067 142.901 33.56C142.901 32.6533 143.048 31.8267 143.341 31.08C143.661 30.3067 144.088 29.6533 144.621 29.12C145.154 28.5867 145.781 28.1733 146.501 27.88C147.221 27.56 148.008 27.4 148.861 27.4C149.581 27.4 150.328 27.52 151.101 27.76C151.874 27.9733 152.554 28.2667 153.141 28.64L153.941 27.8H154.701V33.56H153.661C153.074 31.9333 152.434 30.7733 151.741 30.08C151.048 29.3867 150.194 29.04 149.181 29.04C148.274 29.04 147.541 29.28 146.981 29.76C146.448 30.24 146.181 30.9067 146.181 31.76C146.181 32.2133 146.248 32.6133 146.381 32.96C146.541 33.28 146.781 33.6 147.101 33.92C147.421 34.24 147.821 34.5733 148.301 34.92C148.808 35.24 149.408 35.6133 150.101 36.04C151.248 36.76 152.221 37.4 153.021 37.96C153.848 38.52 154.514 39.08 155.021 39.64C155.528 40.1733 155.901 40.7333 156.141 41.32C156.381 41.9067 156.501 42.5733 156.501 43.32C156.501 45.2133 155.888 46.7067 154.661 47.8C153.434 48.8667 151.821 49.4 149.821 49.4C147.741 49.4 145.954 48.8 144.461 47.6L143.661 49ZM179.265 45.28C176.998 48.0267 174.185 49.4 170.825 49.4C169.252 49.4 167.825 49.1467 166.545 48.64C165.265 48.1067 164.158 47.3733 163.225 46.44C162.318 45.48 161.612 44.3467 161.105 43.04C160.598 41.7067 160.345 40.24 160.345 38.64C160.345 37.0133 160.612 35.5067 161.145 34.12C161.678 32.7333 162.425 31.5467 163.385 30.56C164.372 29.5733 165.532 28.8 166.865 28.24C168.225 27.68 169.705 27.4 171.305 27.4C173.892 27.4 175.892 28.1067 177.305 29.52C178.718 30.9067 179.425 32.9067 179.425 35.52C179.425 35.8933 179.345 36.12 179.185 36.2C179.052 36.28 178.718 36.32 178.185 36.32H165.025C164.972 36.5333 164.932 36.8 164.905 37.12C164.878 37.4133 164.865 37.7467 164.865 38.12C164.865 39.5067 165.025 40.7733 165.345 41.92C165.692 43.04 166.172 44 166.785 44.8C167.425 45.6 168.172 46.2267 169.025 46.68C169.905 47.1067 170.878 47.32 171.945 47.32C173.065 47.32 174.105 47.08 175.065 46.6C176.025 46.0933 177.012 45.28 178.025 44.16L179.265 45.28ZM172.665 34.48C173.198 34.48 173.625 34.4667 173.945 34.44C174.265 34.4133 174.505 34.36 174.665 34.28C174.825 34.2 174.932 34.0933 174.985 33.96C175.038 33.8 175.065 33.6 175.065 33.36C175.065 32.1333 174.665 31.16 173.865 30.44C173.092 29.6933 172.025 29.32 170.665 29.32C167.785 29.32 165.998 31.04 165.305 34.48H172.665ZM185.165 49V16.4H193.215L198.465 30.9C198.798 31.8333 199.115 32.8167 199.415 33.85C199.715 34.8833 200.031 35.9 200.365 36.9H200.565C200.898 35.9 201.198 34.8833 201.465 33.85C201.765 32.8167 202.081 31.8333 202.415 30.9L207.565 16.4H215.565V49H208.865V37.05C208.865 35.9833 208.915 34.8 209.015 33.5C209.148 32.1667 209.281 30.8333 209.415 29.5C209.581 28.1667 209.715 26.9833 209.815 25.95H209.615L206.965 33.7L202.315 46.15H198.265L193.615 33.7L191.015 25.95H190.815C190.948 26.9833 191.081 28.1667 191.215 29.5C191.348 30.8333 191.465 32.1667 191.565 33.5C191.698 34.8 191.765 35.9833 191.765 37.05V49H185.165ZM228.901 49.6C226.634 49.6 224.834 48.8833 223.501 47.45C222.167 45.9833 221.501 44.2 221.501 42.1C221.501 39.5 222.601 37.4667 224.801 36C227.001 34.5333 230.551 33.55 235.451 33.05C235.384 31.95 235.051 31.0833 234.451 30.45C233.884 29.7833 232.917 29.45 231.551 29.45C230.517 29.45 229.467 29.65 228.401 30.05C227.334 30.45 226.201 31 225.001 31.7L222.351 26.85C223.917 25.8833 225.584 25.1 227.351 24.5C229.151 23.9 231.017 23.6 232.951 23.6C236.117 23.6 238.551 24.5167 240.251 26.35C241.951 28.1833 242.801 31 242.801 34.8V49H236.801L236.301 46.45H236.101C235.067 47.3833 233.951 48.15 232.751 48.75C231.584 49.3167 230.301 49.6 228.901 49.6ZM231.401 43.9C232.234 43.9 232.951 43.7167 233.551 43.35C234.184 42.95 234.817 42.4333 235.451 41.8V37.45C232.851 37.7833 231.051 38.3167 230.051 39.05C229.051 39.75 228.551 40.5833 228.551 41.55C228.551 42.35 228.801 42.95 229.301 43.35C229.834 43.7167 230.534 43.9 231.401 43.9ZM257.689 49.6C254.622 49.6 252.422 48.7167 251.089 46.95C249.789 45.1833 249.139 42.8667 249.139 40V29.95H245.739V24.5L249.539 24.2L250.389 17.6H256.489V24.2H262.439V29.95H256.489V39.9C256.489 41.3 256.772 42.3167 257.339 42.95C257.939 43.55 258.722 43.85 259.689 43.85C260.089 43.85 260.489 43.8 260.889 43.7C261.322 43.6 261.706 43.4833 262.039 43.35L263.189 48.7C262.556 48.9 261.772 49.1 260.839 49.3C259.939 49.5 258.889 49.6 257.689 49.6ZM277.501 49.6C275.134 49.6 273.001 49.0833 271.101 48.05C269.201 47.0167 267.701 45.5333 266.601 43.6C265.501 41.6667 264.951 39.3333 264.951 36.6C264.951 33.9 265.501 31.5833 266.601 29.65C267.734 27.7167 269.201 26.2333 271.001 25.2C272.801 24.1333 274.684 23.6 276.651 23.6C279.017 23.6 280.967 24.1333 282.501 25.2C284.067 26.2333 285.234 27.65 286.001 29.45C286.801 31.2167 287.201 33.2333 287.201 35.5C287.201 36.1333 287.167 36.7667 287.101 37.4C287.034 38 286.967 38.45 286.901 38.75H272.051C272.384 40.55 273.134 41.8833 274.301 42.75C275.467 43.5833 276.867 44 278.501 44C280.267 44 282.051 43.45 283.851 42.35L286.301 46.8C285.034 47.6667 283.617 48.35 282.051 48.85C280.484 49.35 278.967 49.6 277.501 49.6ZM272.001 33.9H280.951C280.951 32.5333 280.617 31.4167 279.951 30.55C279.317 29.65 278.267 29.2 276.801 29.2C275.667 29.2 274.651 29.6 273.751 30.4C272.851 31.1667 272.267 32.3333 272.001 33.9Z" fill="#1E1E1E"/>
<defs>
<filter id="filter0_dd_174_520" x="15.5614" y="12.2944" width="80.9498" height="61.9519" filterUnits="userSpaceOnUse" color-interpolation-filters="sRGB">
<feFlood flood-opacity="0" result="BackgroundImageFix"/>
<feColorMatrix in="SourceAlpha" type="matrix" values="0 0 0 0 0 0 0 0 0 0 0 0 0 0 0 0 0 0 127 0" result="hardAlpha"/>
<feOffset dy="4"/>
<feGaussianBlur stdDeviation="2"/>
<feColorMatrix type="matrix" values="0 0 0 0 0 0 0 0 0 0 0 0 0 0 0 0 0 0 0.3 0"/>
<feBlend mode="normal" in2="BackgroundImageFix" result="effect1_dropShadow_174_520"/>
<feColorMatrix in="SourceAlpha" type="matrix" values="0 0 0 0 0 0 0 0 0 0 0 0 0 0 0 0 0 0 127 0" result="hardAlpha"/>
<feMorphology radius="6" operator="dilate" in="SourceAlpha" result="effect2_dropShadow_174_520"/>
<feOffset dy="8"/>
<feGaussianBlur stdDeviation="6"/>
<feColorMatrix type="matrix" values="0 0 0 0 0 0 0 0 0 0 0 0 0 0 0 0 0 0 0.15 0"/>
<feBlend mode="normal" in2="effect1_dropShadow_174_520" result="effect2_dropShadow_174_520"/>
<feBlend mode="normal" in="SourceGraphic" in2="effect2_dropShadow_174_520" result="shape"/>
</filter>
<filter id="filter1_dd_174_520" x="-0.00891113" y="4.75391" width="80.9498" height="61.9519" filterUnits="userSpaceOnUse" color-interpolation-filters="sRGB">
<feFlood flood-opacity="0" result="BackgroundImageFix"/>
<feColorMatrix in="SourceAlpha" type="matrix" values="0 0 0 0 0 0 0 0 0 0 0 0 0 0 0 0 0 0 127 0" result="hardAlpha"/>
<feOffset dy="4"/>
<feGaussianBlur stdDeviation="2"/>
<feColorMatrix type="matrix" values="0 0 0 0 0 0 0 0 0 0 0 0 0 0 0 0 0 0 0.3 0"/>
<feBlend mode="normal" in2="BackgroundImageFix" result="effect1_dropShadow_174_520"/>
<feColorMatrix in="SourceAlpha" type="matrix" values="0 0 0 0 0 0 0 0 0 0 0 0 0 0 0 0 0 0 127 0" result="hardAlpha"/>
<feMorphology radius="6" operator="dilate" in="SourceAlpha" result="effect2_dropShadow_174_520"/>
<feOffset dy="8"/>
<feGaussianBlur stdDeviation="6"/>
<feColorMatrix type="matrix" values="0 0 0 0 0 0 0 0 0 0 0 0 0 0 0 0 0 0 0.15 0"/>
<feBlend mode="normal" in2="effect1_dropShadow_174_520" result="effect2_dropShadow_174_520"/>
<feBlend mode="normal" in="SourceGraphic" in2="effect2_dropShadow_174_520" result="shape"/>
</filter>
</defs>
</svg>
