<svg width="291" height="75" viewBox="0 0 291 75" fill="none" xmlns="http://www.w3.org/2000/svg">
<g filter="url(#filter0_dd_457_1016)">
<rect width="29.9659" height="29.9659" transform="matrix(1 -3.77386e-05 -0.500033 0.866007 49.0453 22.2959)" fill="#2C3E50"/>
</g>
<g filter="url(#filter1_dd_457_1016)">
<rect width="29.9659" height="29.9659" transform="matrix(1 -3.77386e-05 -0.500033 0.866007 33.4749 14.7549)" fill="#3D5A40"/>
</g>
<path d="M114.062 18.2H115.182L115.542 27.4H114.062C113.476 25.0533 112.342 23.2133 110.662 21.88C108.982 20.5467 106.956 19.88 104.582 19.88C102.956 19.88 101.502 20.2 100.222 20.84C98.9422 21.48 97.8622 22.4 96.9822 23.6C96.1022 24.8 95.4222 26.2667 94.9422 28C94.4889 29.7333 94.2622 31.6933 94.2622 33.88C94.2622 38.1733 95.1555 41.48 96.9422 43.8C98.7289 46.0933 101.316 47.24 104.702 47.24C109.849 47.24 113.156 44.5067 114.622 39.04H116.262V49H114.862L113.942 45.84C111.142 48.2133 107.756 49.4 103.782 49.4C101.516 49.4 99.4622 49.04 97.6222 48.32C95.8089 47.6 94.2489 46.5867 92.9422 45.28C91.6622 43.9467 90.6622 42.3333 89.9422 40.44C89.2489 38.5467 88.9022 36.44 88.9022 34.12C88.9022 31.6933 89.2755 29.48 90.0222 27.48C90.7689 25.48 91.8089 23.76 93.1422 22.32C94.5022 20.88 96.1155 19.7733 97.9822 19C99.8755 18.2 101.956 17.8 104.222 17.8C105.822 17.8 107.329 18.0267 108.742 18.48C110.156 18.9333 111.689 19.6667 113.342 20.68L114.062 18.2ZM132.533 37.16C131.013 37.7467 129.719 38.32 128.653 38.88C127.613 39.44 126.773 40 126.133 40.56C125.493 41.12 125.026 41.68 124.733 42.24C124.466 42.8 124.333 43.3733 124.333 43.96C124.333 44.84 124.626 45.56 125.213 46.12C125.799 46.68 126.573 46.96 127.533 46.96C128.226 46.96 128.866 46.7867 129.453 46.44C130.066 46.0933 130.599 45.6267 131.053 45.04C131.506 44.4267 131.866 43.72 132.133 42.92C132.399 42.0933 132.533 41.2267 132.533 40.32V37.16ZM132.533 35.44V33.8C132.533 30.5467 131.146 28.92 128.373 28.92C127.919 28.92 127.533 28.96 127.213 29.04C126.893 29.12 126.626 29.2533 126.413 29.44C126.199 29.6267 125.999 29.8933 125.813 30.24C125.653 30.5867 125.493 31.0133 125.333 31.52C125.039 32.2933 124.746 32.8133 124.453 33.08C124.186 33.32 123.786 33.44 123.253 33.44C121.919 33.44 121.253 32.7733 121.253 31.44C121.253 30.16 121.933 29.1733 123.293 28.48C124.653 27.76 126.586 27.4 129.093 27.4C131.759 27.4 133.653 27.88 134.773 28.84C135.893 29.7733 136.453 31.3733 136.453 33.64V42.6C136.453 45.64 137.053 47.16 138.253 47.16C138.626 47.16 138.986 47.12 139.333 47.04C139.679 46.9333 139.973 46.68 140.213 46.28L140.773 47.24C140.453 47.8533 139.866 48.3733 139.013 48.8C138.159 49.2 137.266 49.4 136.333 49.4C135.159 49.4 134.279 49.0267 133.693 48.28C133.133 47.5333 132.853 46.48 132.853 45.12H132.653C131.959 46.4267 130.999 47.4667 129.773 48.24C128.546 48.9867 127.186 49.36 125.693 49.36C124.013 49.36 122.693 48.9333 121.733 48.08C120.773 47.2267 120.293 46.08 120.293 44.64C120.293 44 120.399 43.3867 120.613 42.8C120.853 42.2133 121.226 41.6533 121.733 41.12C122.239 40.5867 122.906 40.0667 123.733 39.56C124.559 39.0267 125.573 38.4933 126.773 37.96L132.533 35.44ZM144.161 49H143.281V42.12H144.281C145.321 45.88 147.214 47.76 149.961 47.76C151.028 47.76 151.868 47.5067 152.481 47C153.121 46.4667 153.441 45.6667 153.441 44.6C153.441 44.2 153.374 43.8667 153.241 43.6C153.134 43.3067 152.908 43.0133 152.561 42.72C152.241 42.4 151.774 42.04 151.161 41.64C150.574 41.24 149.788 40.7333 148.801 40.12C147.894 39.56 147.108 39.04 146.441 38.56C145.774 38.08 145.214 37.6 144.761 37.12C144.308 36.6133 143.961 36.08 143.721 35.52C143.508 34.96 143.401 34.3067 143.401 33.56C143.401 32.6533 143.548 31.8267 143.841 31.08C144.161 30.3067 144.588 29.6533 145.121 29.12C145.654 28.5867 146.281 28.1733 147.001 27.88C147.721 27.56 148.508 27.4 149.361 27.4C150.081 27.4 150.828 27.52 151.601 27.76C152.374 27.9733 153.054 28.2667 153.641 28.64L154.441 27.8H155.201V33.56H154.161C153.574 31.9333 152.934 30.7733 152.241 30.08C151.548 29.3867 150.694 29.04 149.681 29.04C148.774 29.04 148.041 29.28 147.481 29.76C146.948 30.24 146.681 30.9067 146.681 31.76C146.681 32.2133 146.748 32.6133 146.881 32.96C147.041 33.28 147.281 33.6 147.601 33.92C147.921 34.24 148.321 34.5733 148.801 34.92C149.308 35.24 149.908 35.6133 150.601 36.04C151.748 36.76 152.721 37.4 153.521 37.96C154.348 38.52 155.014 39.08 155.521 39.64C156.028 40.1733 156.401 40.7333 156.641 41.32C156.881 41.9067 157.001 42.5733 157.001 43.32C157.001 45.2133 156.388 46.7067 155.161 47.8C153.934 48.8667 152.321 49.4 150.321 49.4C148.241 49.4 146.454 48.8 144.961 47.6L144.161 49ZM179.765 45.28C177.498 48.0267 174.685 49.4 171.325 49.4C169.752 49.4 168.325 49.1467 167.045 48.64C165.765 48.1067 164.658 47.3733 163.725 46.44C162.818 45.48 162.112 44.3467 161.605 43.04C161.098 41.7067 160.845 40.24 160.845 38.64C160.845 37.0133 161.112 35.5067 161.645 34.12C162.178 32.7333 162.925 31.5467 163.885 30.56C164.872 29.5733 166.032 28.8 167.365 28.24C168.725 27.68 170.205 27.4 171.805 27.4C174.392 27.4 176.392 28.1067 177.805 29.52C179.218 30.9067 179.925 32.9067 179.925 35.52C179.925 35.8933 179.845 36.12 179.685 36.2C179.552 36.28 179.218 36.32 178.685 36.32H165.525C165.472 36.5333 165.432 36.8 165.405 37.12C165.378 37.4133 165.365 37.7467 165.365 38.12C165.365 39.5067 165.525 40.7733 165.845 41.92C166.192 43.04 166.672 44 167.285 44.8C167.925 45.6 168.672 46.2267 169.525 46.68C170.405 47.1067 171.378 47.32 172.445 47.32C173.565 47.32 174.605 47.08 175.565 46.6C176.525 46.0933 177.512 45.28 178.525 44.16L179.765 45.28ZM173.165 34.48C173.698 34.48 174.125 34.4667 174.445 34.44C174.765 34.4133 175.005 34.36 175.165 34.28C175.325 34.2 175.432 34.0933 175.485 33.96C175.538 33.8 175.565 33.6 175.565 33.36C175.565 32.1333 175.165 31.16 174.365 30.44C173.592 29.6933 172.525 29.32 171.165 29.32C168.285 29.32 166.498 31.04 165.805 34.48H173.165ZM185.665 49V16.4H193.715L198.965 30.9C199.298 31.8333 199.615 32.8167 199.915 33.85C200.215 34.8833 200.531 35.9 200.865 36.9H201.065C201.398 35.9 201.698 34.8833 201.965 33.85C202.265 32.8167 202.581 31.8333 202.915 30.9L208.065 16.4H216.065V49H209.365V37.05C209.365 35.9833 209.415 34.8 209.515 33.5C209.648 32.1667 209.781 30.8333 209.915 29.5C210.081 28.1667 210.215 26.9833 210.315 25.95H210.115L207.465 33.7L202.815 46.15H198.765L194.115 33.7L191.515 25.95H191.315C191.448 26.9833 191.581 28.1667 191.715 29.5C191.848 30.8333 191.965 32.1667 192.065 33.5C192.198 34.8 192.265 35.9833 192.265 37.05V49H185.665ZM229.401 49.6C227.134 49.6 225.334 48.8833 224.001 47.45C222.667 45.9833 222.001 44.2 222.001 42.1C222.001 39.5 223.101 37.4667 225.301 36C227.501 34.5333 231.051 33.55 235.951 33.05C235.884 31.95 235.551 31.0833 234.951 30.45C234.384 29.7833 233.417 29.45 232.051 29.45C231.017 29.45 229.967 29.65 228.901 30.05C227.834 30.45 226.701 31 225.501 31.7L222.851 26.85C224.417 25.8833 226.084 25.1 227.851 24.5C229.651 23.9 231.517 23.6 233.451 23.6C236.617 23.6 239.051 24.5167 240.751 26.35C242.451 28.1833 243.301 31 243.301 34.8V49H237.301L236.801 46.45H236.601C235.567 47.3833 234.451 48.15 233.251 48.75C232.084 49.3167 230.801 49.6 229.401 49.6ZM231.901 43.9C232.734 43.9 233.451 43.7167 234.051 43.35C234.684 42.95 235.317 42.4333 235.951 41.8V37.45C233.351 37.7833 231.551 38.3167 230.551 39.05C229.551 39.75 229.051 40.5833 229.051 41.55C229.051 42.35 229.301 42.95 229.801 43.35C230.334 43.7167 231.034 43.9 231.901 43.9ZM258.189 49.6C255.122 49.6 252.922 48.7167 251.589 46.95C250.289 45.1833 249.639 42.8667 249.639 40V29.95H246.239V24.5L250.039 24.2L250.889 17.6H256.989V24.2H262.939V29.95H256.989V39.9C256.989 41.3 257.272 42.3167 257.839 42.95C258.439 43.55 259.222 43.85 260.189 43.85C260.589 43.85 260.989 43.8 261.389 43.7C261.822 43.6 262.206 43.4833 262.539 43.35L263.689 48.7C263.056 48.9 262.272 49.1 261.339 49.3C260.439 49.5 259.389 49.6 258.189 49.6ZM278.001 49.6C275.634 49.6 273.501 49.0833 271.601 48.05C269.701 47.0167 268.201 45.5333 267.101 43.6C266.001 41.6667 265.451 39.3333 265.451 36.6C265.451 33.9 266.001 31.5833 267.101 29.65C268.234 27.7167 269.701 26.2333 271.501 25.2C273.301 24.1333 275.184 23.6 277.151 23.6C279.517 23.6 281.467 24.1333 283.001 25.2C284.567 26.2333 285.734 27.65 286.501 29.45C287.301 31.2167 287.701 33.2333 287.701 35.5C287.701 36.1333 287.667 36.7667 287.601 37.4C287.534 38 287.467 38.45 287.401 38.75H272.551C272.884 40.55 273.634 41.8833 274.801 42.75C275.967 43.5833 277.367 44 279.001 44C280.767 44 282.551 43.45 284.351 42.35L286.801 46.8C285.534 47.6667 284.117 48.35 282.551 48.85C280.984 49.35 279.467 49.6 278.001 49.6ZM272.501 33.9H281.451C281.451 32.5333 281.117 31.4167 280.451 30.55C279.817 29.65 278.767 29.2 277.301 29.2C276.167 29.2 275.151 29.6 274.251 30.4C273.351 31.1667 272.767 32.3333 272.501 33.9Z" fill="white"/>
<defs>
<filter id="filter0_dd_457_1016" x="16.0614" y="12.2949" width="80.9498" height="61.9512" filterUnits="userSpaceOnUse" color-interpolation-filters="sRGB">
<feFlood flood-opacity="0" result="BackgroundImageFix"/>
<feColorMatrix in="SourceAlpha" type="matrix" values="0 0 0 0 0 0 0 0 0 0 0 0 0 0 0 0 0 0 127 0" result="hardAlpha"/>
<feOffset dy="4"/>
<feGaussianBlur stdDeviation="2"/>
<feColorMatrix type="matrix" values="0 0 0 0 0 0 0 0 0 0 0 0 0 0 0 0 0 0 0.3 0"/>
<feBlend mode="normal" in2="BackgroundImageFix" result="effect1_dropShadow_457_1016"/>
<feColorMatrix in="SourceAlpha" type="matrix" values="0 0 0 0 0 0 0 0 0 0 0 0 0 0 0 0 0 0 127 0" result="hardAlpha"/>
<feMorphology radius="6" operator="dilate" in="SourceAlpha" result="effect2_dropShadow_457_1016"/>
<feOffset dy="8"/>
<feGaussianBlur stdDeviation="6"/>
<feColorMatrix type="matrix" values="0 0 0 0 0 0 0 0 0 0 0 0 0 0 0 0 0 0 0.15 0"/>
<feBlend mode="normal" in2="effect1_dropShadow_457_1016" result="effect2_dropShadow_457_1016"/>
<feBlend mode="normal" in="SourceGraphic" in2="effect2_dropShadow_457_1016" result="shape"/>
</filter>
<filter id="filter1_dd_457_1016" x="0.490967" y="4.75391" width="80.9498" height="61.9512" filterUnits="userSpaceOnUse" color-interpolation-filters="sRGB">
<feFlood flood-opacity="0" result="BackgroundImageFix"/>
<feColorMatrix in="SourceAlpha" type="matrix" values="0 0 0 0 0 0 0 0 0 0 0 0 0 0 0 0 0 0 127 0" result="hardAlpha"/>
<feOffset dy="4"/>
<feGaussianBlur stdDeviation="2"/>
<feColorMatrix type="matrix" values="0 0 0 0 0 0 0 0 0 0 0 0 0 0 0 0 0 0 0.3 0"/>
<feBlend mode="normal" in2="BackgroundImageFix" result="effect1_dropShadow_457_1016"/>
<feColorMatrix in="SourceAlpha" type="matrix" values="0 0 0 0 0 0 0 0 0 0 0 0 0 0 0 0 0 0 127 0" result="hardAlpha"/>
<feMorphology radius="6" operator="dilate" in="SourceAlpha" result="effect2_dropShadow_457_1016"/>
<feOffset dy="8"/>
<feGaussianBlur stdDeviation="6"/>
<feColorMatrix type="matrix" values="0 0 0 0 0 0 0 0 0 0 0 0 0 0 0 0 0 0 0.15 0"/>
<feBlend mode="normal" in2="effect1_dropShadow_457_1016" result="effect2_dropShadow_457_1016"/>
<feBlend mode="normal" in="SourceGraphic" in2="effect2_dropShadow_457_1016" result="shape"/>
</filter>
</defs>
</svg>
