<svg width="74" height="64" viewBox="0 0 74 64" fill="none" xmlns="http://www.w3.org/2000/svg">
<path d="M15.2632 56.5048H18.6709C18.6342 56.8479 18.5606 57.5221 18.3154 58.0002C17.5431 59.655 15.7658 60.5743 12.3949 60.5743C9.69807 60.5743 7.94517 59.9002 7.00132 58.7602C6.35164 58.0002 6.02063 56.946 6.02063 55.5977C6.02063 54.3719 6.32713 53.3545 6.93997 52.6067C7.92066 51.3809 9.68582 50.6455 12.4561 50.6455C16.2315 50.6455 17.8006 51.9939 18.3767 53.4281C18.5728 53.9306 18.6342 54.4945 18.6464 54.8009H15.2387C15.2263 54.5802 15.1406 54.2983 14.9935 54.0899C14.638 53.5751 13.8535 53.1951 12.4194 53.1951C11.12 53.1951 10.1762 53.5261 9.74707 54.2002C9.52649 54.5312 9.44065 55.0216 9.44065 55.6344C9.44065 56.2964 9.55099 56.75 9.78391 57.0809C10.262 57.7918 11.3284 58.0615 12.4316 58.0615C13.7186 58.0615 14.6379 57.804 15.0425 57.2157C15.1897 57.0073 15.2509 56.7622 15.2632 56.5048Z" fill="#697077"/>
<path d="M29.1968 57.8652V60.4271H20.0156V50.8047H23.3375V57.8652H29.1968Z" fill="#697077"/>
<path d="M40.6393 60.4271V58.0368H33.7381V56.7865H40.3574V54.4452H33.7381V53.2072H40.5536V50.8047H30.5021V60.4271H40.6393Z" fill="#697077"/>
<path fill-rule="evenodd" clip-rule="evenodd" d="M50.7403 58.6497H45.5429L44.6481 60.4271H41.1791L46.3152 50.8047H50.2744L55.1287 60.4271H51.5861L50.7403 58.6497ZM46.6216 56.4924H49.6986L48.5461 54.1633L48.2029 53.293L47.8352 54.1756L46.6216 56.4924Z" fill="#697077"/>
<path fill-rule="evenodd" clip-rule="evenodd" d="M67.4474 53.7343C67.4474 52.864 67.2391 52.2388 66.7974 51.7853C66.2216 51.1724 65.2282 50.8047 63.7091 50.8047H56.0472V60.4271H59.3207V57.0317H62.299L64.689 60.4271H68.3425L65.4374 56.5046C66.0865 56.4065 66.6141 56.0143 66.9565 55.5484C67.2632 55.1194 67.4474 54.482 67.4474 53.7343ZM64.2598 54.0407C64.2598 54.2001 64.2357 54.3963 64.1499 54.5433C64.0274 54.7885 63.7091 54.8866 63.1815 54.8866H59.3322V53.1336H63.1198C63.6348 53.1336 63.9782 53.2195 64.1499 53.5381C64.2357 53.6607 64.2598 53.8569 64.2598 54.0407Z" fill="#697077"/>
<path d="M49.3726 6.98025C49.3726 7.13968 49.3485 7.33576 49.2627 7.48284C49.1402 7.72802 48.821 7.8261 48.2941 7.8261H44.4451V6.07324H48.2327C48.7477 6.07324 49.091 6.15899 49.2627 6.47775C49.3485 6.60034 49.3726 6.79642 49.3726 6.98025Z" fill="#697077"/>
<path d="M58.9558 9.43175H62.0325L60.88 7.10268L60.5366 6.23242L60.1691 7.11503L58.9558 9.43175Z" fill="#697077"/>
<path fill-rule="evenodd" clip-rule="evenodd" d="M0.420642 6.95754C0.817529 3.04962 4.11792 0 8.13058 0H65.9321C70.2125 0 73.6818 3.46975 73.6818 7.74996V56.25C73.6818 60.5302 70.2125 64 65.9321 64H8.13058C3.85037 64 0.380615 60.5302 0.380615 56.25V7.74996C0.380615 7.48241 0.394215 7.21814 0.420642 6.95754ZM1.99517 21.6765L28.0431 30.486C28.7527 29.766 29.7184 29.1402 30.88 28.6525C31.1471 28.5404 31.4227 28.4364 31.7057 28.3407L20.8458 17.322H29.3466L34.1188 27.7552C34.749 27.6563 35.3969 27.5933 36.0536 27.5681C36.2721 27.5598 36.4905 27.5555 36.7086 27.5555V17.322H44.0703L39.2981 27.7554C40.0333 27.8708 40.747 28.0354 41.4247 28.2476C42.2968 28.5208 43.0907 28.8666 43.7833 29.2724L64.1835 17.322H72.0673V21.4581L42.2054 31.5576C41.5777 30.9206 40.6417 30.4071 39.5156 30.0818C38.3897 29.7566 37.1244 29.6342 35.8796 29.7301C34.6349 29.8261 33.4668 30.1362 32.5229 30.621C31.5791 31.106 30.9018 31.744 30.5768 32.4543C30.2519 33.1647 30.2939 33.9155 30.6974 34.612C31.101 35.3084 31.848 35.9192 32.844 36.3669C33.84 36.8145 35.0403 37.0791 36.2931 37.1272C36.9892 37.1539 37.6842 37.1132 38.3509 37.0085C38.8838 36.9248 39.3991 36.8003 39.882 36.6369L49.7789 46.6781H42.7745L39.2977 39.0783C37.5995 39.3448 35.8134 39.3443 34.1188 39.0784L30.6426 46.6781H23.6384L31.7056 38.4929C30.9503 38.2374 30.2532 37.9245 29.6332 37.5614L14.0705 46.6781H1.99517V45.1572L28.043 36.3475C27.4437 35.7394 27.033 35.0704 26.8361 34.3716C26.6033 33.5455 26.6761 32.7028 27.0434 31.8998L1.99517 27.9681V21.6765ZM72.0673 45.3754L36.7086 33.4167L72.0673 38.9668V45.3754ZM72.0673 48.2926H1.99517V56.25C1.99517 59.6385 4.74204 62.3853 8.13058 62.3853H65.9321C69.3204 62.3853 72.0673 59.6385 72.0673 56.25V48.2926ZM19.191 9.65256V3.74424H15.9058V9.3583C15.9058 10.3635 14.9742 11.0377 13.4053 11.0377C11.7627 11.0377 10.8678 10.388 10.8678 9.34605V3.74424H7.5459V9.34605C7.5459 12.2634 9.93629 13.5015 13.2704 13.5015C16.8375 13.5015 19.191 12.2512 19.191 9.65256ZM30.2545 13.3667V10.8047H24.3952V3.74424H21.0733V13.3667H30.2545ZM40.1268 3.74424V6.15904H36.0573V13.3667H32.6985V6.15904H28.6412V3.74424H40.1268ZM52.5595 6.67388C52.5595 5.80362 52.3512 5.17844 51.9104 4.72484C51.3346 4.112 50.3412 3.74424 48.8211 3.74424H41.1601V13.3667H44.4329V9.97123H47.4116L49.802 13.3667H53.4545L50.5495 9.44414C51.1996 9.34605 51.7262 8.95379 52.0695 8.48804C52.3762 8.05908 52.5595 7.42165 52.5595 6.67388ZM63.0744 11.5893H57.8767L56.9826 13.3667H53.5134L58.6493 3.74424H62.6085L67.4628 13.3667H63.9202L63.0744 11.5893Z" fill="#697077"/>
</svg>
