<svg width="157" height="64" viewBox="0 0 157 64" fill="none" xmlns="http://www.w3.org/2000/svg">
<path d="M78.0404 20.3637C78.7074 20.3543 79.2746 20.2296 79.2653 19.5439V19.4411C79.2746 18.7585 78.7074 18.6338 78.0404 18.6245C77.3704 18.6338 76.8031 18.7585 76.8125 19.4411V19.5439C76.8031 20.2296 77.3704 20.3543 78.0404 20.3637Z" fill="#697077"/>
<path d="M53.6542 18.9854C53.6542 18.7859 53.4953 18.627 53.2958 18.627H51.3042V19.3407H53.2958C53.3956 19.3407 53.4796 19.3063 53.5483 19.2378C53.6199 19.1661 53.6542 19.082 53.6542 18.9854Z" fill="#697077"/>
<path d="M64.8656 18.6182L65.4392 19.8556H64.2891L64.8656 18.6182Z" fill="#697077"/>
<path d="M90.4538 18.6182L91.0274 19.8556H89.8772L90.4538 18.6182Z" fill="#697077"/>
<path d="M49.7112 44.6738L48.8635 42.8447L48.0111 44.6738H49.7112Z" fill="#697077"/>
<path d="M69.7155 44.1485C69.7155 44.7705 69.3608 45.282 68.7342 45.282H66.0896V43.0151H68.7342C69.3608 43.0151 69.7155 43.522 69.7155 44.1485Z" fill="#697077"/>
<path d="M76.4155 42.8447L77.2633 44.6738H75.5631L76.4155 42.8447Z" fill="#697077"/>
<path d="M86.7172 42.8584C87.012 42.8584 87.2469 43.0934 87.2469 43.3883C87.2469 43.5311 87.1963 43.6555 87.0904 43.7615C86.989 43.8629 86.8646 43.9135 86.7172 43.9135H83.7731V42.8584H86.7172Z" fill="#697077"/>
<path d="M96.4572 44.1485C96.4572 44.7705 96.1019 45.282 95.4752 45.282H92.8302V43.0151H95.4752C96.1019 43.0151 96.4572 43.522 96.4572 44.1485Z" fill="#697077"/>
<path d="M38.5169 32.6041L35.4442 25.5098H30.1725V37.3335H34.0133V30.9472L36.7847 37.3335H40.2189L43.0205 30.9472V37.3335H46.8463V25.5098H41.7402L38.5169 32.6041Z" fill="#697077"/>
<path d="M62.5221 37.3335V34.3964H54.0421V32.8601H62.1757V29.9833H54.0421V28.4619H62.4167V25.5098H50.0657V37.3335H62.5221Z" fill="#697077"/>
<path d="M65.7617 35.2393C66.9365 36.7606 69.0301 37.5137 71.5455 37.5137C73.4345 37.5137 74.8191 37.1301 75.7838 36.5216C75.9497 36.4169 76.1033 36.3055 76.2449 36.1883L76.3504 37.333H79.5887V30.3291H71.7263V32.8746H75.9286C75.9101 32.9951 75.8459 33.1842 75.7535 33.3644C75.6959 33.477 75.6273 33.586 75.552 33.6728C75.1153 34.185 73.9555 34.6368 72.4492 34.6368C70.8828 34.6368 69.8736 34.2302 69.3313 33.5976C68.9699 33.1306 68.759 32.4679 68.759 31.4738C68.759 30.4346 68.9699 29.7266 69.3766 29.2597C69.9639 28.597 70.958 28.3108 72.4191 28.3108C73.7296 28.3108 74.6333 28.612 75.055 28.9886C75.3262 29.2145 75.537 29.5308 75.5822 29.7417H79.4833C79.4778 29.6027 79.4578 29.4327 79.4242 29.2519C79.3669 28.9428 79.2699 28.6013 79.1368 28.3259C78.203 26.4279 76.034 25.2983 72.3439 25.2983C69.1356 25.2983 66.9817 26.2773 65.7918 27.7535C65.0086 28.7626 64.6471 30.0278 64.6471 31.4437C64.6471 33.0101 65.0688 34.3507 65.7617 35.2393Z" fill="#697077"/>
<path d="M69.249 31.474C69.249 30.4912 69.45 29.9228 69.7448 29.5832C70.1883 29.0841 70.9974 28.8008 72.4193 28.8008C73.6837 28.8008 74.4402 29.0963 74.729 29.3542L74.7353 29.3597L74.7417 29.3651C74.841 29.4478 74.9318 29.5498 75.0004 29.6492C75.0683 29.7474 75.0954 29.8156 75.1022 29.8395H71.2367V33.3646H75.1715C75.0305 33.5239 74.7281 33.7226 74.2475 33.8823C73.7692 34.0412 73.1553 34.1472 72.4495 34.1472C70.9611 34.1472 70.1241 33.762 69.7115 33.2882C69.4418 32.9346 69.249 32.3924 69.249 31.474Z" fill="#697077"/>
<path d="M89.8218 29.8662L88.6996 32.0087H90.882L89.8218 29.8662Z" fill="#697077"/>
<path fill-rule="evenodd" clip-rule="evenodd" d="M92.9504 35.1495L93.9899 37.3335H98.343L92.3777 25.5098H87.513L81.2019 37.3335H85.4645L86.564 35.1495H92.9504ZM87.8895 32.4986L89.3807 29.6519L89.8325 28.5674L90.2543 29.6368L91.6704 32.4986H87.8895Z" fill="#697077"/>
<path fill-rule="evenodd" clip-rule="evenodd" d="M124.381 57.8062H124.374C124.29 57.8062 124.206 57.8058 124.122 57.8049V57.8062H31.9932C23.8635 57.8062 16.6117 54.0469 11.8816 48.1719H25.4555V46.4514H10.6097C8.395 43.1808 6.91096 39.3751 6.3919 35.2686H25.4555V33.5483H6.23245C6.20211 33.0359 6.18677 32.5196 6.18677 31.9998C6.18677 28.5939 6.84652 25.3422 8.04532 22.3654H25.4555V20.645H8.81265C10.6364 16.9288 13.3274 13.7153 16.622 11.2686H109.009C110.161 10.4133 111.386 9.65154 112.674 8.99477C112.327 9.17177 111.985 9.35626 111.647 9.54815H19.26C23.0171 7.41278 27.3627 6.19336 31.9931 6.19336H124.122V6.19457C124.209 6.19372 124.295 6.19336 124.381 6.19336C138.633 6.19336 150.187 17.7472 150.187 31.9998C150.187 46.2523 138.633 57.8062 124.381 57.8062ZM133.976 44.1033C135.132 40.6224 135.821 36.4878 135.821 31.9998C135.821 27.8158 135.221 23.9391 134.205 20.6126C134.08 20.2065 133.95 19.8086 133.814 19.4193C133.587 18.7709 133.343 18.1466 133.085 17.5483C132.736 16.7403 132.361 15.9798 131.962 15.2718C130.08 11.9314 127.933 10.1323 125.929 9.52663V17.5483H131.199C131.645 18.4995 132.052 19.5354 132.412 20.645H125.929V30.4513H134.072C134.091 30.9617 134.101 31.478 134.101 31.9998C134.101 32.5216 134.091 33.0379 134.072 33.5482H125.929V43.3546H132.41C132.052 44.4642 131.645 45.5 131.199 46.4513H125.929V54.4731C127.933 53.8675 130.08 52.0683 131.962 48.7277C132.361 48.0198 132.737 47.2593 133.085 46.4513C133.406 45.7076 133.704 44.9236 133.976 44.1033ZM137.439 20.645C138.265 23.6342 138.776 26.9488 138.892 30.4513H147.038C146.798 26.896 145.74 23.565 144.052 20.645H137.439ZM141.899 17.5483H136.427C135.434 14.9459 134.18 12.6823 132.733 10.8755C136.33 12.2988 139.476 14.614 141.899 17.5483ZM122.833 9.5263V17.5483H115.676C116.024 16.7403 116.399 15.9798 116.799 15.2718C118.68 11.9308 120.829 10.1315 122.833 9.5263ZM116.028 10.8754C114.58 12.6822 113.327 14.9458 112.334 17.5483H106.861C109.284 14.6139 112.431 12.2986 116.028 10.8754ZM111.321 20.645H101.412V22.3654H103.81C102.645 24.8482 101.916 27.5764 101.722 30.4513H109.868C109.985 26.9488 110.495 23.6342 111.321 20.645ZM122.833 20.645H114.547C113.662 23.5495 113.096 26.872 112.968 30.4513H122.833V20.645ZM138.892 33.5482C138.776 37.0507 138.265 40.3653 137.439 43.3546H144.052C145.74 40.4346 146.798 37.1035 147.038 33.5482H138.892ZM114.547 43.3546C113.662 40.4501 113.096 37.1275 112.968 33.5482H122.833V43.3546H114.547ZM111.321 43.3546C110.495 40.3653 109.985 37.0507 109.868 33.5482H101.722C101.962 37.1035 103.02 40.4346 104.709 43.3546H111.321ZM136.427 46.4513C135.434 49.0537 134.18 51.3172 132.734 53.124C136.33 51.7006 139.476 49.3855 141.899 46.4513H136.427ZM115.676 46.4513H122.833V54.4734C120.829 53.8682 118.68 52.0689 116.799 48.7277C116.399 48.0198 116.024 47.2593 115.676 46.4513ZM112.334 46.4513L101.412 46.4514V48.1718H108.437C110.591 50.2955 113.166 51.9921 116.028 53.1242C114.58 51.3174 113.327 49.0538 112.334 46.4513ZM78.04 17.2963C76.463 17.2994 75.1726 17.7545 75.1789 19.3409V19.6464C75.1726 21.2297 76.463 21.6878 78.04 21.6909C79.614 21.6878 80.9044 21.2297 80.8981 19.6464V19.3409C80.8981 17.7576 79.6171 17.2963 78.04 17.2963ZM29.0447 17.3992V21.5881H30.6779V17.3992H29.0447ZM35.6304 19.6183L33.7915 17.3992H31.5444V21.5881H33.1776V19.0293L35.4278 21.5881H37.2667V17.3992H35.6304V19.6183ZM41.4089 18.7331V21.5944H39.7757V18.7331H37.834V17.4055H43.3506V18.7331H41.4089ZM43.8992 21.5944H48.8018V20.5191H45.5323V19.983H48.8018V19.0136H45.5323V18.4776H48.8018V17.4055H43.8992V21.5944ZM49.6714 21.5912V17.4023H53.7076C54.5709 17.393 55.3034 18.1192 55.2909 18.9856C55.2909 19.3004 55.2067 19.5871 55.0384 19.8428C54.8732 20.0951 54.652 20.2885 54.3777 20.4162L55.2909 21.5912H53.5518L52.7632 20.569H51.3046V21.5912H49.6714ZM59.885 19.6183L58.0461 17.3992H55.7989V21.5881H57.4321V19.0293L59.6824 21.5881H61.5213V17.3992H59.885V19.6183ZM63.4849 21.5944H61.646L63.8932 17.4055H65.8349L68.0821 21.5944H66.2432L65.9128 20.8775H63.8153L63.4849 21.5944ZM70.5754 21.5944V18.7331H72.5172V17.4055H67.0006V18.7331H68.9423V21.5944H70.5754ZM73.0657 21.5881V17.3992H74.6989V21.5881H73.0657ZM83.6346 17.3992L85.4735 19.6183V17.3992H87.1098V21.5881H85.2709L83.0207 19.0293V21.5881H81.3874V17.3992H83.6346ZM87.2345 21.5944H89.0733L89.4038 20.8775H91.5011L91.8321 21.5944H93.6705L91.4239 17.4055H89.4817L87.2345 21.5944ZM93.7985 21.5881V17.3992H95.4316V20.2603H98.7011V21.5881H93.7985ZM33.2764 42.4803C32.5254 42.4803 31.6039 42.591 31.6039 43.0839C31.6039 43.3558 32.3549 43.3927 33.3271 43.4387L33.3378 43.4392C35.0649 43.5267 37.4829 43.6492 37.4784 45.1987C37.4784 46.968 35.4511 47.3873 33.2764 47.3873C31.1064 47.3826 29.3049 47.12 29.0745 45.1987H31.6039C31.8804 45.6779 32.5208 45.8023 33.2764 45.8023C34.0274 45.8023 34.9489 45.6779 34.9489 45.1987C34.9489 44.9269 34.1979 44.8854 33.2258 44.8394L33.215 44.8389C31.4879 44.7514 29.0699 44.6289 29.0745 43.0839C29.0745 41.3148 31.1018 40.8908 33.2764 40.8908C35.4465 40.9046 37.248 41.1488 37.4784 43.0839H34.9489C34.6724 42.5955 34.0321 42.4803 33.2764 42.4803ZM42.8367 43.0149V47.2444H40.4225V43.0149H37.5521V41.0522H45.7071V43.0149H42.8367ZM44.1037 47.2444H46.822L47.3104 46.1847H50.4112L50.8996 47.2444H53.618L50.296 41.0522H47.4256L44.1037 47.2444ZM57.1288 41.0429L59.8471 44.3233V41.0429H62.266V47.2352H59.5477L56.2211 43.4526V47.2352H53.8069V41.0429H57.1288ZM63.6758 41.0522V47.2444H69.1863C70.8864 47.2674 72.1488 45.83 72.1349 44.1482C72.1488 42.4574 70.8864 41.0291 69.1863 41.0522H63.6758ZM74.3742 47.2444H71.6558L74.9777 41.0522H77.8481L81.17 47.2444H78.4516L77.9632 46.1847H74.8625L74.3742 47.2444ZM81.3589 41.0475V47.2398H83.7732V45.7286H85.9295L87.095 47.2398H89.666L88.316 45.5028C88.7215 45.3139 89.0486 45.0283 89.2928 44.655C89.5416 44.2773 89.666 43.8534 89.666 43.388C89.6844 42.1072 88.6017 41.0337 87.3254 41.0475H81.3589ZM90.417 47.2444V41.0522H95.927C97.6274 41.0291 98.8898 42.4574 98.8765 44.1482C98.8898 45.83 97.6274 47.2674 95.927 47.2444H90.417ZM47.336 37.8229H42.5306V33.2827L40.5389 37.8229H36.4633L34.503 33.3059V37.8229H29.6826V25.0195H35.7658L38.5275 31.3959L41.4246 25.0195H47.336V37.8229ZM63.0118 37.8229H49.5758V25.0195H62.9065V28.9513H54.5318V29.493H62.6655V33.3494H54.5318V33.9061H63.0118V37.8229ZM80.0789 37.8229H75.9039L75.8338 37.0627C74.7872 37.6572 73.3703 38.0037 71.5458 38.0037C68.9503 38.0037 66.6789 37.2274 65.375 35.5399C64.5993 34.5445 64.1575 33.0893 64.1575 31.4438C64.1575 29.9445 64.5411 28.5664 65.4051 27.4533L65.4079 27.4496L65.4107 27.4462C66.7232 25.8179 69.0424 24.8086 72.3441 24.8086C76.1178 24.8086 78.523 25.9683 79.5766 28.1097L79.5775 28.1114L79.5782 28.113C79.8232 28.6204 79.9557 29.2907 79.9729 29.7222L79.9777 29.8394H80.0789V37.8229ZM86.8664 35.6389L85.7669 37.8229H80.3858L87.2197 25.0195H92.6807L99.1392 37.8229H93.6804L92.6421 35.6389H86.8664ZM28.9825 53.5912H99.0895V51.8707H28.9825V53.5912Z" fill="#697077"/>
<path fill-rule="evenodd" clip-rule="evenodd" d="M31.9932 0H124.38C142.053 0 156.38 14.3268 156.38 32C156.38 49.6732 142.053 64 124.38 64H31.9932C14.32 64 -0.00683594 49.6732 -0.00683594 32C-0.00683594 14.3268 14.32 0 31.9932 0ZM31.9932 3.09683C16.0303 3.09683 3.08999 16.0372 3.08999 32C3.08999 47.9628 16.0303 60.9033 31.9932 60.9033H124.38C140.343 60.9033 153.283 47.9628 153.283 32C153.283 16.0372 140.343 3.09683 124.38 3.09683H31.9932Z" fill="#697077"/>
</svg>
