<svg width="135" height="64" viewBox="0 0 135 64" fill="none" xmlns="http://www.w3.org/2000/svg">
<path d="M7.33692 12.6476C6.46147 10.4226 6.84152 7.86435 7.64794 5.71271C8.49638 3.44863 9.97376 1.19074 12.1819 0C12.2914 2.3859 11.5626 4.74314 10.7662 6.86873C10.0501 8.78059 9.17134 10.8174 7.72028 12.3986C7.49732 13.5966 7.32645 14.7914 7.20628 15.9806C7.68721 14.7243 8.46703 13.5791 9.44005 12.6583C10.6928 11.4727 12.5563 10.5578 14.3055 11.0988C13.7932 13.0325 12.6253 14.886 11.2422 16.1863C10.1536 17.2098 8.71645 18.5212 7.0237 18.5728C6.95397 20.3229 6.99338 22.057 7.13738 23.7675C7.37619 22.5157 7.88785 21.337 8.62716 20.4592C9.64276 19.253 11.1486 17.7793 13.0718 18.0259C12.9668 19.9829 12.1861 21.9881 11.099 23.4948C10.2351 24.6921 9.09472 26.2182 7.47596 26.6124C7.73517 28.2932 8.09621 29.9461 8.55426 31.5635C8.55867 30.3251 8.83221 29.1095 9.37487 28.1346C10.1396 26.7597 11.3308 25.0452 13.2562 24.9111C13.5384 26.8311 13.156 28.93 12.3846 30.5993C11.768 31.9336 10.9461 33.6352 9.44777 34.3392C10.0769 36.0794 10.8215 37.7709 11.6752 39.4036C11.3754 37.9964 11.3874 36.5135 11.7421 35.1793C12.2309 33.3399 13.4443 31.4078 15.3922 30.8471C16.0808 32.8777 15.9859 35.144 15.5858 37.208C15.2566 38.9074 14.6098 40.9033 13.1598 42.0072C14.1078 43.5369 15.1565 45.0051 16.3001 46.402C15.6856 45.032 15.3802 43.5336 15.5441 42.1618C15.7828 40.1634 16.3443 38.0256 18.3856 36.9601C19.5436 38.9582 19.8119 41.1998 19.9103 43.4139C19.9899 45.2038 19.732 47.4115 18.4889 48.8677C19.8563 50.2894 21.3318 51.62 22.9077 52.847C21.8903 51.5419 21.1778 50.0103 21.0269 48.4958C20.8139 46.3558 20.9181 44.0001 22.8171 42.4297C24.4413 44.1261 25.4104 46.6243 25.8854 48.7941C26.3054 50.7126 26.7439 52.9833 25.7439 54.8713C27.7495 56.1804 29.8905 57.3338 32.1542 58.3105C30.5613 57.1755 29.2574 55.6182 28.6362 54.0103C27.8222 51.9026 27.3187 49.3912 28.9044 47.2803C31.0289 48.6411 32.5903 50.9628 33.8205 53.0803C34.876 54.8972 35.9687 57.4049 35.4265 59.5688C36.6798 59.9941 37.9655 60.3675 39.282 60.6861L39.2037 61.0093C37.8823 60.6894 36.5917 60.3147 35.3333 59.8882C34.4516 62.4937 31.5634 63.3544 29.2277 63.7344C25.8996 64.2758 21.9369 63.2268 19.0957 61.1134C20.5952 58.9942 23.6548 58.7792 25.9619 58.617L25.9919 58.6149C28.5194 58.4373 31.2529 58.6746 33.7946 59.335C30.8584 58.2173 28.1111 56.8119 25.5777 55.1598L25.5404 55.2188C24.1522 57.4698 21.365 57.5576 19.1772 57.4152C16.2086 57.222 12.7812 55.417 10.7975 52.9218C12.6633 51.2847 15.4192 51.7429 17.5546 52.0979L17.565 52.0995C19.9482 52.4957 22.5525 53.36 24.7386 54.6908C24.5304 54.5268 24.3266 54.3533 24.1286 54.1714C22.0031 52.656 20.0425 50.9609 18.2633 49.1127C18.2427 49.1334 18.2217 49.1539 18.2006 49.1743C16.4707 50.9146 13.9511 50.4589 11.9848 49.8925C9.35351 49.1346 6.62462 46.8481 5.31688 44.2231C7.3434 43.0876 9.76623 44.0233 11.6508 44.7634C13.7192 45.5757 15.9076 46.8752 17.5903 48.5317C17.4168 48.3129 17.2513 48.0843 17.0949 47.8477C15.5309 46.0824 14.1239 44.1922 12.887 42.1981L12.825 42.2369C10.8679 43.4999 8.65058 42.5853 6.8932 41.6859C4.51047 40.4665 2.59571 37.7865 1.76835 35.1509C3.88209 34.4739 5.97048 35.8027 7.59392 36.8551C9.3695 38.006 11.1681 39.6475 12.4026 41.53C12.3119 41.3445 12.2275 41.1549 12.1496 40.9617C10.9634 38.8922 9.9557 36.7196 9.13992 34.4659L9.09789 34.4802L9.09444 34.4814C7.31501 35.1579 5.33342 34.1062 4.04153 32.9528C2.24597 31.3499 0.9804 28.8856 0.683713 26.4781C2.53894 26.2377 4.28682 27.6731 5.48183 28.8973C6.85737 30.3063 8.09194 31.9717 8.85095 33.8214C8.79555 33.6205 8.74801 33.4164 8.70805 33.2102C8.01739 31.0924 7.49415 28.9082 7.14923 26.6753L7.12236 26.6786L7.11327 26.6801C5.232 26.9941 3.49266 25.5639 2.4535 24.1758C0.995558 22.228 0.243987 19.5322 0.432362 17.0888C2.30633 17.2198 3.73327 19.0026 4.6586 20.4447C5.7296 22.1142 6.61773 24.0036 7.00675 25.9802C6.9949 25.8229 6.98787 25.6648 6.98539 25.5061C6.69972 23.2335 6.59789 20.9143 6.69104 18.5664L6.68567 18.5662C4.77298 18.4973 3.35941 16.7214 2.62961 15.1462C1.58535 12.892 1.41723 10.0427 2.11423 7.64138C3.93721 8.15304 4.9535 10.2442 5.55335 11.8538C6.24498 13.7098 6.7277 15.7339 6.73156 17.7464C6.83105 16.058 7.03141 14.3563 7.33692 12.6476Z" fill="#697077"/>
<path d="M45.0081 8.48193V16.5431C45.0081 20.0886 41.7971 21.7944 36.9303 21.7944C32.3813 21.7944 29.1201 20.1054 29.1201 16.125V8.48193H33.6524V16.125C33.6524 17.5465 34.8732 18.4329 37.1143 18.4329C39.255 18.4329 40.5261 17.513 40.5261 16.1416V8.48193H45.0081Z" fill="#697077"/>
<path d="M60.1025 18.1151V21.6104H47.576V8.48193H52.1083V18.1151H60.1025Z" fill="#697077"/>
<path d="M73.5724 11.7766V8.48193H57.9017V11.7766H63.4375V21.6104H68.02V11.7766H73.5724Z" fill="#697077"/>
<path fill-rule="evenodd" clip-rule="evenodd" d="M89.6482 9.81999C90.2504 10.4387 90.5357 11.2917 90.5357 12.479C90.5357 13.4993 90.2849 14.369 89.8659 14.9542C89.3974 15.5897 88.6781 16.125 87.792 16.2588L91.7566 21.6104H86.7723L83.5105 16.9778H79.447V21.6104H74.9816V8.48193H85.4342C87.5082 8.48193 88.8628 8.98367 89.6482 9.81999ZM86.0364 13.5829C86.1536 13.3822 86.1866 13.1146 86.1866 12.8972C86.1866 12.6463 86.1536 12.3787 86.0364 12.2115C85.8022 11.7766 85.3336 11.6596 84.6309 11.6596H79.4637V14.0512H84.7149C85.4342 14.0512 85.8697 13.9174 86.0364 13.5829Z" fill="#697077"/>
<path fill-rule="evenodd" clip-rule="evenodd" d="M97.7898 19.1855H104.881L106.035 21.6104H110.869L104.246 8.48193H98.844L91.8368 21.6104H96.5689L97.7898 19.1855ZM103.459 16.242H99.2616L100.918 13.0812L101.42 11.877L101.888 13.0644L103.459 16.242Z" fill="#697077"/>
<path fill-rule="evenodd" clip-rule="evenodd" d="M89.1703 24.083C86.3647 24.083 84.8888 25.4128 84.8888 27.3668C84.8888 29.5723 86.4377 30.6912 89.1703 30.6912C92.1785 30.6912 93.4435 29.3939 93.4435 27.3668C93.4435 25.3074 92.0159 24.083 89.1703 24.083ZM89.1703 29.0615C87.5732 29.0615 87.1102 28.4047 87.1102 27.3912C87.1102 26.3939 87.6131 25.7372 89.162 25.7372C90.857 25.7372 91.2373 26.475 91.2373 27.3912C91.2373 28.3642 90.7757 29.0615 89.1703 29.0615Z" fill="#697077"/>
<path d="M80.7304 30.5945V26.8243H76.4979V28.1946H78.7601C78.7439 28.3 78.6628 28.5027 78.5574 28.6243C78.3223 28.9 77.6979 29.1432 76.8871 29.1432C76.0438 29.1432 75.5006 28.9243 75.2088 28.5837C75.0142 28.3324 74.9006 27.9756 74.9006 27.4405C74.9006 26.8811 75.0142 26.5 75.233 26.2487C75.5493 25.8919 76.0844 25.7379 76.8709 25.7379C77.5763 25.7379 78.0628 25.8999 78.2899 26.1026C78.4358 26.2243 78.5492 26.3946 78.5736 26.508H80.6736C80.6656 26.3053 80.6007 25.9811 80.4871 25.746C79.9844 24.7243 78.8168 24.1162 76.8304 24.1162C75.1034 24.1162 73.9439 24.6432 73.3034 25.4379C72.8817 25.9811 72.6871 26.6621 72.6871 27.4243C72.6871 28.2676 72.9141 28.9892 73.2871 29.4676C73.9195 30.2866 75.0466 30.6918 76.4006 30.6918C77.5926 30.6918 78.4114 30.4081 78.9304 29.9784L78.9872 30.5945H80.7304Z" fill="#697077"/>
<path d="M58.6429 26.7431C60.2888 26.9214 60.9942 27.5053 60.9942 28.6161C60.9942 29.962 59.6807 30.6917 57.0942 30.6917C54.6861 30.6917 53.6483 30.0107 53.2509 29.1188C53.1617 28.908 53.1212 28.6485 53.0968 28.4863H55.432C55.4483 28.5836 55.505 28.7295 55.5861 28.8268C55.7806 29.062 56.3238 29.1998 57.2482 29.1998C58.4402 29.1998 58.7239 29.0295 58.7239 28.7134C58.7239 28.3728 58.4321 28.2999 57.3536 28.1863C56.924 28.1458 56.2428 28.0809 55.9591 28.0566C53.8996 27.8701 53.1375 27.2296 53.1375 26.135C53.1375 24.9998 54.4834 24.1323 56.9401 24.1323C59.1212 24.1323 60.1348 24.781 60.5564 25.5918C60.6861 25.835 60.7671 26.1106 60.7915 26.3052H58.4563C58.4482 26.216 58.4158 26.1269 58.3267 26.0133C58.1482 25.7782 57.6941 25.6242 56.8833 25.6242C55.7401 25.6242 55.4401 25.762 55.4401 26.0538C55.4401 26.3782 55.8213 26.4513 57.0942 26.5891C57.5887 26.6296 58.3753 26.7106 58.6429 26.7431Z" fill="#697077"/>
<path fill-rule="evenodd" clip-rule="evenodd" d="M35.3649 24.7727C35.7946 25.1132 36.0378 25.689 36.0378 26.524C36.0378 27.2052 35.8676 27.7159 35.5432 28.0726C35.1054 28.5753 34.3838 28.8024 33.4433 28.8106C33.1513 28.8187 30.654 28.8106 30.654 28.8106V30.5943H28.4729V24.2295H33.4108C34.2865 24.2295 34.9514 24.4078 35.3649 24.7727ZM33.7514 27.0186C33.8162 26.9052 33.8487 26.7591 33.8487 26.5564C33.8487 26.3457 33.808 26.1673 33.7351 26.07C33.5973 25.8673 33.3379 25.77 32.9162 25.77H30.6378V27.3267H32.8999C33.354 27.3267 33.6216 27.2213 33.7514 27.0186Z" fill="#697077"/>
<path fill-rule="evenodd" clip-rule="evenodd" d="M44.0166 24.8781C44.3086 25.1781 44.4464 25.5917 44.4464 26.1673C44.4464 26.6618 44.3247 27.0835 44.122 27.3672C43.8951 27.6754 43.5464 27.9348 43.1166 27.9997L45.0383 30.5943H42.6221L41.0409 28.3484H39.0706V30.5943H36.9058V24.2295H41.9734C42.9788 24.2295 43.6356 24.4727 44.0166 24.8781ZM42.2653 26.7025C42.3221 26.6052 42.3382 26.4754 42.3382 26.37C42.3382 26.2484 42.3221 26.1186 42.2653 26.0376C42.1517 25.8268 41.9248 25.77 41.5843 25.77H39.0788V26.9294H41.6248C41.9734 26.9294 42.1843 26.8645 42.2653 26.7025Z" fill="#697077"/>
<path d="M52.4398 30.5943V29.0133H47.875V28.1862H52.2534V26.6376H47.875V25.8186H52.383V24.2295H45.7344V30.5943H52.4398Z" fill="#697077"/>
<path d="M68.8849 25.8268V24.2295H61.2876V25.8268H63.9713V30.5943H66.1929V25.8268H68.8849Z" fill="#697077"/>
<path d="M71.8056 24.2295V30.5943H69.5758V24.2295H71.8056Z" fill="#697077"/>
<path d="M84.0084 24.2295V30.5943H81.7782V24.2295H84.0084Z" fill="#697077"/>
<path d="M102.046 24.2295V28.1376C102.046 29.8565 100.489 30.6836 98.1299 30.6836C95.9251 30.6836 94.3431 29.8646 94.3431 27.9348V24.2295H96.5411V27.9348C96.5411 28.624 97.1323 29.0538 98.2195 29.0538C99.2572 29.0538 99.8731 28.6079 99.8731 27.943V24.2295H102.046Z" fill="#697077"/>
<path d="M110.799 28.6161C110.799 27.5053 110.094 26.9214 108.449 26.7431C108.18 26.7106 107.394 26.6296 106.9 26.5891C105.626 26.4513 105.245 26.3782 105.245 26.0538C105.245 25.762 105.545 25.6242 106.689 25.6242C107.499 25.6242 107.954 25.7782 108.132 26.0133C108.221 26.1269 108.253 26.216 108.261 26.3052H110.597C110.572 26.1106 110.491 25.835 110.361 25.5918C109.94 24.781 108.927 24.1323 106.745 24.1323C104.288 24.1323 102.942 24.9998 102.942 26.135C102.942 27.2296 103.705 27.8701 105.764 28.0566L105.896 28.0684L106.117 28.0885L107.159 28.1863C108.238 28.2999 108.528 28.3728 108.528 28.7134C108.528 29.0295 108.246 29.1998 107.054 29.1998C106.129 29.1998 105.586 29.062 105.391 28.8268C105.311 28.7295 105.253 28.5836 105.238 28.4863H102.902C102.927 28.6485 102.967 28.908 103.056 29.1188C103.453 30.0107 104.491 30.6917 106.9 30.6917C109.486 30.6917 110.799 29.962 110.799 28.6161Z" fill="#697077"/>
<path fill-rule="evenodd" clip-rule="evenodd" d="M54.1001 33.0312C52.2768 33.0312 51.3177 33.8955 51.3177 35.1655C51.3177 36.5988 52.3243 37.326 54.1001 37.326C56.0552 37.326 56.8772 36.4829 56.8772 35.1655C56.8772 33.8271 55.9498 33.0312 54.1001 33.0312ZM54.1001 36.2668C53.062 36.2668 52.7616 35.8399 52.7616 35.1812C52.7616 34.5332 53.0884 34.1062 54.0949 34.1062C55.1962 34.1062 55.4439 34.5858 55.4439 35.1812C55.4439 35.8136 55.1435 36.2668 54.1001 36.2668Z" fill="#697077"/>
<path d="M43.9608 35.9771C43.9608 35.2551 43.5024 34.8756 42.4326 34.7597C42.2587 34.7387 41.7476 34.686 41.4261 34.6597C40.5987 34.57 40.3511 34.5226 40.3511 34.3119C40.3511 34.1221 40.5461 34.0326 41.2891 34.0326C41.8161 34.0326 42.1111 34.1326 42.2271 34.2854C42.285 34.3593 42.3061 34.4172 42.3115 34.4752H43.8291C43.8132 34.3487 43.7606 34.1695 43.6763 34.0115C43.4022 33.4845 42.7435 33.063 41.3259 33.063C39.7293 33.063 38.8546 33.6267 38.8546 34.3645C38.8546 35.076 39.3498 35.4923 40.6883 35.6134C40.8728 35.6293 41.3154 35.6714 41.5948 35.6978C42.2956 35.7715 42.4852 35.819 42.4852 36.0403C42.4852 36.2458 42.3009 36.3565 41.5263 36.3565C40.9255 36.3565 40.5724 36.2669 40.4459 36.1141C40.3933 36.0508 40.3563 35.956 40.3459 35.8927H38.8281C38.844 35.9982 38.8703 36.1667 38.9283 36.3038C39.1865 36.8834 39.8611 37.326 41.4261 37.326C43.1071 37.326 43.9608 36.8518 43.9608 35.9771Z" fill="#697077"/>
<path fill-rule="evenodd" clip-rule="evenodd" d="M33.4394 36.0933C33.4394 36.3779 33.3603 36.6572 33.2022 36.8416C32.9598 37.1368 32.5066 37.2631 31.9217 37.2631H28.2488V33.1265H31.8216C32.3907 33.1265 32.7543 33.2636 32.9546 33.469C33.1337 33.6482 33.2128 33.8853 33.2128 34.1541C33.2128 34.4229 33.1496 34.6442 33.0126 34.8075C32.9018 34.9446 32.7122 35.0499 32.512 35.0764C32.807 35.1132 33.0863 35.2607 33.2444 35.4662C33.3761 35.619 33.4394 35.8509 33.4394 36.0933ZM31.6635 34.6442C31.7161 34.5862 31.7478 34.5019 31.7478 34.4018C31.7478 34.3016 31.7161 34.2173 31.6477 34.1594C31.5739 34.0908 31.4368 34.0645 31.2366 34.0645H29.6294V34.739H31.2735C31.4527 34.739 31.5898 34.7127 31.6635 34.6442ZM31.4264 36.3253C31.674 36.3253 31.8216 36.2936 31.9059 36.2146C31.9585 36.1618 31.9796 36.0829 31.9796 35.9827C31.9796 35.8773 31.9533 35.7983 31.8901 35.7351C31.8111 35.6666 31.674 35.6349 31.4422 35.6349H29.6294V36.3253H31.4264Z" fill="#697077"/>
<path d="M38.4014 36.2357V37.2631H34.0435V33.1265H38.3645V34.1594H35.4346V34.6916H38.2802V35.6981H35.4346V36.2357H38.4014Z" fill="#697077"/>
<path d="M49.0887 33.1265V34.1647H47.3392V37.2631H45.8954V34.1647H44.1511V33.1265H49.0887Z" fill="#697077"/>
<path d="M61.6994 33.1265V34.1751H58.8907V34.7601H61.5677V35.7983H58.8907V37.2631H57.4731V33.1265H61.6994Z" fill="#697077"/>
<path d="M68.8399 34.1647V33.1265H63.9023V34.1647H65.6466V37.2631H67.0905V34.1647H68.8399Z" fill="#697077"/>
<path d="M74.2268 33.1265V37.2631H72.8144V35.7614H70.696V37.2631H69.2838V33.1265H70.696V34.6336H72.8144V33.1265H74.2268Z" fill="#697077"/>
<path d="M79.421 37.2631V36.2357H76.4541V35.6981H79.2997V34.6916H76.4541V34.1594H79.384V33.1265H75.063V37.2631H79.421Z" fill="#697077"/>
<path d="M88.1573 33.1265H89.5216L88.0099 37.2631H86.461C86.461 37.2631 85.6328 34.7918 85.6273 34.7232C85.6232 34.7918 84.7895 37.2631 84.7895 37.2631H83.2461L81.6968 33.1265H83.2295C83.2295 33.1265 84.1266 35.7297 84.1266 35.7929C84.1266 35.7297 84.9535 33.1265 84.9535 33.1265H86.4348C86.4348 33.1265 87.2671 35.7297 87.2671 35.7929C87.2671 35.7297 88.1573 33.1265 88.1573 33.1265Z" fill="#697077"/>
<path fill-rule="evenodd" clip-rule="evenodd" d="M92.2283 33.0312C90.4052 33.0312 89.446 33.8955 89.446 35.1655C89.446 36.5988 90.452 37.326 92.2283 37.326C94.1837 37.326 95.005 36.4829 95.005 35.1655C95.005 33.8271 94.0776 33.0312 92.2283 33.0312ZM92.2283 36.2668C91.1906 36.2668 90.8902 35.8399 90.8902 35.1812C90.8902 34.5332 91.2168 34.1062 92.2227 34.1062C93.3252 34.1062 93.5718 34.5858 93.5718 35.1812C93.5718 35.8136 93.2714 36.2668 92.2283 36.2668Z" fill="#697077"/>
<path fill-rule="evenodd" clip-rule="evenodd" d="M100.223 33.5481C100.412 33.7431 100.502 34.0118 100.502 34.386C100.502 34.7075 100.423 34.9814 100.291 35.1659C100.143 35.3662 99.9174 35.5348 99.6377 35.5769L100.886 37.2631H99.3166L98.2886 35.8035H97.0084V37.2631H95.6014V33.1265H98.8949C99.5481 33.1265 99.9753 33.2847 100.223 33.5481ZM99.0851 34.7338C99.1209 34.6705 99.1319 34.5862 99.1319 34.5177C99.1319 34.4386 99.1209 34.3544 99.0851 34.3016C99.0107 34.1647 98.8632 34.1277 98.6413 34.1277H97.0139V34.8814H98.6675C98.8949 34.8814 99.0313 34.8392 99.0851 34.7338Z" fill="#697077"/>
<path d="M105.286 37.2631V36.1618H102.767V33.1265H101.34V37.2631H105.286Z" fill="#697077"/>
<path fill-rule="evenodd" clip-rule="evenodd" d="M110.874 35.1184C110.874 35.7614 110.811 36.1092 110.622 36.4359C110.337 36.9575 109.773 37.2631 108.777 37.2631H105.847V33.1265H108.745C109.736 33.1265 110.321 33.4058 110.611 33.8853C110.816 34.2068 110.874 34.5493 110.874 35.1184ZM108.508 36.2462C108.956 36.2462 109.209 36.1407 109.362 35.909C109.457 35.7666 109.484 35.4346 109.484 35.1448C109.478 34.8814 109.446 34.602 109.362 34.4755C109.198 34.2279 108.952 34.1383 108.519 34.1383H107.26V36.2462H108.508Z" fill="#697077"/>
<path d="M54.3462 57.3813H52.1626C52.1626 57.3813 50.7377 61.5464 50.7377 61.6476C50.7377 61.5464 49.4056 57.3813 49.4056 57.3813H47.0364C47.0364 57.3813 45.7126 61.5464 45.7126 61.6476C45.7126 61.5464 44.2794 57.3813 44.2794 57.3813H41.8258L44.3046 63.9998H46.775C46.775 63.9998 48.1071 60.0456 48.1155 59.9361C48.124 60.0456 49.4476 63.9998 49.4476 63.9998H51.9264L54.3462 57.3813Z" fill="#697077"/>
<path d="M57.3345 63.9998V57.3813H55.0159V63.9998H57.3345Z" fill="#697077"/>
<path d="M66.3531 57.3813V63.9998H64.0934L60.8137 60.3154V63.9998H58.6385V57.3813H61.016L64.1946 60.9816V57.3813H66.3531Z" fill="#697077"/>
<path d="M75.3848 63.9998V57.3813H73.2265V60.9816L70.0479 57.3813H67.6703V63.9998H69.8455V60.3154L73.1253 63.9998H75.3848Z" fill="#697077"/>
<path d="M83.6761 62.3557V63.9998H76.7028V57.3813H83.6168V59.0339H78.9287V59.8855H83.4818V61.4958H78.9287V62.3557H83.6761Z" fill="#697077"/>
<path fill-rule="evenodd" clip-rule="evenodd" d="M92.5877 59.3964C92.5877 58.7978 92.4444 58.3679 92.1413 58.0559C91.7444 57.6344 91.0623 57.3813 90.0164 57.3813H84.7468V63.9998H86.9985V61.6644H89.0476L90.6916 63.9998H93.2037L91.2056 61.3019C91.6521 61.2344 92.0145 60.9646 92.2515 60.6442C92.461 60.3492 92.5877 59.9107 92.5877 59.3964ZM90.3953 59.6073C90.3953 59.7168 90.3788 59.8517 90.3195 59.9529C90.2355 60.1215 90.0164 60.1889 89.6539 60.1889H87.0068V58.9833H89.6112C89.9654 58.9833 90.2024 59.0423 90.3195 59.2615C90.3788 59.3459 90.3953 59.4808 90.3953 59.6073Z" fill="#697077"/>
<path d="M47.6141 45.7043L46.6998 42.8901L45.7853 45.7043H42.8263L45.2202 47.4435L44.3059 50.2577L46.6998 48.5185L49.0935 50.2577L48.1792 47.4435L50.5731 45.7043H47.6141Z" fill="#697077"/>
<path d="M57.2558 42.8887L58.1888 45.7029H61.2082L58.7655 47.4422L59.6986 50.2562L57.2558 48.517L54.8131 50.2562L55.7462 47.4422L53.3033 45.7029H56.3227L57.2558 42.8887Z" fill="#697077"/>
<path d="M68.6612 45.7029L67.7283 42.8887L66.7953 45.7029H63.7758L66.2186 47.4422L65.2855 50.2562L67.7283 48.517L70.171 50.2562L69.2379 47.4422L71.6808 45.7029H68.6612Z" fill="#697077"/>
<path d="M78.2006 42.8887L79.1337 45.7029H82.153L79.7104 47.4422L80.6434 50.2562L78.2006 48.517L75.7579 50.2562L76.691 47.4422L74.2482 45.7029H77.2677L78.2006 42.8887Z" fill="#697077"/>
<path d="M89.672 45.7029L88.757 42.8887L87.842 45.7029H84.8834L87.277 47.4422L86.3634 50.2562L88.757 48.517L91.1506 50.2562L90.237 47.4422L92.6306 45.7029H89.672Z" fill="#697077"/>
<path d="M128.061 12.7084C128.936 10.4836 128.555 7.92503 127.749 5.77339C126.9 3.50945 125.423 1.25129 123.216 0.0605469C123.105 2.44658 123.834 4.80368 124.631 6.92928C125.347 8.841 126.225 10.8777 127.676 12.4587C127.899 13.6565 128.07 14.8509 128.19 16.0399C127.709 14.7841 126.931 13.6395 125.958 12.719C124.705 11.5332 122.841 10.6185 121.092 11.1595C121.605 13.093 122.772 14.9467 124.155 16.247C125.244 17.2705 126.681 18.5818 128.373 18.6335C128.444 20.3837 128.404 22.1179 128.259 23.8286C128.021 22.5768 127.509 21.398 126.769 20.5203C125.754 19.3139 124.248 17.8404 122.325 18.0869C122.43 20.044 123.211 22.0492 124.299 23.5559C125.161 24.7532 126.302 26.2794 127.922 26.6737C127.662 28.3541 127.301 30.0068 126.843 31.624C126.838 30.3858 126.566 29.1702 126.023 28.1953C125.258 26.8205 124.066 25.1059 122.141 24.9718C121.858 26.8918 122.241 28.9907 123.013 30.66C123.629 31.9943 124.452 33.6959 125.95 34.3999C125.32 36.1404 124.576 37.8323 123.721 39.4651C124.022 38.0576 124.009 36.5744 123.655 35.2398C123.166 33.4004 121.953 31.4682 120.005 30.9076C119.316 32.9385 119.411 35.2045 119.812 37.2685C120.141 38.968 120.788 40.964 122.237 42.0679C121.289 43.5985 120.24 45.0673 119.095 46.4649C119.711 45.0943 120.016 43.5952 119.852 42.2228C119.613 40.2241 119.053 38.0864 117.012 37.0212C115.853 39.0193 115.584 41.2609 115.486 43.475C115.406 45.265 115.664 47.4729 116.908 48.9292C115.54 50.3505 114.066 51.6807 112.49 52.9074C113.507 51.6023 114.22 50.0709 114.37 48.5564C114.584 46.4165 114.48 44.0609 112.58 42.4904C110.957 44.1867 109.987 46.6849 109.513 48.8548C109.092 50.7731 108.654 53.0439 109.653 54.932C107.648 56.2414 105.507 57.3949 103.243 58.3719C104.836 57.2367 106.139 55.6791 106.761 54.071C107.575 51.9634 108.078 49.4519 106.493 47.341C104.368 48.7018 102.807 51.0234 101.577 53.141C100.521 54.958 99.4282 57.4659 99.9712 59.6298C98.7172 60.055 97.4315 60.4285 96.1155 60.7471L96.194 61.0702C97.5142 60.7504 98.8054 60.3757 100.063 59.9492C100.945 62.5545 103.834 63.4155 106.169 63.7954C109.497 64.3368 113.461 63.2879 116.302 61.1744C114.801 59.0551 111.742 58.8402 109.435 58.678L109.405 58.6759C106.878 58.4983 104.144 58.7356 101.603 59.3961C104.538 58.2783 107.286 56.8728 109.82 55.2205L109.854 55.2756C111.242 57.5304 114.031 57.6185 116.219 57.4761C119.189 57.2829 122.616 55.4778 124.599 52.9826C122.733 51.3458 119.979 51.8037 117.843 52.1586L117.832 52.1605C115.449 52.5565 112.846 53.4204 110.66 54.7508C110.869 54.5869 111.071 54.4137 111.27 54.2319C113.394 52.7168 115.354 51.022 117.133 49.1741C117.158 49.1987 117.183 49.223 117.207 49.2471C118.938 50.9739 121.45 50.5183 123.413 49.9532C126.045 49.1953 128.773 46.9087 130.081 44.2838C128.054 43.1483 125.631 44.0838 123.747 44.8241C121.676 45.6371 119.487 46.9381 117.803 48.5968C117.976 48.3777 118.143 48.1487 118.3 47.9117C119.864 46.1455 121.273 44.2541 122.51 42.2588L122.564 42.292L122.578 42.3006C124.533 43.5591 126.749 42.6453 128.504 41.7465C130.887 40.5271 132.802 37.8472 133.629 35.2116C131.515 34.5346 129.428 35.8634 127.804 36.9158C126.027 38.0674 124.227 39.71 122.992 41.5939C123.083 41.408 123.169 41.2178 123.247 41.0242C124.434 38.954 125.441 36.7809 126.257 34.5266L126.3 34.5409L126.306 34.5436C128.085 35.2171 130.066 34.1661 131.357 33.0135C133.151 31.4106 134.417 28.9463 134.714 26.5387C132.859 26.2984 131.11 27.7338 129.915 28.9579C128.54 30.3678 127.304 32.0343 126.545 33.8855C126.601 33.6835 126.65 33.4783 126.69 33.2709C127.38 31.1532 127.904 28.9692 128.248 26.7365L128.3 26.7434C130.175 27.0468 131.908 25.6207 132.944 24.2365C134.402 22.2887 135.153 19.5928 134.965 17.1493C133.092 17.2805 131.664 19.0631 130.74 20.5054C129.667 22.1757 128.779 24.0662 128.39 26.044C128.402 25.8858 128.409 25.7268 128.412 25.5672C128.697 23.2945 128.799 20.9751 128.706 18.6273C130.62 18.5602 132.038 16.7831 132.768 15.2072C133.811 12.9531 133.979 10.1037 133.283 7.70248C131.46 8.21414 130.443 10.305 129.844 11.9147C129.152 13.7706 128.67 15.795 128.666 17.8075C128.566 16.1191 128.365 14.4173 128.061 12.7084Z" fill="#697077"/>
</svg>
