<svg width="134" height="64" viewBox="0 0 134 64" fill="none" xmlns="http://www.w3.org/2000/svg">
<path d="M121.193 4.51861C122.438 6.37909 123.633 8.67421 123.045 11.1338C121.017 9.97314 119.386 8.07813 118.093 6.20735C116.791 4.32401 115.438 2.32132 114.975 0C117.533 0.654234 119.822 2.47034 121.193 4.51861Z" fill="#697077"/>
<path d="M11.2534 11.13C10.6673 8.66999 11.8646 6.37578 13.1118 4.51636C14.4846 2.4693 16.7752 0.654859 19.3334 0.00244141C18.8686 2.32331 17.5141 4.32524 16.2103 6.20737C14.9153 8.07724 13.282 9.97104 11.2534 11.13Z" fill="#697077"/>
<path d="M9.46847 15.8486C9.92598 13.9005 9.91584 11.7677 9.48029 9.94038C9.09729 8.33447 8.53998 6.06434 6.7057 5.29834C5.37239 7.43702 4.83644 10.3494 5.61349 12.5317C6.17534 14.1102 7.18577 16.1972 9.28129 16.5203C11.2042 16.9636 13.1485 15.9378 14.6842 15.091C16.3917 14.1494 18.0642 12.6515 19.0804 10.8707C17.2163 9.92978 15.0934 10.6934 13.4963 11.4251C11.7747 12.214 10.1931 13.9065 9.46847 15.8486Z" fill="#697077"/>
<path d="M46.7857 17.7201V7.93896H43.4464V11.5026H38.4374V7.93896H35.0981V17.7201H38.4374V14.169H43.4464V17.7201H46.7857Z" fill="#697077"/>
<path d="M57.8587 7.93896H61.5468L56.3137 14.493V17.7201H52.9619V14.5054L47.7911 7.93896H51.5912L54.6814 11.8513L57.8587 7.93896Z" fill="#697077"/>
<path fill-rule="evenodd" clip-rule="evenodd" d="M73.1767 8.77372C73.8371 9.2971 74.2109 10.1818 74.2109 11.4652C74.2109 12.5118 73.9492 13.2967 73.4508 13.8451C72.7779 14.6176 71.669 14.9664 70.2237 14.9789C69.7751 14.9914 65.9374 14.9789 65.9374 14.9789V17.7201H62.5856V7.93896H70.1738C71.5194 7.93896 72.5412 8.21307 73.1767 8.77372ZM70.6971 12.2253C70.7969 12.0508 70.8467 11.8265 70.8467 11.515C70.8467 11.1911 70.7843 10.9169 70.6722 10.7675C70.4604 10.4559 70.0616 10.3063 69.4137 10.3063H65.9125V12.6987H69.3888C70.0866 12.6987 70.4978 12.5368 70.6971 12.2253Z" fill="#697077"/>
<path d="M85.8488 15.2903V17.7201H75.5448V7.93896H85.7625V10.3811H78.8342V11.6396H85.5626V14.0194H78.8342V15.2903H85.8488Z" fill="#697077"/>
<path fill-rule="evenodd" clip-rule="evenodd" d="M98.3599 8.93576C98.8096 9.39676 99.0201 10.0322 99.0201 10.9169C99.0201 11.677 98.8339 12.3249 98.5219 12.7611C98.1736 13.2345 97.6375 13.6332 96.9772 13.7329L99.9303 17.7201H96.2169L93.7878 14.2687H90.7604V17.7201H87.4332V7.93896H95.2204C96.7652 7.93896 97.7753 8.31273 98.3599 8.93576ZM95.6687 11.7393C95.7565 11.5898 95.7808 11.3904 95.7808 11.2285C95.7808 11.0416 95.7565 10.8421 95.6687 10.7175C95.4946 10.3936 95.1462 10.3063 94.6222 10.3063H90.7726V12.0882H94.6843C95.2204 12.0882 95.5445 11.9886 95.6687 11.7393Z" fill="#697077"/>
<path d="M84.0649 29.9883C84.0649 27.7526 82.6445 26.5775 79.3315 26.2185C78.793 26.1532 77.2099 25.9899 76.2144 25.9083C73.6521 25.6309 72.8852 25.4841 72.8852 24.8312C72.8852 24.2438 73.489 23.9663 75.79 23.9663C77.4221 23.9663 78.3361 24.2763 78.695 24.7496C78.8746 24.9781 78.9399 25.1576 78.9562 25.3372H83.6564C83.6074 24.9454 83.4443 24.3905 83.183 23.9011C82.3345 22.269 80.2944 20.9634 75.9044 20.9634C70.9593 20.9634 68.2503 22.7097 68.2503 24.9945C68.2503 27.1977 69.7842 28.4869 73.9295 28.8624C74.3983 28.9025 75.4049 28.9976 76.2291 29.0754L76.2799 29.0803L76.2892 29.0812L76.2928 29.0815L76.7367 29.1234C78.9072 29.352 79.4948 29.4987 79.4948 30.1843C79.4948 30.8207 78.9235 31.1634 76.5245 31.1634C74.664 31.1634 73.5706 30.8859 73.1788 30.4127C73.0157 30.2169 72.9014 29.9231 72.8688 29.7272H68.1686C68.2176 30.0536 68.2992 30.5759 68.4786 31.0003C69.2784 32.7955 71.3674 34.1663 76.2144 34.1663C81.4205 34.1663 84.0649 32.6975 84.0649 29.9883Z" fill="#697077"/>
<path fill-rule="evenodd" clip-rule="evenodd" d="M50.7444 32.6649C51.234 32.0937 51.4787 31.2286 51.4787 30.3474C51.4787 29.5967 51.2829 28.8785 50.8749 28.4053C50.3853 27.7688 49.5203 27.3119 48.6065 27.1977C49.2266 27.116 49.8141 26.7897 50.1568 26.3653C50.5811 25.8594 50.777 25.1739 50.777 24.3416C50.777 23.5093 50.5322 22.7749 49.9773 22.22C49.3572 21.5835 48.231 21.1592 46.4685 21.1592H35.4035V33.9705H46.7786C48.5901 33.9705 49.9937 33.5787 50.7444 32.6649ZM46.24 25.1087C46.24 25.4188 46.142 25.6799 45.9789 25.8594C45.7504 26.0715 45.3261 26.1532 44.7712 26.1532H39.6794V24.0642H44.657C45.2771 24.0642 45.7015 24.1458 45.9299 24.358C46.142 24.5374 46.24 24.7985 46.24 25.1087ZM46.7296 30.7228C46.4685 30.9676 46.0115 31.0655 45.2444 31.0655H39.6794V28.9276H45.2935C46.0115 28.9276 46.4358 29.0254 46.6806 29.2376C46.8765 29.4334 46.958 29.6783 46.958 30.0047C46.958 30.3148 46.8927 30.5596 46.7296 30.7228Z" fill="#697077"/>
<path d="M66.8456 30.7881V33.9705H53.3489V21.1592H66.7314V24.358H57.6573V26.0063H66.4703V29.1234H57.6573V30.7881H66.8456Z" fill="#697077"/>
<path d="M99.9448 24.3743V21.1592H84.6536V24.3743H90.0555V33.9705H94.5262V24.3743H99.9448Z" fill="#697077"/>
<path d="M99.5578 45.3068H98.8384L98.7869 44.6141C98.5673 44.9647 98.1024 45.3855 97.121 45.3855C95.4627 45.3855 94.6919 44.386 94.6919 41.8341C94.6919 39.861 95.1826 38.2739 97.2074 38.2739C98.9626 38.2739 99.4972 39.4228 99.5229 40.6592H98.6461C98.6203 39.8524 98.2599 39.107 97.2255 39.107C95.9807 39.107 95.6203 39.8524 95.6203 41.8606C95.6203 43.9564 96.0685 44.6141 97.2437 44.6141C98.0676 44.6141 98.5492 44.1581 98.7082 43.6144V42.3078H96.9363V41.5097H99.5487V43.5267C99.5487 44.1293 99.5547 44.7725 99.5563 45.0958L99.5578 45.2497V45.3068Z" fill="#697077"/>
<path fill-rule="evenodd" clip-rule="evenodd" d="M35.569 43.5623H38.0244L38.5329 45.3073H39.4625L37.428 38.3623H36.2969L34.122 45.3073H35.0428L35.569 43.5623ZM37.8051 42.7819H35.8058C35.8058 42.7819 36.6738 39.9758 36.6914 39.9144C36.7002 39.8705 36.8406 39.2479 36.8406 39.2479L36.9376 39.7085L36.9808 39.9144C36.9896 39.9582 37.8051 42.7819 37.8051 42.7819Z" fill="#697077"/>
<path d="M46.1183 38.3623H46.9602L45.3204 45.3073H44.2768C44.2768 45.3073 43.1105 39.9057 43.1105 39.6776C43.1017 39.9057 41.9091 45.3073 41.9091 45.3073H40.8656L39.2258 38.3623H40.1728C40.1728 38.3623 41.4443 43.8605 41.4443 44.0797C41.4443 43.8605 42.6107 38.3623 42.6107 38.3623H43.6542C43.6542 38.3623 44.8204 43.8692 44.8204 44.0797C44.8204 43.8692 46.1183 38.3623 46.1183 38.3623Z" fill="#697077"/>
<path fill-rule="evenodd" clip-rule="evenodd" d="M50.5612 43.5623H48.1058L47.5797 45.3073H46.6589L48.8337 38.3623H49.9649L51.9994 45.3073H51.0699L50.5612 43.5623ZM48.3427 42.7819H50.342C50.342 42.7819 49.5265 39.9582 49.5177 39.9144L49.4514 39.5984L49.3773 39.2479C49.3773 39.2479 49.2371 39.8705 49.2283 39.9144C49.2108 39.9758 48.3427 42.7819 48.3427 42.7819Z" fill="#697077"/>
<path fill-rule="evenodd" clip-rule="evenodd" d="M55.3788 38.3623C56.4486 38.3623 57.0274 38.8621 57.0274 40.3177C57.0274 41.5543 56.5626 41.9664 56.0803 42.1066L57.4133 45.3073H56.4486L55.2122 42.2821H53.5286V45.3073H52.6516V38.3623H55.3788ZM55.2474 41.4928C55.9401 41.4928 56.1066 41.1333 56.1066 40.3441C56.1066 39.4497 55.8436 39.1778 55.2034 39.1778H53.5373V41.4928H55.2474Z" fill="#697077"/>
<path fill-rule="evenodd" clip-rule="evenodd" d="M62.8657 41.7209C62.8657 43.3607 62.7431 44.027 62.3923 44.527C62.0416 45.0093 61.4891 45.3073 60.5946 45.3073H58.2095V38.3623H60.5332C61.4102 38.3623 62.0941 38.6254 62.4099 39.0989C62.7607 39.6075 62.8657 40.2388 62.8657 41.7209ZM60.4105 44.483C60.9454 44.483 61.3927 44.3428 61.6206 44.0358C61.8662 43.7027 61.9363 43.0274 61.9363 41.7209C61.9363 40.6247 61.8749 40.0371 61.6206 39.66C61.3839 39.3356 60.9279 39.1952 60.393 39.1952H59.0951V44.483H60.4105Z" fill="#697077"/>
<path d="M72.1173 38.3623H72.9591L71.3193 45.3073H70.2757C70.2757 45.3073 69.1095 39.9057 69.1095 39.6776C69.1007 39.9057 67.9081 45.3073 67.9081 45.3073H66.8646L65.2248 38.3623H66.1718C66.1718 38.3623 67.4433 43.8605 67.4433 44.0797C67.4433 43.8605 68.6095 38.3623 68.6095 38.3623H69.6531C69.6531 38.3623 70.8194 43.8692 70.8194 44.0797C70.8194 43.8692 72.1173 38.3623 72.1173 38.3623Z" fill="#697077"/>
<path d="M74.5098 38.3623V45.3073H73.5978V38.3623H74.5098Z" fill="#697077"/>
<path d="M80.2186 38.3623V45.3073H79.2102L76.6232 39.9231V45.3073H75.7726V38.3623H76.8337L79.3592 43.6675V38.3623H80.2186Z" fill="#697077"/>
<path d="M85.9049 38.3623V45.3073H84.8963L82.3098 39.9231V45.3073H81.4591V38.3623H82.5203L85.0462 43.6675V38.3623H85.9049Z" fill="#697077"/>
<path d="M88.0566 38.3623V45.3073H87.1449V38.3623H88.0566Z" fill="#697077"/>
<path d="M93.766 38.3623V45.3073H92.7574L90.1708 39.9231V45.3073H89.3196V38.3623H90.3813L92.9073 43.6675V38.3623H93.766Z" fill="#697077"/>
<path d="M45.4413 58.9951L44.4365 55.9023L43.4315 58.9951H40.1797L42.8105 60.9066L41.8056 63.9994L44.4365 62.0879L47.0674 63.9994L46.0624 60.9066L48.6933 58.9951H45.4413Z" fill="#697077"/>
<path d="M57.0623 58.9961L56.0369 55.9033L55.0115 58.9961H51.6932L54.3779 60.9075L53.3524 64.0002L56.0369 62.0889L58.7216 64.0002L57.6961 60.9075L60.3806 58.9961H57.0623Z" fill="#697077"/>
<path d="M68.5722 58.9961L67.5468 55.9033L66.5213 58.9961H63.2031L65.8875 60.9075L64.8621 64.0002L67.5468 62.0889L70.2312 64.0002L69.2058 60.9075L71.8905 58.9961H68.5722Z" fill="#697077"/>
<path d="M80.0813 58.9961L79.0559 55.9033L78.0304 58.9961H74.7122L77.3966 60.9075L76.3712 64.0002L79.0559 62.0889L81.7403 64.0002L80.7149 60.9075L83.3995 58.9961H80.0813Z" fill="#697077"/>
<path d="M91.6613 58.9961L90.6573 55.9033L89.6517 58.9961H86.4002L89.0308 60.9075L88.0267 64.0002L90.6573 62.0889L93.2878 64.0002L92.2823 60.9075L94.9143 58.9961H91.6613Z" fill="#697077"/>
<path d="M3.54752 21.1058C4.49313 22.5485 5.95638 24.3555 8.08991 24.304C10.03 24.4009 11.7062 23.0768 13.0262 21.9718C14.4478 20.7816 15.731 19.041 16.2727 17.1593C14.2883 16.582 12.3885 17.6515 10.9717 18.6603C9.49227 19.7139 8.35448 21.6421 8.11005 23.6219C8.09172 21.6384 7.55486 19.5899 6.68936 17.9396C5.89807 16.4309 4.79541 14.3916 2.82817 13.9839C2.05308 16.3314 2.30039 19.2037 3.54752 21.1058Z" fill="#697077"/>
<path d="M8.72101 32.0741C6.74089 32.4059 4.80939 31.1926 3.55499 29.7656C1.94 27.9283 0.979085 25.4636 1.17505 22.9961C3.20924 23.0477 4.74987 24.8061 5.88857 26.1358C7.11496 27.5679 8.11978 29.452 8.60182 31.3956C8.3898 29.4586 9.0401 27.367 10.2473 26.0746C11.4125 24.827 13.0447 23.4674 15.0756 23.6856C15.0318 25.6497 14.0473 27.5209 13.0318 28.9224C12.0853 30.2284 10.6272 31.8439 8.72101 32.0741Z" fill="#697077"/>
<path d="M5.06317 38.6C6.88684 39.7874 9.09867 40.9626 11.4232 40.0731C13.3301 39.3985 14.5426 37.4789 15.2883 35.717C16.0782 33.8502 16.6059 31.6976 16.2406 29.6543C14.1451 29.8403 12.4074 31.3396 11.4845 33.1697C10.5197 35.0831 10.3346 37.3605 11.0758 39.3665C9.98068 37.3028 8.37917 35.633 6.6827 34.0901C5.14055 32.6876 2.91918 31.2101 0.681763 31.488C1.10747 34.2541 2.79546 37.1238 5.06317 38.6Z" fill="#697077"/>
<path d="M16.1206 47.5519C17.9152 46.4791 18.6374 44.2217 18.9326 42.2873C19.2508 40.2012 19.2372 37.9004 18.3708 35.9214C16.2887 36.5029 14.8595 38.3769 14.3876 40.4294C13.8891 42.5979 14.3098 44.9091 15.5226 46.7555C13.9104 44.9059 11.7668 43.3787 9.71244 42.3079C7.72808 41.2735 5.29363 40.0259 2.91052 40.7794C4.05967 43.584 6.5179 46.1951 9.24236 47.2752C11.3523 48.1115 13.9191 48.9385 16.1206 47.5519Z" fill="#697077"/>
<path d="M24.6285 48.277C24.8919 50.2906 24.8844 52.8446 23.3211 54.3944C21.3675 56.3941 18.3441 56.0082 16.0121 55.5683C12.8815 54.9772 9.35743 52.842 7.46863 49.999C9.77541 48.7288 12.5966 49.5413 14.8804 50.199L15.0108 50.2364C17.56 50.9699 20.2766 52.1511 22.5486 53.7652C20.7355 52.1269 19.4145 49.7223 19.3498 47.2986C19.2916 45.1308 20.2326 42.8116 22.2574 41.7783C23.6709 43.6337 24.3329 46.0157 24.6285 48.277Z" fill="#697077"/>
<path d="M33.7015 60.0966C34.8528 57.905 33.7121 55.3329 32.8032 53.4318C31.7285 51.1844 30.2603 48.894 28.159 47.249C26.1413 48.9879 26.3332 51.476 26.9331 53.6383C27.6464 56.2093 30.1193 58.401 32.68 59.6499C29.7143 58.544 26.4754 57.8802 23.3938 57.6842L23.0817 57.6641C20.6061 57.5028 17.3832 57.2929 15.4105 59.1046C18.3932 61.6402 22.6298 63.1032 26.3638 63.0271C28.8661 62.9762 32.2993 62.6802 33.7015 60.0966Z" fill="#697077"/>
<path d="M124.826 15.8558C124.103 13.9123 122.522 12.2176 120.802 11.4273C119.204 10.6943 117.082 9.92934 115.218 10.8686C116.233 12.6502 117.903 14.1493 119.61 15.0922C121.144 15.94 123.087 16.9671 125.01 16.5256C127.106 16.2045 128.119 14.118 128.683 12.5395C129.463 10.3582 128.93 7.44522 127.598 5.30518C125.763 6.07012 125.203 8.33964 124.82 9.94539C124.382 11.7732 124.37 13.9067 124.826 15.8558Z" fill="#697077"/>
<path d="M123.319 18.6646C124.797 19.7187 125.931 21.6458 126.175 23.6242C126.196 21.6418 126.735 19.5952 127.602 17.9466C128.394 16.4384 129.499 14.4 131.467 13.9937C132.239 16.3419 131.989 19.214 130.74 21.1151C129.795 22.5552 128.332 24.3584 126.202 24.3101C124.259 24.4093 122.581 23.0821 121.261 21.9747C119.84 20.7833 118.559 19.0419 118.02 17.1599C120.004 16.5838 121.903 17.6548 123.319 18.6646Z" fill="#697077"/>
<path d="M125.676 31.4085C125.892 29.4699 125.244 27.3739 124.035 26.0789C122.872 24.8304 121.241 23.4695 119.21 23.6862C119.251 25.6503 120.234 27.5224 121.249 28.9247C122.194 30.2309 123.649 31.8463 125.554 32.0791C127.535 32.4145 129.469 31.2019 130.726 29.775C132.342 27.9391 133.305 25.4751 133.113 23.0073C131.078 23.0576 129.536 24.8146 128.395 26.1434C127.166 27.5764 126.159 29.4626 125.676 31.4085Z" fill="#697077"/>
<path d="M122.792 33.1734C123.755 35.0878 123.939 37.3656 123.195 39.371C124.292 37.3076 125.895 35.6389 127.593 34.097C129.136 32.6956 131.359 31.2201 133.596 31.4995C133.169 34.2654 131.477 37.1339 129.209 38.6084C127.385 39.7927 125.176 40.9654 122.854 40.0796C120.945 39.4062 119.732 37.4827 118.986 35.7178C118.197 33.8503 117.672 31.6974 118.04 29.6543C120.134 29.8419 121.871 31.3426 122.792 33.1734Z" fill="#697077"/>
<path d="M118.744 46.7519C119.955 44.9073 120.378 42.5984 119.883 40.431C119.413 38.378 117.985 36.503 115.903 35.9199C115.035 37.8981 115.02 40.1986 115.335 42.2852C115.628 44.2158 116.346 46.4687 118.13 47.5455C120.334 48.943 122.907 48.1164 125.019 47.2804C127.745 46.2023 130.206 43.5929 131.357 40.789C128.975 40.034 126.54 41.2798 124.555 42.3126C122.501 43.3814 120.357 44.9053 118.744 46.7519Z" fill="#697077"/>
<path d="M109.633 48.2711C109.368 50.2843 109.373 52.8381 110.935 54.3893C112.886 56.3905 115.91 56.0067 118.243 55.5683C121.374 54.9796 124.9 52.8467 126.792 50.0053C124.487 48.7337 121.664 49.5437 119.38 50.1996L119.248 50.2372C116.699 50.9683 113.983 52.1472 111.709 53.7588C113.524 52.1219 114.846 49.7192 114.912 47.2965C114.973 45.1288 114.034 42.8089 112.011 41.7739C110.595 43.6282 109.931 46.0099 109.633 48.2711Z" fill="#697077"/>
<path d="M107.884 63.0194C105.382 62.9665 101.948 62.668 100.549 60.0832L100.529 60.0478C99.4118 57.8629 100.548 55.3093 101.453 53.4194C102.53 51.1728 104.001 48.8834 106.103 47.2402C108.12 48.9805 107.924 51.4684 107.323 53.6301C106.607 56.2007 104.132 58.3908 101.57 59.6377C104.537 58.534 107.776 57.8726 110.858 57.6788L111.171 57.6588C113.647 57.4994 116.87 57.2923 118.84 59.105C115.856 61.6381 111.618 63.0982 107.884 63.0194Z" fill="#697077"/>
</svg>
