<svg width="151" height="34" viewBox="0 0 151 34" fill="none" xmlns="http://www.w3.org/2000/svg">
<g clip-path="url(#clip0_454_226)">
<path d="M134.863 26.7145H140.283C140.493 27.3978 141.208 28.0811 142.548 28.0811C144.363 28.0811 144.987 26.9543 144.987 25.288V24.1012H144.867C143.972 25.1441 142.782 25.9113 141.028 25.9113C137.573 25.9113 134.569 23.3579 134.569 18.365C134.569 13.7917 137.038 10.2253 140.764 10.2253C142.909 10.2253 144.218 11.0885 145.084 12.4551H145.174V10.7048H150.533V24.5447C150.533 27.0981 149.638 29.0881 148.298 30.2809C146.898 31.5276 144.903 32.0311 142.638 32.0311C138.378 32.0311 135.404 30.2749 134.863 26.7145ZM145.228 18.0953C145.228 16.1053 144.278 14.499 142.638 14.499C141.058 14.499 140.049 15.9255 140.049 18.0953C140.049 20.2351 141.064 21.7755 142.638 21.7755C144.272 21.7815 145.228 20.2051 145.228 18.0953ZM128.585 13.4321H128.675C129.834 11.2023 131.354 10.3752 133.289 10.3752C133.734 10.3752 134.034 10.4351 134.214 10.525V15.428H134.094C130.79 14.8346 128.855 16.411 128.855 20.0014V26.6845H123.225V10.7048H128.585V13.4321ZM0.527222 4.2854H11.5466C13.6316 4.2854 15.2358 4.78889 16.3714 5.71194C17.6512 6.74888 18.3362 8.29531 18.3362 10.1354C18.3362 12.2752 17.4709 13.6119 15.6864 14.445V14.5349C18.0117 15.3081 19.3516 17.388 19.3516 19.9114C19.3516 22.315 18.4263 24.1911 16.9122 25.3179C15.6324 26.241 13.968 26.6845 11.763 26.6845H0.527222V4.2854ZM11.0119 21.7216C12.3518 21.7216 13.3311 20.9184 13.3311 19.4319C13.3311 17.8855 12.2617 17.1423 10.9819 17.1423H6.63177V21.7156H11.0119V21.7216ZM10.4411 13.0485C11.6308 13.0485 12.496 12.3951 12.496 11.0885C12.496 9.81176 11.6007 9.18839 10.4111 9.18839H6.63177V13.0485H10.4411Z" fill="#322F37"/>
<path d="M20.361 4.2854H26.135V26.6845H20.361V4.2854ZM27.2406 18.7187C27.2406 13.6718 30.5152 10.2553 35.5803 10.2553C40.6454 10.2553 43.8599 13.6718 43.8599 18.7187C43.8599 23.8015 40.6454 27.182 35.5803 27.182C30.5152 27.188 27.2406 23.8015 27.2406 18.7187ZM38.1399 18.7187C38.1399 15.9255 37.2446 14.1753 35.5202 14.1753C33.7958 14.1753 32.9606 15.9255 32.9606 18.7187C32.9606 21.5418 33.7958 23.292 35.5202 23.292C37.2446 23.298 38.1399 21.5418 38.1399 18.7187ZM44.5148 18.7187C44.5148 13.6718 47.7894 10.2553 52.8545 10.2553C57.9195 10.2553 61.134 13.6718 61.134 18.7187C61.134 23.8015 57.9195 27.182 52.8545 27.182C47.7894 27.188 44.5148 23.8015 44.5148 18.7187ZM55.414 18.7187C55.414 15.9255 54.5188 14.1753 52.7944 14.1753C51.07 14.1753 50.2348 15.9255 50.2348 18.7187C50.2348 21.5418 51.07 23.292 52.7944 23.292C54.5188 23.298 55.414 21.5418 55.414 18.7187ZM62.2336 10.7048H67.5931V13.1084H67.6832C68.7527 11.2383 70.2127 10.2253 72.508 10.2253C74.5328 10.2253 76.0529 11.2323 76.828 12.9885H76.9181C78.228 10.8787 79.9283 10.2253 81.8931 10.2253C85.6183 10.2253 87.2226 12.9585 87.2226 16.6388V26.6785H81.5927V17.6517C81.5927 16.0154 81.088 14.9485 79.658 14.9485C78.258 14.9485 77.543 16.2552 77.543 17.9814V26.6845H71.9071V17.6517C71.9071 16.0154 71.4024 14.9485 69.9724 14.9485C68.5725 14.9485 67.8574 16.2552 67.8574 17.9814V26.6845H62.2336V10.7048ZM94.0962 24.6046H94.0361V26.6845H88.6766V4.2854H94.3065V12.3651H94.3966C95.4661 10.9686 96.8961 10.2253 98.951 10.2253C102.971 10.2253 105.296 13.8516 105.296 18.6587C105.296 24.0952 102.766 27.212 98.5965 27.212C96.8661 27.218 95.0816 26.3848 94.0962 24.6046ZM99.5758 18.6048C99.5758 16.0214 98.6265 14.3551 96.9261 14.3551C95.2017 14.3551 94.0962 16.0214 94.0962 18.6048C94.0962 21.1582 95.1957 22.8544 96.9261 22.8544C98.6506 22.8484 99.5758 21.1881 99.5758 18.6048ZM106.011 18.6647C106.011 13.6718 109.315 10.2014 114.11 10.2014C116.49 10.2014 118.34 10.9446 119.74 12.2812C121.585 14.0614 122.42 16.8546 122.36 20.1512H111.611C111.851 22.1412 112.8 23.1541 114.501 23.1541C115.486 23.1541 116.345 22.7106 116.706 21.6377H122.125C121.176 25.288 118.346 27.1341 114.326 27.1341C109.346 27.1281 106.011 23.7715 106.011 18.6647ZM111.611 16.9984H116.73C116.64 15.0684 115.57 14.0554 114.23 14.0554C112.68 14.0554 111.815 15.1583 111.611 16.9984Z" fill="#322F37"/>
</g>
<defs>
<clipPath id="clip0_454_226">
<rect width="150" height="33.3333" fill="white" transform="translate(0.527222 0.118652)"/>
</clipPath>
</defs>
</svg>
