<svg width="19" height="20" viewBox="0 0 19 20" fill="none" xmlns="http://www.w3.org/2000/svg">
<path d="M18.1282 0.625H0.878174C0.46333 0.625 0.128174 0.960156 0.128174 1.375V18.625C0.128174 19.0398 0.46333 19.375 0.878174 19.375H18.1282C18.543 19.375 18.8782 19.0398 18.8782 18.625V1.375C18.8782 0.960156 18.543 0.625 18.1282 0.625ZM15.9625 6.09766H14.4649C13.2907 6.09766 13.0633 6.65547 13.0633 7.47578V9.28281H15.8665L15.5008 12.1117H13.0633V19.375H10.1407V12.1141H7.69614V9.28281H10.1407V7.19687C10.1407 4.77578 11.6196 3.45625 13.7805 3.45625C14.8165 3.45625 15.7047 3.53359 15.9649 3.56875V6.09766H15.9625Z" fill="white" fill-opacity="0.6"/>
</svg>
