<svg width="23" height="22" viewBox="0 0 23 22" fill="none" xmlns="http://www.w3.org/2000/svg">
<path d="M11.5025 5.50236C8.46229 5.50236 6.00871 7.95593 6.00871 10.9961C6.00871 14.0363 8.46229 16.4899 11.5025 16.4899C14.5426 16.4899 16.9962 14.0363 16.9962 10.9961C16.9962 7.95593 14.5426 5.50236 11.5025 5.50236ZM11.5025 14.5666C9.53639 14.5666 7.93193 12.9622 7.93193 10.9961C7.93193 9.03004 9.53639 7.42557 11.5025 7.42557C13.4685 7.42557 15.073 9.03004 15.073 10.9961C15.073 12.9622 13.4685 14.5666 11.5025 14.5666ZM17.2212 3.997C16.5114 3.997 15.9382 4.57022 15.9382 5.28004C15.9382 5.98986 16.5114 6.56307 17.2212 6.56307C17.931 6.56307 18.5043 5.99254 18.5043 5.28004C18.5045 5.11149 18.4714 4.94455 18.407 4.78879C18.3426 4.63303 18.2481 4.49151 18.1289 4.37232C18.0097 4.25314 17.8682 4.15864 17.7125 4.09424C17.5567 4.02983 17.3898 3.99679 17.2212 3.997ZM22.2114 10.9961C22.2114 9.51754 22.2248 8.05236 22.1418 6.57647C22.0587 4.86218 21.6676 3.34075 20.4141 2.08718C19.1578 0.83093 17.6391 0.442538 15.9248 0.359502C14.4462 0.276466 12.981 0.289859 11.5051 0.289859C10.0266 0.289859 8.56139 0.276466 7.0855 0.359502C5.37121 0.442538 3.84979 0.833609 2.59621 2.08718C1.33996 3.34343 0.951571 4.86218 0.868535 6.57647C0.7855 8.05504 0.798892 9.52022 0.798892 10.9961C0.798892 12.472 0.7855 13.9399 0.868535 15.4158C0.951571 17.13 1.34264 18.6515 2.59621 19.905C3.85246 21.1613 5.37121 21.5497 7.0855 21.6327C8.56407 21.7158 10.0293 21.7024 11.5051 21.7024C12.9837 21.7024 14.4489 21.7158 15.9248 21.6327C17.6391 21.5497 19.1605 21.1586 20.4141 19.905C21.6703 18.6488 22.0587 17.13 22.1418 15.4158C22.2275 13.9399 22.2114 12.4747 22.2114 10.9961ZM19.8543 17.3122C19.6587 17.7997 19.423 18.164 19.0453 18.539C18.6676 18.9166 18.306 19.1524 17.8185 19.3479C16.4096 19.9077 13.0641 19.7818 11.5025 19.7818C9.94086 19.7818 6.59264 19.9077 5.18371 19.3506C4.69621 19.155 4.33193 18.9193 3.95693 18.5416C3.57925 18.164 3.34354 17.8024 3.148 17.3149C2.59086 15.9033 2.71675 12.5577 2.71675 10.9961C2.71675 9.4345 2.59086 6.08629 3.148 4.67736C3.34354 4.18986 3.57925 3.82557 3.95693 3.45057C4.33461 3.07557 4.69621 2.83718 5.18371 2.64165C6.59264 2.0845 9.94086 2.21039 11.5025 2.21039C13.0641 2.21039 16.4123 2.0845 17.8212 2.64165C18.3087 2.83718 18.673 3.0729 19.048 3.45057C19.4257 3.82825 19.6614 4.18986 19.8569 4.67736C20.4141 6.08629 20.2882 9.4345 20.2882 10.9961C20.2882 12.5577 20.4141 15.9033 19.8543 17.3122Z" fill="white" fill-opacity="0.6"/>
</svg>
