<svg width="186" height="52" viewBox="0 0 186 52" fill="none" xmlns="http://www.w3.org/2000/svg">
<rect width="185.145" height="51.5708" transform="translate(0.472778)" fill="#646464"/>
<path d="M49.3312 19.0147H47.5683V35.7318H44.2629L36.2197 24.3474V32.0169H37.9826V35.7318H30.5454V32.0169H32.3083V19.0147H30.5454V15.2998H36.2197L43.712 25.9053V19.0147H41.9491V15.2998H49.3863C49.3312 15.2998 49.3312 19.0147 49.3312 19.0147ZM61.1206 28.5417C61.1206 28.8412 61.1206 29.1408 61.1206 29.5003H52.9121C52.6917 32.3764 53.6834 33.2152 55.1708 33.2152C56.4379 33.2152 57.3744 32.3165 57.3744 30.8784H60.9002C60.8451 33.395 59.6331 36.2711 54.9504 36.2711C50.3228 36.2711 48.1743 32.6161 48.1743 28.5417C48.1743 24.8867 50.3779 20.992 54.8953 20.992C59.1924 20.992 61.1206 24.2875 61.1206 28.5417ZM81.3938 24.8867H80.1818L77.1518 35.9715H73.1302L71.2572 29.9198L69.5494 35.9715H65.4727L62.1122 24.8867H60.9002V21.1118H68.0068V24.8867H66.244L68.117 30.7586L70.541 21.1118H72.7446L75.7195 30.7586L77.3171 24.8867H75.5542V21.1118H81.504C81.3938 21.1118 81.3938 24.8867 81.3938 24.8867ZM86.407 25.0065C86.407 25.5458 86.7927 25.9053 88.1148 26.3247L90.043 26.9838C91.8059 27.6429 93.9544 29.021 93.9544 31.6574C93.9544 34.7132 91.861 36.2111 89.2166 36.2111C87.1232 36.2111 85.5256 35.1326 85.0849 34.5934V35.8516H81.6142V30.6987H85.0298C85.1399 32.3764 86.5172 33.2752 87.7292 33.2752C88.7208 33.2752 89.2166 32.7958 89.2166 32.2566C89.2166 31.5975 88.831 31.178 87.1232 30.5789L85.4154 29.9797C83.7076 29.3805 81.7794 28.0024 81.7794 25.4858C81.7794 22.43 84.2585 20.9321 86.3519 20.9321C88.5555 20.9321 89.6023 21.5912 90.1532 22.2503V21.1118H93.6239V25.7255H90.043C89.9879 24.4672 88.8861 23.928 87.7292 23.928C86.7927 23.9879 86.407 24.4073 86.407 25.0065ZM114.723 24.8867H113.511L110.482 35.9715H106.46L104.587 29.9198L102.879 35.9715H98.8024L95.4418 24.8867H94.2299V21.1118H101.337V24.8867H99.5736L101.447 30.7586L103.816 21.1118H106.019L108.994 30.7586L110.592 24.8867H108.774V21.1118H114.723V24.8867ZM127.284 28.5417C127.284 28.8412 127.284 29.1408 127.284 29.5003H119.131C118.91 32.3764 119.902 33.2152 121.389 33.2152C122.656 33.2152 123.593 32.3165 123.593 30.8784H127.119C127.064 33.395 125.797 36.2711 121.169 36.2711C116.486 36.2711 114.338 32.6161 114.338 28.5417C114.338 24.8867 116.597 20.992 121.114 20.992C125.411 20.992 127.284 24.2276 127.284 28.5417ZM140.726 28.4817C140.726 28.7813 140.726 29.0809 140.726 29.4404H132.573C132.352 32.3165 133.344 33.1553 134.831 33.1553C136.099 33.1553 137.035 32.2566 137.035 30.8185H140.561C140.506 33.3351 139.239 36.2111 134.611 36.2111C129.928 36.2111 127.78 32.5561 127.78 28.4817C127.78 24.8267 130.039 20.9321 134.556 20.9321C138.853 20.9321 140.726 24.1676 140.726 28.4817ZM155.545 35.9116H151.469L147.227 29.8598L145.85 30.9983V32.1966H147.062V35.9715H140.726V32.2566H141.938V19.0746H140.175V15.2998H145.85V27.1635L148.714 24.8867H146.951V21.1118H154.499V24.8867H153.287L150.312 27.2834L153.727 32.1367H155.49C155.545 32.1966 155.545 35.9116 155.545 35.9116ZM132.573 27.0437H137.035C137.035 24.9466 135.768 24.1077 134.887 24.1077C133.785 24.1077 132.628 25.0664 132.573 27.0437ZM119.131 27.0437H123.593C123.593 24.9466 122.326 24.1077 121.389 24.1077C120.343 24.1676 119.186 25.1263 119.131 27.0437ZM52.9672 27.1036H57.4295C57.4295 25.0065 56.1624 24.1676 55.2259 24.1676C54.1241 24.1676 53.0223 25.1263 52.9672 27.1036Z" fill="white"/>
</svg>
