<svg width="260" height="39" viewBox="0 0 260 39" fill="none" xmlns="http://www.w3.org/2000/svg">
<g clip-path="url(#clip0_454_230)">
<path d="M7.44026 23.8022V14.1138L4.50089 15.435C4.50089 15.435 3.74378 17.1084 3.87739 19.5305C3.96646 21.4241 5.03532 23.6701 5.8815 24.6389L7.44026 23.8022ZM16.0802 3.853C16.7928 3.89704 17.9507 4.24934 18.7969 4.99799C19.7321 5.87874 19.9103 7.19988 19.5985 8.43295C19.3313 9.48986 18.975 10.0623 17.8616 10.811C16.7482 11.5596 15.3676 11.5156 15.3676 11.5156V16.1836L17.6835 18.0332L15.3676 19.8828V26.2683C15.3676 26.2683 17.6835 24.9472 19.1086 22.0407C19.1086 22.0407 19.1532 21.8645 19.2868 21.6003C19.4204 22.393 19.3313 23.9783 18.4406 26.0041C17.8171 27.4573 16.5701 28.9106 15.0559 29.7914C12.3392 31.2886 10.2905 31.4208 8.06376 30.9804C5.48068 30.4519 3.16482 29.0427 1.56153 26.5325C0.448135 24.771 -0.0417587 22.7453 0.00277708 20.5434C0.0918487 16.2277 3.34296 12.5285 7.08397 11.1193C7.52933 10.9431 7.70747 10.855 8.37551 10.767C8.06376 10.9871 7.75201 11.2073 7.30665 11.5156C6.10418 12.3083 5.07986 13.8496 4.6345 15.0386L11.8938 11.8239V21.8645L6.01511 24.771C6.68315 25.6958 8.73179 27.061 10.4242 27.2812C13.3635 27.5895 15.1004 26.3124 15.1004 26.3124V19.7947L12.8291 17.9451L15.1004 16.0955V11.5156C13.8534 11.3835 12.3392 10.9871 11.4485 10.767C10.2015 10.4147 5.83697 9.22563 5.16893 9.09351C4.50089 9.00544 3.65471 9.00544 3.12028 9.48986C2.63039 9.93024 2.2741 10.7229 2.49678 11.4716C2.63039 11.8679 2.8976 12.1321 3.12028 12.3523C3.12028 12.3523 2.85307 12.3523 2.40771 12.0441C1.60607 11.5596 0.982565 10.5908 0.893493 9.44582C0.804421 7.90449 1.47246 6.49528 2.764 5.57048C3.87739 4.86587 5.12439 4.42549 6.59408 4.60164C8.73179 4.90991 11.6266 6.09893 14.1652 6.71546C15.1449 6.93565 15.9466 7.02373 16.6146 6.62739C16.9264 6.4072 17.5053 5.79067 17.06 4.99799C16.5256 4.07319 15.4567 4.07319 14.566 3.94107C15.3231 3.80896 15.5012 3.80896 16.0802 3.853Z" fill="#322F37"/>
<path d="M44.3161 21.2909L41.0204 23.6689V15.6981L44.3161 21.2909ZM44.227 13.6283C44.227 13.6283 42.0002 14.9494 40.486 15.8302C38.9718 16.7109 36.9677 17.6798 36.9677 17.6798V26.9277L35.6316 27.9847L35.8097 28.2048L37.1013 27.1479L41.1986 30.8031L48.3243 25.2103L48.1461 24.9901L44.227 28.0287L40.9759 25.0341V23.9332L47.4781 19.2211L44.227 13.6283Z" fill="#322F37"/>
<path d="M25.611 34.326C26.5463 34.5462 28.1941 34.6783 30.1982 33.7094C32.3805 32.6085 33.4939 30.3185 33.4939 27.9405L33.5829 24.5936V17.2392L35.0081 16.1823L34.8299 15.9621L33.4048 16.975L30.1982 13.452L26.1009 16.931V5.12881L20.9793 9.04818C21.202 9.1803 21.9146 9.31241 21.9591 10.3253V26.8836L19.8214 28.4689L19.955 28.6891L21.0238 27.8964L23.9187 30.5827L28.5059 27.0157L28.3277 26.7955L27.2589 27.6322L26.1009 26.5312V17.3273L27.437 16.1823L29.4411 18.6485C29.4411 18.6485 29.4411 24.6376 29.4411 26.6193C29.4411 28.7331 29.4411 31.3754 28.2832 32.6525C27.2143 33.8856 26.7244 33.9737 25.611 34.326Z" fill="#322F37"/>
<path d="M57.4541 33.4892C55.6281 33.2691 54.871 32.1681 54.871 31.3314C54.871 30.7589 55.4055 29.702 56.5189 29.5258C57.6323 29.3937 58.7902 29.8781 59.7254 31.0231L63.9563 26.3991L63.7337 26.223L62.5757 27.5001C61.4178 26.1789 59.77 25.3863 58.1667 25.122V11.0299L69.167 30.847C69.167 30.847 69.2561 31.0672 69.746 31.0672C70.1468 31.0672 70.0577 30.7589 70.0577 30.7589V10.8097C70.9485 10.7657 72.3291 10.2812 72.9971 9.62068C75.1348 7.46282 74.2441 5.12881 74.0214 4.90862C73.8878 5.92149 73.0862 6.9784 71.7501 6.9784C70.0132 6.9784 68.9444 5.7013 68.9444 5.7013L64.6689 10.4134L64.8916 10.5895L66.0941 9.22434C67.5637 10.5895 68.6771 10.6776 69.7905 10.7657V22.3476L61.5959 7.68301C60.8388 6.49398 59.7254 5.39303 57.9885 5.39303C55.9399 5.39303 54.5148 7.15455 54.3366 8.65184C54.1585 10.3693 54.3366 10.7657 54.3366 10.7657C54.3366 10.7657 54.6484 8.87203 55.8508 8.87203C56.9197 8.87203 57.4987 9.8849 57.8995 10.5895V14.8172C56.7861 14.9052 53.8913 15.0373 53.7131 17.9879C53.7131 19.0888 54.3811 20.2338 55.0046 20.6302C55.8063 21.1586 56.3853 21.1146 56.3853 21.1146C56.3853 21.1146 55.45 20.6302 55.7172 19.6613C55.9844 18.7806 57.8104 18.6485 57.8549 19.0008V24.9899C56.9642 24.9899 54.1585 25.078 52.8669 27.456C52.1098 28.9093 52.1544 30.5387 52.956 31.6837C53.7131 32.6966 55.0937 33.8856 57.4541 33.4892Z" fill="#322F37"/>
<path d="M80.7463 21.2909L77.4507 23.6689V15.6981L80.7463 21.2909ZM80.6572 13.6283C80.6572 13.6283 78.4305 14.9494 76.9162 15.8302C75.402 16.7109 73.3979 17.6798 73.3979 17.6798V26.9277L72.0618 27.9847L72.24 28.2048L73.5315 27.1479L77.6288 30.8031L84.7545 25.2103L84.5764 24.9901L80.6572 28.0287L77.4061 25.0341V23.9332L83.9084 19.2211L80.6572 13.6283Z" fill="#322F37"/>
<path d="M90.6333 30.8912L87.1595 28.0287L85.6453 29.1296L85.5117 28.9094L87.0704 27.7645V19.7936C87.1595 16.4907 83.9975 17.3275 84.1756 13.8044C84.2647 12.2631 85.7344 11.1181 86.536 10.7218C87.3377 10.3254 88.2284 10.3254 88.2284 10.3254C88.2284 10.3254 86.8032 11.2062 87.1595 12.4833C87.6939 14.421 91.0787 14.5971 91.1232 17.2394V26.2672L93.6172 28.2489L94.2852 27.7204V17.9L92.9492 16.5788L96.423 13.5402L99.585 16.3146L98.3825 17.5917V26.3112L101.366 28.7333L101.901 28.381V17.944L100.565 16.7109L104.039 13.5842L107.29 16.2265L108.581 15.0815L108.759 15.3017L105.82 17.8559V26.3993L98.338 30.9352L94.5079 27.9406L90.6333 30.8912Z" fill="#322F37"/>
<path d="M243.525 21.2909L240.229 23.6689V15.6981L243.525 21.2909ZM243.436 13.6283C243.436 13.6283 241.209 14.9494 239.695 15.8302C238.18 16.7109 236.176 17.6798 236.176 17.6798V26.9277L234.84 27.9847L235.018 28.2048L236.31 27.1479L240.407 30.8031L247.533 25.2103L247.355 24.9901L243.436 28.0287L240.185 25.0341V23.9332L246.731 19.2651L243.436 13.6283Z" fill="#322F37"/>
<path d="M210.034 17.5035L210.212 17.7237L211.548 16.5787L213.552 18.7806V26.4432L212.572 27.324L215.69 30.759L218.852 27.6763L217.56 26.3111V17.1072L218.362 16.4466L220.544 19.0008V26.6194L219.698 27.4561L222.637 30.6709L225.755 27.5882L224.597 26.3992V17.1072L225.443 16.4466L227.714 18.9568V26.5313L226.957 27.28L230.164 30.759L234.528 26.7955L234.306 26.6194L233.281 27.5442L231.678 25.7827V17.1512L233.237 15.9622L233.059 15.742L231.5 16.9311L228.561 13.6722L224.33 16.9311L221.39 13.7603L217.338 16.9311L214.354 13.8044L210.034 17.5035Z" fill="#322F37"/>
<path d="M201.26 17.2833L201.438 17.4594L202.552 16.4906L204.333 18.5604V27.3239L203.086 28.3808L203.264 28.601L204.556 27.5001L207.406 30.7589L211.548 27.1037L211.37 26.8836L210.167 27.9405L208.43 26.0028V17.4594L209.9 16.2264L209.722 16.0502L208.341 17.1952L205.357 13.7162L201.26 17.2833Z" fill="#322F37"/>
<path d="M202.418 10.0172L205.536 7.19881L208.074 9.9732L204.957 12.7916L202.418 10.0172Z" fill="#322F37"/>
<path d="M189.636 23.8009V14.1126L186.697 15.4337C186.697 15.4337 185.94 17.1071 186.074 19.5292C186.163 21.4229 187.231 23.6688 188.078 24.6376L189.636 23.8009ZM198.276 3.85171C198.989 3.89575 200.147 4.24806 200.993 4.9967C201.928 5.87746 202.106 7.1986 201.795 8.43166C201.527 9.48857 201.171 10.0611 200.058 10.8097C198.944 11.5584 197.564 11.5143 197.564 11.5143V16.1823L199.88 18.0319L197.564 19.8815V26.267C197.564 26.267 199.88 24.9459 201.305 22.0394C201.305 22.0394 201.349 21.8632 201.483 21.599C201.617 22.3917 201.527 23.9771 200.637 26.0028C199.969 27.5441 198.722 28.9974 197.207 29.8341C194.491 31.3314 192.442 31.4635 190.26 31.0231C187.677 30.4947 185.361 29.0855 183.758 26.5753C182.644 24.8138 182.154 22.788 182.199 20.5861C182.288 16.2704 185.539 12.5712 189.28 11.162C189.725 10.9859 189.904 10.8978 190.572 10.8097C190.26 11.0299 189.948 11.2501 189.503 11.5584C188.3 12.351 187.276 13.8924 186.831 15.0814L194.09 11.8666V21.9073L188.256 24.8138C188.924 25.7386 190.972 27.1038 192.665 27.3239C195.604 27.6322 197.341 26.3551 197.341 26.3551V19.8375L195.07 17.9879L197.341 16.1383V11.5143C196.094 11.3822 194.58 10.9859 193.689 10.7657C192.398 10.4574 188.033 9.22434 187.365 9.13627C186.697 9.04819 185.851 9.04819 185.316 9.53261C184.827 9.97299 184.47 10.7657 184.693 11.5143C184.826 11.9107 185.094 12.1749 185.316 12.3951C185.316 12.3951 185.049 12.3951 184.604 12.0868C183.802 11.6024 183.179 10.6336 183.09 9.48857C183.001 7.94724 183.624 6.58207 184.916 5.61323C186.029 4.90862 187.276 4.46825 188.746 4.6444C190.883 4.95266 193.778 6.14169 196.317 6.75822C197.297 6.97841 198.098 7.06648 198.766 6.67014C199.078 6.44995 199.657 5.83342 199.212 5.04074C198.677 4.11594 197.608 4.11594 196.718 3.98383C197.519 3.80768 197.697 3.80768 198.276 3.85171Z" fill="#322F37"/>
<path d="M252.699 15.4338V20.0138L254.258 21.3349C254.258 21.3349 257.598 18.6926 258.845 16.2265C258.845 16.2265 257.331 18.2523 255.282 17.6357C253.59 17.1073 252.699 15.4338 252.699 15.4338ZM248.958 27.5883C248.958 27.5883 250.428 25.1662 252.966 25.6947C255.371 26.1791 256.217 28.7333 256.217 28.7333V22.9203L254.525 21.467C252.655 23.3166 249.359 25.9589 248.958 27.5883ZM251.363 32.0361C250.873 32.1683 248.824 31.6838 248.335 29.57C247.845 27.5443 249.314 26.1351 251.452 23.9772L248.869 21.6432V17.2394C248.869 17.2394 250.74 16.3146 252.209 15.3898C253.679 14.465 255.193 13.4962 255.193 13.4962C255.193 13.4962 256.306 14.8613 257.553 14.7733C259.513 14.5971 259.424 13.0998 259.335 12.7475C259.647 13.32 260.537 15.0815 257.153 19.0009L259.958 21.2468V26.9718C259.958 26.9718 256.707 28.6452 253.679 30.8471C253.679 30.8471 251.987 28.7333 250.472 29.7462C249.493 30.3627 249.938 31.5077 251.363 32.0361Z" fill="#322F37"/>
<path d="M139.355 25.5186L142.963 28.7334V18.8689L139.355 15.566V25.5186ZM146.748 17.4597L147.995 16.3147L148.174 16.5349L146.971 17.6358V26.7517C146.971 26.7517 144.655 27.9847 143.007 28.8655C141.404 29.7903 139.667 30.8472 139.667 30.8472L135.392 27.2801L134.278 28.249L134.1 28.0288L135.303 27.0159V17.2395C135.303 17.2395 137.307 16.3587 138.999 15.3899C140.513 14.5532 142.206 13.5843 142.206 13.5843L146.748 17.4597Z" fill="#322F37"/>
<path d="M155.121 16.5349L157.838 13.8046C157.838 13.8046 158.194 14.1128 158.55 14.289C158.729 14.3771 159.575 14.8175 160.332 14.3771C160.733 14.1569 160.777 14.1128 161.223 13.6725C161.312 15.7863 160.287 17.2836 158.996 17.9001C158.461 18.1643 156.947 18.6488 155.299 16.7111V26.5315L156.992 28.0288L158.417 26.8398L158.595 27.06L154.097 30.7592L150.712 27.6765L149.465 28.8215L149.242 28.6013L151.113 26.9279V18.4286L149.688 16.5349L148.441 17.5918L148.263 17.4157L152.583 13.5404L155.121 16.5349Z" fill="#322F37"/>
<path d="M166.522 20.6303L171.51 13.4521C171.51 13.4521 172.178 14.2448 173.336 14.509C174.895 14.9054 176.276 13.4081 176.276 13.4081C176.008 15.3458 175.029 17.5036 172.98 17.8559C171.199 18.1642 169.506 16.755 169.506 16.755L169.194 17.2394L176.142 27.6323L177.523 26.4433L177.701 26.6635L172.935 30.8031L166.522 20.6303Z" fill="#322F37"/>
<path d="M162.425 11.03C162.425 9.48871 161.802 8.51988 160.955 8.60795L166.433 4.82069V26.2672L167.858 27.7645L168.972 26.8397L169.15 27.0599L164.741 30.8471L161.757 28.0727L160.555 29.1296L160.376 28.9095L162.47 27.1039V11.03" fill="#322F37"/>
<path d="M127.375 17.0632C127.375 17.0632 126.752 17.7238 125.817 17.7238C124.881 17.7238 124.258 17.0632 124.258 17.0632V20.0138C124.258 20.0138 124.881 19.3532 125.817 19.3532C126.752 19.3532 127.375 20.0138 127.375 20.0138V17.0632ZM127.375 10.7658L125.282 8.91622L124.258 9.7089V16.5788C124.258 16.5788 124.881 17.3715 125.817 17.3715C126.752 17.3715 127.375 16.6229 127.375 16.6229V10.7658ZM124.258 30.2746C124.258 30.2746 125.549 30.6269 126.44 29.8783C127.464 29.0416 127.375 27.8525 127.375 27.8525V20.4101C127.375 20.4101 126.796 19.6615 125.817 19.6615C124.881 19.6615 124.258 20.4542 124.258 20.4542V30.2746ZM116.776 10.6777C116.776 9.22448 116.197 8.4318 115.217 8.38776C113.836 8.34372 113.48 10.2814 113.48 10.2814C113.48 10.2814 113.213 8.7841 114.504 7.41893C115.217 6.67028 116.553 5.61337 118.602 6.09779C120.739 6.62625 121.363 8.25565 121.363 9.7089V29.6581C121.363 29.6581 122.165 29.7462 122.744 29.8783C123.367 30.0104 123.991 30.1865 123.991 30.1865V6.14183H124.258V9.40064L128.622 5.92164L131.829 8.74007L133.343 7.46297L133.521 7.68316L131.962 9.00429V27.5443C131.873 28.7333 131.695 29.9664 130.537 30.715C127.954 32.2123 124.837 30.4948 122.076 30.0985C120.027 29.7902 116.776 29.3939 115.974 31.2875C115.707 31.904 115.707 32.8288 116.642 33.4454C118.513 34.6784 126.841 31.3756 129.691 32.6967C132.319 33.8857 132.274 35.7794 131.873 37.1005C131.205 39.5666 128.088 39.963 128.088 39.963C128.088 39.963 129.602 39.0822 129.201 37.629C128.979 36.8803 128.489 36.7042 126.841 36.8803C123.278 37.2766 119.003 38.9941 116.108 37.8051C114.638 37.1886 113.569 35.383 113.703 33.5775C113.792 30.9792 116.776 29.9664 116.776 29.9664V20.4101C116.687 20.0138 115.083 20.1459 114.727 20.8505C114.193 21.9074 115.395 22.3918 115.395 22.3918C115.395 22.3918 114.415 22.5239 113.569 21.5991C113.168 21.1147 112.322 19.4853 113.436 17.988C114.326 16.755 115.44 16.5348 116.82 16.4027V10.6777H116.776Z" fill="#322F37"/>
</g>
<defs>
<clipPath id="clip0_454_230">
<rect width="260" height="38.5185" fill="white" transform="translate(0 0.196777)"/>
</clipPath>
</defs>
</svg>
