<svg width="150" height="27" viewBox="0 0 150 27" fill="none" xmlns="http://www.w3.org/2000/svg">
<path d="M119.669 6.84794C118.49 5.84417 117.246 5.09322 115.934 4.59008C114.623 4.08945 113.243 3.83913 111.799 3.83913C109.001 3.83913 106.725 4.73777 104.97 6.53254C103.216 8.32731 102.34 10.6528 102.34 13.5089C102.34 16.2724 103.193 18.5503 104.9 20.3475C106.608 22.1423 108.763 23.0384 111.361 23.0384C112.878 23.0384 114.32 22.7706 115.689 22.2349C117.058 21.6993 118.375 20.8882 119.634 19.8044V24.5078C118.515 25.3113 117.296 25.9146 115.979 26.3101C114.66 26.7056 113.233 26.9033 111.694 26.9033C109.737 26.9033 107.924 26.5829 106.265 25.9421C104.603 25.3013 103.143 24.3576 101.884 23.1085C100.637 21.8845 99.6763 20.4427 99.0079 18.7831C98.3371 17.121 98.0016 15.3512 98.0016 13.4738C98.0016 11.5965 98.3371 9.83422 99.0079 8.18463C99.6763 6.53505 100.647 5.08571 101.919 3.83913C103.191 2.58004 104.648 1.62632 106.29 0.980508C107.934 0.332186 109.711 0.00927734 111.624 0.00927734C113.128 0.00927734 114.563 0.227056 115.927 0.665108C117.291 1.10316 118.613 1.764 119.897 2.65012L119.669 6.84794Z" fill="#1E1E1E"/>
<path fill-rule="evenodd" clip-rule="evenodd" d="M43.2097 18.6329C43.8931 17.0133 44.2335 15.2936 44.2335 13.4738C44.2335 11.6665 43.8931 9.94937 43.2097 8.32481C42.5289 6.69775 41.5351 5.2384 40.2285 3.94426C38.9243 2.67265 37.4449 1.70643 35.7953 1.04058C34.1458 0.377241 32.401 0.0443217 30.5587 0.0443217C28.7039 0.0443217 26.9516 0.377241 25.2945 1.04058C23.6399 1.70643 22.1581 2.67265 20.8539 3.94426C19.5473 5.22589 18.556 6.67772 17.8801 8.29728C17.2043 9.91933 16.8664 11.644 16.8664 13.4738C16.8664 15.3162 17.2043 17.0409 17.8801 18.6504C18.556 20.2599 19.5473 21.6993 20.8539 22.9709C22.1355 24.2275 23.6149 25.1987 25.287 25.8821C26.9591 26.5629 28.7164 26.9033 30.5587 26.9033C32.3785 26.9033 34.1157 26.5654 35.7703 25.8896C37.4249 25.2137 38.9118 24.24 40.2285 22.9709C41.5351 21.6993 42.5289 20.2524 43.2097 18.6329ZM39.1896 9.78416C39.6602 10.9506 39.8955 12.1797 39.8955 13.4738C39.8955 14.758 39.6602 15.977 39.1896 17.1385C38.7165 18.2974 38.0382 19.3338 37.1521 20.2424C36.2534 21.1511 35.2421 21.8444 34.1182 22.3225C32.9918 22.8007 31.8053 23.0385 30.5587 23.0385C29.2871 23.0385 28.0881 22.8007 26.9566 22.3225C25.8252 21.8444 24.8164 21.1511 23.9303 20.2424C23.0442 19.3338 22.3683 18.2999 21.9027 17.146C21.4372 15.992 21.2044 14.768 21.2044 13.4738C21.2044 12.1697 21.4372 10.9331 21.9027 9.76664C22.3683 8.60267 23.0442 7.56886 23.9303 6.67272C24.8164 5.76156 25.8302 5.06818 26.9642 4.59008C28.1031 4.11448 29.2996 3.87417 30.5587 3.87417C31.8178 3.87417 33.0168 4.11698 34.1533 4.60009C35.2897 5.08321 36.2885 5.77408 37.1521 6.67272C38.0382 7.58137 38.7165 8.61768 39.1896 9.78416Z" fill="#1E1E1E"/>
<path fill-rule="evenodd" clip-rule="evenodd" d="M3.89994 26.2225V14.7329H6.29547C8.16034 14.7329 9.53207 14.6353 10.4132 14.4351C11.2943 14.2373 12.0603 13.9069 12.7136 13.4388C13.5171 12.8556 14.1454 12.052 14.601 11.0257C15.0566 10.0019 15.2819 8.88051 15.2819 7.66898C15.2819 6.45744 15.0566 5.34604 14.601 4.33726C14.1454 3.32848 13.5171 2.52747 12.7136 1.93171C12.0603 1.46612 11.2943 1.13069 10.4132 0.927941C9.53207 0.722676 8.16034 0.620051 6.29547 0.620051H0V26.2225H3.89994ZM5.22912 11.3236H4.16277V4.18957H5.22912C7.43191 4.18957 8.94383 4.46742 9.76487 5.02813C10.5884 5.58635 10.9989 6.55006 10.9989 7.91429C10.9989 9.1834 10.6134 10.0695 9.84497 10.5727C9.0765 11.0733 7.53705 11.3236 5.22912 11.3236Z" fill="#1E1E1E"/>
<path d="M47.9332 26.2225V0.622554H52.0935V22.4978H61.3978V26.2225H47.9332Z" fill="#1E1E1E"/>
<path d="M67.931 0.622554H63.7683V26.2225H67.931V0.622554Z" fill="#1E1E1E"/>
<path d="M81.1077 4.15453V26.2225H76.945V4.15453H70.1439V0.622554H87.8763V4.15453H81.1077Z" fill="#1E1E1E"/>
<path d="M94.2143 0.622554H90.0541V26.2225H94.2143V0.622554Z" fill="#1E1E1E"/>
<path fill-rule="evenodd" clip-rule="evenodd" d="M148.976 18.6329C149.66 17.0133 150 15.2936 150 13.4738C150 11.6665 149.66 9.94937 148.976 8.32481C148.295 6.69775 147.302 5.2384 145.995 3.94426C144.691 2.67265 143.211 1.70643 141.562 1.04058C139.912 0.377241 138.168 0.0443217 136.325 0.0443217C134.473 0.0443217 132.718 0.377241 131.061 1.04058C129.406 1.70643 127.925 2.67265 126.62 3.94426C125.314 5.22589 124.322 6.67772 123.647 8.29728C122.971 9.91933 122.633 11.644 122.633 13.4738C122.633 15.3162 122.971 17.0409 123.647 18.6504C124.322 20.2599 125.314 21.6993 126.62 22.9709C127.902 24.2275 129.379 25.1987 131.054 25.8821C132.726 26.5629 134.483 26.9033 136.325 26.9033C138.145 26.9033 139.882 26.5654 141.537 25.8896C143.191 25.2137 144.678 24.24 145.995 22.9709C147.302 21.6993 148.295 20.2524 148.976 18.6329ZM144.956 9.78416C145.427 10.9506 145.665 12.1797 145.665 13.4738C145.665 14.758 145.427 15.977 144.956 17.1385C144.483 18.2974 143.805 19.3338 142.919 20.2424C142.02 21.1511 141.009 21.8444 139.885 22.3225C138.758 22.8007 137.572 23.0385 136.325 23.0385C135.054 23.0385 133.855 22.8007 132.723 22.3225C131.592 21.8444 130.583 21.1511 129.697 20.2424C128.813 19.3338 128.135 18.2999 127.669 17.146C127.204 15.992 126.971 14.768 126.971 13.4738C126.971 12.1697 127.204 10.9331 127.669 9.76664C128.135 8.60267 128.813 7.56886 129.697 6.67272C130.583 5.76156 131.597 5.06818 132.731 4.59008C133.87 4.11448 135.066 3.87417 136.325 3.87417C137.584 3.87417 138.783 4.11698 139.92 4.60009C141.056 5.08321 142.055 5.77408 142.919 6.67272C143.805 7.58137 144.483 8.61768 144.956 9.78416Z" fill="#1E1E1E"/>
</svg>
