<svg width="150" height="47" viewBox="0 0 150 47" fill="none" xmlns="http://www.w3.org/2000/svg">
<path d="M71.5654 0.570801C71.5654 0.570801 69.8779 0.606137 68.8999 0.589607C68.8593 1.00004 68.388 4.71931 67.9826 7.71113C67.5164 10.4796 63.8221 31.0161 62.5704 37.1636C62.241 39.0199 61.2224 44.2639 61.1261 44.7879C59.9504 44.9282 58.5619 45.058 57.6548 45.0929C57.5332 45.097 57.3305 45.1365 57.2342 45.1365V46.2012C57.3457 46.1967 57.9335 46.2418 58.3491 46.224C59.3474 46.1921 62.1802 46.0578 62.7174 46.0578C64.7545 46.0578 66.1127 46.1926 67.9978 46.2301C68.0232 46.2301 68.5401 46.2281 68.7681 46.1992V45.1233C68.611 45.1233 68.4032 45.1183 68.2816 45.1183C67.7495 45.135 65.7883 44.9845 64.7951 44.8492C64.9116 44.1458 66.6448 33.5099 67.4759 29.2566C69.057 21.3841 70.1516 15.8046 70.1516 15.8046L70.4455 16.4974L82.9372 46.2706L85.2176 46.2823C85.2176 46.2823 86.52 43.0583 88.0656 39.442C88.1061 39.3564 88.2176 39.0974 88.3747 38.7275C89.9964 34.9724 98.0336 15.9146 98.0336 15.9146C98.0336 15.9146 98.1096 16.2577 98.2363 16.8714C99.0015 20.6067 101.591 34.0683 102.143 37.3162C102.402 38.987 102.645 40.6816 102.787 41.6743C102.995 43.0801 103.132 44.4559 103.132 44.8512C102.878 44.8629 100.334 45.0929 99.3715 45.1345C99.2346 45.1299 98.9762 45.1426 98.961 45.1451V46.2281C99.3056 46.2281 99.64 46.2433 99.9745 46.2357C101.941 46.1982 103.831 46.0441 105.797 46.0451C108.007 46.0472 111.589 46.2402 113.885 46.2549C114.144 46.2549 114.605 46.2321 114.605 46.2321V45.138C114.473 45.137 113.895 45.1086 113.682 45.0919C112.654 45.0113 110.921 44.8507 110.48 44.8213C110.48 44.8213 110.196 43.2488 109.821 41.4326C108.321 34.1671 104.049 12.083 103.395 6.64896C103.172 4.78124 102.539 0.58758 102.539 0.58758L99.9694 0.586779C99.9694 0.586779 98.6569 4.35268 97.461 7.78635C96.6451 10.1327 95.5353 13.0293 94.689 15.2504C90.5133 26.2249 85.8308 36.4513 85.8308 36.4513C85.8308 36.4513 75.878 12.7035 75.3509 11.3301C74.8188 9.9563 71.5654 0.571069 71.5654 0.571069V0.570801ZM0.0207772 0.580698L0.042568 3.09074L0 9.2033L0.662186 9.18455L0.73146 3.74801C0.73146 3.74786 4.36246 3.71659 4.83208 3.7172L11.6029 3.72014L15.9727 3.74193L15.9798 41.5499L15.9808 44.8155L15.8886 44.8282C15.3068 44.8733 13.0685 45.0101 12.1593 45.043C11.9556 45.0496 11.8254 45.0547 11.8031 45.0521L11.8071 46.1584C11.9713 46.1665 12.4137 46.1772 12.472 46.1751C14.6227 46.1473 17.5331 45.9603 19.5966 45.9623C21.6931 45.9633 24.6434 46.167 26.4693 46.1883C26.6502 46.1893 26.8646 46.1716 27.0384 46.1716V45.1342L26.8119 45.1363C26.2301 45.1337 23.0127 44.9265 22.6797 44.8829C22.666 44.3756 22.6062 41.9269 22.6062 41.8727L22.622 3.73788L25.9488 3.72906L34.6292 3.73499L37.5263 3.77456C37.5456 3.98158 37.692 6.73537 37.6895 6.81037C37.6829 7.01054 37.7979 9.06192 37.7934 9.56665L38.4801 9.57476L38.4309 3.39226L38.4623 0.611256C35.9113 0.680682 29.41 0.768048 19.3204 0.762727C10.6674 0.757406 2.32867 0.684837 0.0208786 0.580596L0.0207772 0.580698ZM40.433 0.590595L40.4437 1.67344C40.7862 1.69204 42.8001 1.87022 43.2896 1.89414C43.6803 1.94198 44.2256 1.99093 44.6158 2.02873C44.6158 2.37541 44.6219 4.76768 44.6275 5.71183C44.6929 14.6607 44.6371 34.4386 44.6108 41.4365C44.6026 43.46 44.5971 44.7639 44.5971 44.7639C44.3503 44.8379 43.7949 44.8658 43.1944 44.9063C42.681 44.9413 40.8415 45.0958 40.431 45.1045V46.1874C40.6013 46.1874 40.9134 46.2234 41.0913 46.2219C43.1736 46.2224 46.0687 45.9639 48.2017 45.9654C50.3574 45.967 53.2358 46.2295 54.9335 46.23L54.9284 46.231C55.0754 46.233 55.4251 46.1945 55.572 46.195V45.1126H55.4251C55.3592 45.0984 53.17 45.0061 52.6379 44.9509C52.3591 44.9332 51.1531 44.8288 51.1378 44.7887C51.1328 44.7675 51.1277 44.4436 51.1277 43.9039C51.1328 43.3916 51.1328 42.5397 51.1328 41.6164C51.1378 34.5577 51.1581 13.5935 51.1632 5.58007C51.1632 4.03136 51.1683 2.77302 51.1683 2.09801C51.6395 2.06821 53.5652 1.86687 54.2544 1.80606C54.2848 1.80307 55.197 1.75057 55.572 1.72787V0.599514C53.2156 0.598652 50.0975 0.78281 47.7978 0.781644C45.3927 0.780175 42.4297 0.591497 40.433 0.59061V0.590595ZM149.488 0.621289C149.488 0.621289 149.24 0.622354 148.779 0.623266C147.203 0.630056 143.169 0.659651 138.451 0.685598C135.552 0.702422 133.287 0.725682 130.302 0.724213C128.209 0.74874 125.28 0.829417 123.471 0.826173C120.582 0.82146 118.226 0.643435 116.944 0.638114C116.336 0.635428 115.996 0.658334 115.829 0.647996C115.839 0.663351 115.839 1.71696 115.839 1.71696C115.951 1.73642 116.174 1.76125 116.381 1.75654C117.106 1.80529 118.464 1.915 119.153 2.00597C119.29 2.03105 119.523 2.06951 120.172 2.14158C120.167 2.38132 120.202 5.09432 120.197 6.72432C120.197 8.23448 120.182 41.9291 120.182 41.9291C120.182 41.9838 120.106 44.6387 120.106 44.8531C118.961 45.0492 116.761 45.1698 116.011 45.1729H115.789V46.2447C115.895 46.2442 116.386 46.2634 116.665 46.2634C117.876 46.2629 120.998 46.0703 124.186 46.0683C126.42 46.0663 128.878 46.1499 131.366 46.1854C134.432 46.2279 137.534 46.23 140.321 46.2695C144.917 46.3344 148.642 46.3399 149.853 46.3414C149.853 46.3414 150 37.8162 150 37.129L149.336 37.1366C149.336 37.8618 149.068 40.5623 149.057 40.6804C148.971 41.697 148.88 42.7622 148.809 43.2872C148.809 43.2872 148.485 43.313 148.328 43.31C147.573 43.2958 145.16 43.3835 145.11 43.3835L134.351 43.388L126.795 43.2614L126.745 41.1654L126.74 24.8922C128.088 24.8466 130.145 24.7752 131.397 24.7777C132.461 24.7797 134.969 24.7199 136.373 24.723C139.784 24.7291 142.814 24.7509 143.057 24.758C143.62 24.7742 144.664 24.8086 145.059 24.833C145.074 24.9764 145.12 25.2004 145.125 25.2637C145.328 26.5098 145.439 27.3728 145.576 28.5962C145.596 28.7061 145.606 28.8126 145.622 28.9129H146.397C146.397 28.9129 146.417 28.4756 146.407 28.2034C146.392 27.2441 146.331 25.3306 146.331 23.2098C146.326 21.7397 146.412 19.4922 146.422 18.4113C146.427 18.1189 146.392 17.9111 146.392 17.8275L145.682 17.8412C145.677 18.0748 145.622 18.4194 145.622 18.4194C145.561 19.2251 145.333 20.2549 145.15 21.3414C145.1 21.4767 145.064 21.6657 145.064 21.6657C144.983 21.6931 142.758 21.8116 142.561 21.8101C142.485 21.8096 139.247 21.9003 139.191 21.9003L126.745 21.8537L126.765 3.90926C126.765 3.90931 128.346 3.85347 128.787 3.85585C130.581 3.85615 133.5 3.83984 136.475 3.84399C140.828 3.84926 145.054 3.87637 145.064 3.88256C145.089 3.89497 146.377 3.91286 146.402 3.93501C146.432 3.95923 148.044 4.00742 148.439 4.02014C148.439 4.02014 148.47 4.15372 148.49 4.32202C148.667 6.21402 148.814 8.461 148.88 9.25712L148.885 9.57587L149.549 9.57385C149.549 8.4088 149.488 4.84089 149.478 2.5709C149.473 1.84183 149.488 1.2481 149.488 0.910296V0.621289Z" fill="#1E1E1E"/>
</svg>
