<svg width="183" height="47" viewBox="0 0 183 47" fill="none" xmlns="http://www.w3.org/2000/svg">
<g clip-path="url(#clip0_454_196)">
<path d="M181.461 1.84277H1.68396V38.1466H181.461V1.84277Z" fill="#1E1E1E"/>
<path d="M192.071 37.2422H0.121948V39.1401H192.071V37.2422Z" fill="white"/>
<path d="M181.461 39.2041H1.68372V45.9009H181.461V39.2041Z" fill="#646464"/>
<path d="M180.744 2.55463V45.0162H2.40159V2.55463H180.744ZM182.527 0.7854H180.744H2.40159H0.618164V2.55463V45.0162V46.7854H2.40159H180.744H182.527V45.0162V2.55463V0.7854Z" fill="white"/>
<path d="M50.6172 10.6614C57.3709 10.6614 60.5441 12.9964 61.9062 16.3792C62.2495 17.2601 62.5215 18.2706 62.5215 18.9495H56.4502C56.4501 18.6456 56.2797 18.0389 56.0742 17.6311C55.3586 16.1421 53.8911 15.3645 50.4814 15.3645C46.0143 15.3646 45.126 16.3447 45.126 17.8684C45.1261 19.8311 46.7305 20.6083 51.1309 21.4875C52.4909 21.7573 54.2657 22.1309 54.8809 22.2327C60.2376 23.2486 63.033 25.4483 63.0332 30.0188C63.0332 30.8227 62.9171 31.5785 62.7041 32.2874H66.9521V37.7317H61.6924V34.3186C59.9625 36.6768 56.5545 38.1027 51.4346 38.1028C43.2844 38.1027 40.3507 35.6668 39.2637 32.2825C38.9865 31.4052 38.8838 30.0836 38.8838 29.5442H44.9551C44.9552 30.0192 45.1256 30.8314 45.3311 31.2356C46.0819 32.7923 47.8561 33.466 51.4346 33.4661C55.5304 33.466 56.9619 32.3524 56.9619 30.592C56.9618 28.3914 55.8332 27.616 51.4727 26.804C50.6868 26.6672 48.7086 26.2917 47.5156 26.0569C42.2615 25.0762 39.0234 22.6746 39.0234 18.2415C39.0234 13.7044 42.7055 10.6615 50.6172 10.6614ZM160.816 17.5129C166.269 17.5129 169.707 18.9107 170.718 21.7405C170.97 22.4971 171.08 23.7113 171.08 24.1057H165.479C165.478 23.891 165.402 23.2839 165.225 23.0334C164.826 22.4979 163.779 22.0276 161.034 22.0276C157.853 22.0277 156.91 22.5336 156.91 23.4631C156.91 24.3234 157.529 24.6443 160.347 25.0764C161.503 25.2507 164.286 25.649 164.971 25.7561C169.739 26.474 171.838 28.2312 171.838 31.9231C171.838 36.0094 168.73 38.0881 161.865 38.0881C155.141 38.0881 151.962 36.7645 151.13 33.5374C150.951 32.7496 150.916 32.2099 150.916 31.5637H156.661C156.661 31.8158 156.695 32.1738 156.84 32.5696C157.203 33.5007 158.72 33.7512 161.864 33.7512C165.152 33.7512 166.165 33.1771 166.165 32.0315C166.165 30.9171 164.97 30.6688 162.043 30.2385C161.286 30.1314 158.9 29.7716 157.709 29.592C153.336 28.9838 151.241 27.0844 151.241 23.3157C151.241 19.8071 154.418 17.513 160.816 17.5129ZM17.2041 28.7991C17.2041 31.6103 19.3206 33.2638 23.1748 33.2639C26.5501 33.2638 28.9373 31.6103 28.9375 28.8342V11.0012H34.8359V29.6428C34.8359 30.6089 34.6898 31.4888 34.418 32.2874H38.6211V37.7317H33.3594V34.2688C31.4091 36.8123 27.6734 38.0706 23.0371 38.0706C16.3196 38.0704 11.3076 35.5687 11.3076 29.304V11.0012H17.2041V28.7991ZM104.641 17.5471C109.193 17.5471 112.304 19.1943 114.071 21.7415C115.553 23.8924 116.095 26.7267 115.771 29.6985H98.9297C98.9298 30.6001 99.3285 31.2794 100.013 32.0325C100.849 32.929 102.473 33.5002 104.641 33.5002C106.267 33.5002 107.459 33.2138 108.293 32.8547C109.338 32.3887 109.845 31.7458 109.951 31.3137H115.625C115.158 33.2136 114.002 35.0034 112.017 36.2629C110.28 37.3721 107.856 38.053 104.641 38.053C100.229 38.0529 96.6533 36.7641 94.7393 33.7512C93.7607 32.2103 93.2188 30.2387 93.2188 27.7629C93.2188 25.5042 93.836 23.4974 94.9541 21.9202C96.8698 19.1595 100.303 17.5473 104.641 17.5471ZM85.9824 28.2219V11.0012H91.6094V37.7317H85.2334L74.3867 19.6272V37.7317H68.7598V11.0012H75.6143L85.9824 28.2219ZM125.625 32.6741L129.997 18.0139H136.427L140.91 32.6741L145.569 18.0139H151.248L144.057 37.7317H137.229C137.214 37.6905 133.322 26.4049 133.252 25.7561C133.214 25.5039 132.994 24.3352 132.994 24.3352C132.992 24.3452 132.782 25.5051 132.745 25.72C132.709 26.407 128.816 37.7026 128.806 37.7317H121.934L114.82 18.0139H120.855L125.625 32.6741ZM104.676 22.1682C102.619 22.1683 101.1 22.7094 100.123 23.5696C99.4798 24.1415 98.9616 25.2149 98.8994 25.8215L98.8936 25.9358H110.021C110.021 25.36 109.774 24.4302 109.053 23.677C108.219 22.8531 106.846 22.1682 104.676 22.1682ZM112.926 10.8918C114.969 10.8918 115.811 11.832 115.812 13.6272C115.811 15.5133 114.907 16.4417 112.926 16.4417C110.939 16.4416 110.037 15.4829 110.037 13.6477C110.037 11.9339 110.923 10.8919 112.926 10.8918ZM156.862 10.8918C158.901 10.892 159.746 11.8321 159.746 13.6272C159.746 15.5132 158.841 16.4415 156.862 16.4417C154.872 16.4416 153.969 15.4829 153.97 13.6477C153.97 11.9339 154.856 10.8919 156.862 10.8918ZM96.6104 10.9338C97.6412 10.9338 98.2429 11.5265 98.2812 12.178C98.2883 12.2267 98.2812 12.3752 98.2812 12.4114C98.2635 13.0917 97.737 13.5651 97.1973 13.8967C97.4411 14.094 97.7529 14.3705 98.0645 14.6243C98.2418 14.4015 98.3417 14.116 98.3574 13.8088H99.876C99.85 14.4827 99.5743 15.0654 99.1406 15.4749C99.5009 15.7393 99.9109 16.0515 100.303 16.3606H98.2422C98.1519 16.2966 98.0648 16.2226 97.9883 16.1555C97.5701 16.3284 97.0123 16.4143 96.4971 16.4143C95.2103 16.4143 94.0508 16.1809 94.0039 15.1965C93.9986 15.1123 94.0039 14.9873 94.0039 14.9182C94.0177 14.3066 94.6031 13.9262 95.2441 13.6272C94.9291 13.1851 94.8088 12.817 94.7998 12.4924V12.22C94.8292 11.5601 95.4822 10.934 96.6104 10.9338ZM119.975 10.9895C120.695 10.9896 121.163 11.1954 121.437 11.553C121.647 11.824 121.749 12.1851 121.749 12.6877C121.749 13.1196 121.654 13.4621 121.51 13.7004C121.339 13.9867 121.095 14.155 120.845 14.2102L122.111 16.3606H120.251L119.3 14.5432H118.18V16.3616H116.547V10.9895H119.975ZM139.472 10.9895C140.193 10.9895 140.661 11.1952 140.935 11.553C141.145 11.824 141.246 12.1851 141.246 12.6877C141.246 13.1196 141.15 13.4621 141.008 13.7004C140.839 13.9868 140.59 14.1549 140.341 14.2102L141.608 16.3606H139.752L138.796 14.5432H137.678V16.3616H136.046V10.9895H139.472ZM151.486 10.9895C152.139 10.9895 152.604 11.1332 152.9 11.4387C153.217 11.7099 153.388 12.1732 153.388 12.8401C153.388 13.4356 153.257 13.8576 152.987 14.1428C152.676 14.5033 152.157 14.675 151.492 14.6887C151.288 14.6918 149.823 14.6799 149.823 14.6799H149.822V16.3616H148.154V10.9895H151.486ZM163.925 10.9895C164.642 10.9896 165.116 11.1953 165.391 11.553C165.598 11.824 165.704 12.1851 165.704 12.6877C165.704 13.1196 165.607 13.4621 165.468 13.7004C165.293 13.9868 165.051 14.1549 164.797 14.2102L166.062 16.3606H164.207L163.252 14.5432H162.132V16.3616H160.498V10.9895H163.925ZM103.402 10.9895C103.417 11.0474 104.229 14.3079 104.229 14.4758C104.229 14.308 105.017 11.0481 105.031 10.9895H106.734C106.75 11.0523 107.556 14.3081 107.556 14.4758C107.556 14.3081 108.353 11.0535 108.369 10.9895H109.977L108.458 16.3606H106.647C106.641 16.3344 105.839 13.2716 105.816 13.092C105.805 13.2785 104.987 16.328 104.979 16.3606H103.182L101.631 10.9895H103.402ZM124.57 15.0325H127.17V16.3606H122.895V10.9895H124.57V15.0325ZM130.969 10.9895C131.947 10.9895 132.557 11.2274 132.892 11.6887C133.224 12.1446 133.289 12.5928 133.289 13.5706C133.289 14.7155 133.207 15.1356 132.907 15.5813C132.582 16.0769 132.022 16.3606 131.049 16.3606H127.998V10.9895H130.969ZM147.063 12.2542H144.091V13.0334H146.954V14.3098H144.091V15.1086H147.093V16.3606H142.461V10.9895H147.063V12.2542ZM171.328 12.2815H169.597V16.3606H167.909V12.2815H166.191V10.9895H171.328V12.2815ZM96.0342 14.5276C95.7872 14.6658 95.6141 14.8126 95.6143 14.9641C95.6146 15.2229 95.8569 15.3225 96.4209 15.3225C96.5737 15.3225 96.7604 15.3032 96.8945 15.2688C96.5844 15.0045 96.2624 14.7557 96.0342 14.5276ZM112.926 12.1624C112.043 12.1624 111.727 12.5858 111.728 13.6653C111.728 14.8037 112.143 15.1827 112.935 15.1829C113.696 15.1829 114.138 14.8622 114.138 13.6653C114.138 12.6012 113.844 12.1624 112.926 12.1624ZM156.862 12.1624C155.974 12.1624 155.662 12.5858 155.662 13.6653C155.662 14.8035 156.073 15.1827 156.863 15.1829C157.628 15.1829 158.07 14.8622 158.07 13.6653C158.07 12.6014 157.78 12.1625 156.862 12.1624ZM129.646 15.092H130.69C131.113 15.092 131.337 15.0037 131.523 14.7864C131.664 14.6147 131.68 14.0071 131.68 13.5706C131.68 13.1855 131.641 12.6878 131.509 12.5354C131.298 12.306 131.1 12.2454 130.69 12.2454H129.646V15.092ZM149.804 13.4768H151.104C151.419 13.4768 151.574 13.3731 151.652 13.2249C151.706 13.1281 151.721 13.0271 151.721 12.8704C151.721 12.7035 151.698 12.565 151.647 12.4924C151.555 12.3217 151.398 12.2386 151.125 12.2385H149.804V13.4768ZM118.195 13.3489H119.629C119.832 13.3489 120.006 13.302 120.067 13.1692C120.109 13.0743 120.131 12.9313 120.131 12.8245C120.131 12.7039 120.118 12.5584 120.071 12.4788C119.992 12.3059 119.833 12.2542 119.593 12.2542H118.195V13.3489ZM137.693 13.3489H139.123C139.325 13.3489 139.504 13.302 139.565 13.1692C139.607 13.0743 139.625 12.9313 139.625 12.8245C139.625 12.7039 139.614 12.5584 139.572 12.4788C139.488 12.306 139.325 12.2542 139.087 12.2542H137.693V13.3489ZM162.146 13.3489H163.576C163.779 13.3488 163.96 13.3019 164.02 13.1692C164.059 13.0743 164.079 12.9313 164.079 12.8245C164.079 12.7039 164.067 12.5585 164.025 12.4788C163.943 12.3059 163.78 12.2542 163.543 12.2542H162.146V13.3489ZM96.5938 12.0833C96.3539 12.0835 96.2532 12.2458 96.2305 12.4358C96.2239 12.479 96.2238 12.5355 96.2305 12.5803C96.2391 12.7288 96.3161 12.8999 96.4502 13.0745C96.7265 12.9124 96.9196 12.7343 96.9375 12.5256V12.4163C96.9285 12.2385 96.8429 12.0833 96.5938 12.0833Z" fill="white"/>
</g>
<defs>
<clipPath id="clip0_454_196">
<rect width="181.909" height="46" fill="white" transform="translate(0.618164 0.7854)"/>
</clipPath>
</defs>
</svg>
