<svg width="301" height="48" viewBox="0 0 301 48" fill="none" xmlns="http://www.w3.org/2000/svg">
<g clip-path="url(#clip0_454_224)">
<path d="M17.7212 15.1884V31.4124C19.9132 30.2286 21.4482 28.1675 22.1934 25.8433L22.369 25.9314C21.8862 31.7195 17.9402 37.507 11.8016 37.507C5.61885 37.507 1.05859 32.9034 1.05859 25.5362C1.05859 20.0118 4.65406 16.5472 9.25838 13.4338C8.58561 13.2573 7.89278 13.1689 7.19726 13.1707C4.0398 13.1707 2.19833 15.3193 2.19833 17.512H1.93527C1.89121 17.2049 1.89121 16.8984 1.89121 16.5913C1.89121 12.6887 3.95233 7.95281 8.95125 7.95281C12.1521 7.95281 14.6078 10.8906 18.3348 10.8906C19.8258 10.8906 21.6672 10.1889 22.4124 8.56642H22.5439C22.5005 11.4174 21.6238 14.3552 17.7212 15.1884ZM20.0888 31.807C17.8962 34.1306 15.5286 36.1042 12.4592 36.1042C6.75924 36.1042 2.37458 31.6314 2.37458 25.1416C2.37458 21.3271 3.95298 19.2666 5.70697 16.8543H5.53138C4.43505 17.9506 1.54132 20.7129 1.54132 25.4046C1.54132 32.5962 6.05751 37.0249 11.9772 37.0249C16.0988 37.0249 18.905 34.1753 20.177 31.8511L20.0888 31.807ZM21.8422 10.5407C21.097 11.9435 19.5186 13.7409 16.3178 13.7409C13.1169 13.7409 10.1791 11.5483 7.59186 11.5483C5.22361 11.5483 3.60179 13.1273 2.98754 14.3111L3.0316 14.3992C3.86486 13.566 5.13613 12.7327 7.19726 12.7327C10.6171 12.7327 12.8098 14.8379 16.2737 14.8379C19.9573 14.8379 21.6232 12.4256 21.9303 10.5848L21.8422 10.5407ZM9.65233 13.566C7.41626 15.8902 5.35514 18.4334 5.35514 23.3882C5.35514 26.1064 6.27587 28.9126 8.337 30.6666L9.60827 30.0083V18.2578L8.42447 18.8714L8.20546 18.4327L14.3441 15.0997C12.6782 14.7498 11.1873 14.0046 9.65233 13.566ZM17.2385 15.2759C16.9314 15.3193 16.6249 15.3193 16.2737 15.3193C15.6601 15.3193 15.0899 15.2759 14.5197 15.1437V27.9472L8.77566 31.0619C9.95946 31.9386 11.4063 32.4647 13.2478 32.4647C14.7387 32.4647 16.0541 32.1576 17.2379 31.6314V15.2759H17.2385ZM10.9243 17.5126L10.091 17.9947V29.7465L10.9243 29.3079V17.5126ZM36.1372 19.1785V34.3502C36.1372 38.5593 32.4102 41.4103 28.2446 42.2429L28.1571 42.0673C30.2182 41.0584 31.402 38.998 31.402 36.8053V21.1075L29.0344 18.9595L28.1137 19.9677V32.2016L29.429 33.3854V33.4735L25.8776 37.3321L21.8001 33.6051V33.4295L23.3785 31.763V12.3822L28.0262 7.42797L28.1137 7.47138V19.2226L31.9288 15.101L35.9189 18.6971L36.664 17.9072L37.0152 18.215L36.1372 19.1785ZM23.8599 33.517V33.4295L24.7806 32.5081V11.6364L23.8599 12.6018V32.0701L22.4564 33.4735V33.561L25.8763 36.6304L26.4899 35.9286L23.8599 33.517ZM32.8048 20.4057L29.9545 17.9506L29.3409 18.6083L31.8841 20.8891V36.6744C31.8841 37.7267 31.6651 38.8224 31.2705 39.4366L31.3145 39.4807C32.4109 38.6908 32.8055 37.507 32.8055 35.9727V20.4057H32.8048ZM43.1091 27.9919V30.228L47.3623 33.5604L49.818 30.9297L50.1692 31.2802L44.4692 37.3748L38.6811 32.7271L37.8044 33.6478L37.4532 33.2973L38.4621 32.245V21.1515L46.7493 15.1003L51.0906 22.1163L43.1091 27.9919ZM39.8642 31.8511V20.7129L38.9435 21.3712V32.2897L44.3811 36.7185L45.0828 35.9733L39.8642 31.8511ZM43.1973 18.3452L43.1091 18.3893V27.3783L47.0117 24.528L43.1973 18.3452ZM44.337 17.4686L43.5478 18.0381L47.407 24.2208L48.1962 23.6507L44.337 17.4686ZM79.6722 37.3314L73.577 32.0694L68.9292 37.3314L62.615 31.8938V23.3001H61.3871C60.2908 23.3001 59.7212 24.0018 59.4575 24.8345H59.326C59.1861 24.29 59.1125 23.7307 59.107 23.1686C59.107 22.0282 59.4141 19.047 62.615 19.047V11.5049C62.615 10.058 60.905 9.4878 60.905 7.55821C60.905 5.05972 63.2726 2.604 67.6139 1.06836L67.7895 1.19989C66.2111 2.12128 65.3778 2.99795 65.3778 4.88348C65.3778 7.77786 68.1841 7.03207 68.1841 11.5923V13.3463L73.3145 7.95281L78.7081 13.2582L83.7945 7.95281L88.7052 12.7761V29.0001L79.6722 37.3314ZM64.0184 31.1928V21.9414H61.5627C60.2908 21.9414 59.7212 22.774 59.6331 23.5198L59.6765 23.5638C60.1152 23.0818 60.5538 22.8187 61.5621 22.8187H63.0964V31.6761L68.8845 36.6751L69.5422 35.8852L64.0184 31.1928ZM64.0184 11.0662C64.0184 9.26879 62.44 8.65454 62.44 7.5148C62.44 5.93575 63.0536 4.62106 64.0184 3.3932L63.931 3.34978C62.6156 4.35864 61.3878 5.9811 61.3878 7.55886C61.3878 9.13791 63.0977 9.88305 63.0977 11.2865V19.0476H64.0184V11.0662ZM73.2705 15.4515L69.9381 12.2066L68.1841 14.004V29.5262L72.1741 32.9027L73.2705 31.6748V15.4515ZM74.6733 31.1053V14.8379L70.9463 11.1543L70.2446 11.856L73.7526 15.2319V31.5874L79.6722 36.7178L80.3739 36.0595L74.6733 31.1053ZM83.1802 14.8813L80.418 12.25L78.8396 13.8725V29.4828L83.1368 33.2532L83.1802 33.2098V14.8813ZM84.583 14.2677L81.3821 11.1543L80.7245 11.856L83.6623 14.6623V32.9908L84.583 32.1135V14.2677ZM103.215 37.3314L99.0491 33.5604L95.3221 37.3314L90.7618 33.2973L90.1476 33.955L89.797 33.6044L90.5862 32.7712V21.0206L98.8301 15.0569L103.566 18.7405L104.399 17.8632L104.75 18.2144L103.786 19.2226V31.369L106.109 33.517L106.855 32.7278L107.205 33.0349L103.215 37.3314ZM91.9897 32.4647V20.6254L91.069 21.283V32.9034L95.2787 36.6744L95.9804 35.9727L91.9897 32.4647ZM99.0491 20.9325L95.4536 18.1262L95.3221 18.2144V30.9738L98.3039 33.5604L99.0491 32.8152V20.9325ZM100.453 32.8593V20.2748L96.7256 17.2489L95.8489 17.8625L99.5318 20.7569V33.2973L103.215 36.6297L103.873 35.928L100.453 32.8593ZM115.975 23.037H120.491V32.4206L113.519 37.3314C112.598 36.2792 111.282 35.534 109.661 35.534C108.345 35.534 107.292 35.9727 105.889 37.1565L105.67 37.0684L111.634 28.3865H107.951V20.2308L115.274 15.1444C116.15 15.8461 116.808 16.2401 117.948 16.2401C118.826 16.2401 120.097 16.0645 121.062 15.2759L121.237 15.3634L115.975 23.037ZM111.064 34.2621C109.792 34.2621 108.784 34.7008 107.907 35.3144V35.4025C108.608 35.0954 109.31 35.0079 109.968 35.0079C110.976 35.0079 112.555 35.4906 113.607 36.7185L114.616 35.9733C113.782 35.0079 112.774 34.2621 111.064 34.2621ZM115.755 26.8956H113.299L108.169 34.3068L108.213 34.3943C109.484 33.4735 110.712 32.8599 112.203 32.8599C113.518 32.8599 114.878 33.4735 115.711 34.5258L115.755 34.4824V26.8956ZM109.353 26.8956V19.8368L108.433 20.4945V27.861H111.984L112.686 26.8962H109.353V26.8956ZM118.518 18.3012C117.597 18.9595 117.071 19.31 115.536 19.31C114.659 19.31 113.607 18.9154 112.774 18.0381L112.686 18.0822V24.4839H114.352L118.562 18.3446L118.518 18.3012ZM116.413 17.9066C115.624 17.9066 114.616 17.5126 113.958 16.6353L112.861 17.3805C113.695 18.3893 114.484 18.8273 115.711 18.8273C116.5 18.8273 117.641 18.6077 118.824 17.5988L118.868 17.4679C118.123 17.7757 117.203 17.9066 116.413 17.9066ZM117.159 25.4494H114.308L113.651 26.3701H116.238V34.8764L117.159 34.2187V25.4494ZM135.619 19.1785V34.3502C135.619 38.5593 131.892 41.4103 127.726 42.2429L127.639 42.0673C129.7 41.0584 130.883 38.998 130.883 36.8053V21.1075L128.516 18.9595L127.595 19.9677V32.2016L128.91 33.3854V33.4735L125.359 37.3321L121.281 33.6051V33.4295L122.86 31.763V12.3822L127.508 7.42797L127.595 7.47138V19.2226L131.41 15.101L135.4 18.6971L136.145 17.9072L136.497 18.215L135.619 19.1785ZM123.341 33.517V33.4295L124.262 32.5081V11.6364L123.341 12.6012V32.0694L121.938 33.4729V33.5604L125.358 36.6297L125.971 35.928L123.341 33.517ZM132.286 20.4057L129.436 17.9506L128.822 18.6083L131.366 20.8891V36.6744C131.366 37.7267 131.146 38.8224 130.752 39.4366L130.796 39.4807C131.892 38.6908 132.287 37.507 132.287 35.9727V20.4057H132.286ZM143.599 37.3314L139.828 33.8675L138.951 34.7882L138.6 34.437L139.609 33.3414V20.6694L137.767 18.9154L137.066 19.7053L136.714 19.3541L140.66 15.0569L144.168 18.2144L145.046 17.2496L145.44 17.5567L144.344 18.7405V31.5446L146.449 33.5176L147.414 32.5088L147.764 32.8599L143.599 37.3314ZM141.012 33.0349V19.9677L138.732 17.8632L138.118 18.5649L140.091 20.4504V33.4735L143.599 36.6304L144.257 35.9286L141.012 33.0349ZM142.327 14.7064L138.732 11.418L142.021 7.91004L145.616 11.1984L142.327 14.7064ZM140.091 10.7157L139.434 11.3733L142.283 14.0481L142.941 13.3029L140.091 10.7157ZM162.14 37.3314L158.325 33.8675V21.064L156.001 18.9595L154.773 20.2748V32.1135L156.133 33.3848V33.5604L152.537 37.3314L148.459 33.6044V33.4729L150.038 31.807V20.7569L147.977 18.8714L147.144 19.7921L146.793 19.4416L150.783 15.1003L154.773 18.6524V19.5291L158.939 15.1003L162.841 18.6083L163.718 17.6876L164.113 18.0381L163.061 19.1345V31.6748L165.034 33.5163L165.998 32.464L166.349 32.8146L162.14 37.3314ZM150.564 33.517V33.4295C150.564 33.517 151.442 32.5522 151.442 32.5522V20.0986L148.942 17.8185L148.327 18.4761L150.52 20.4932V32.0688L149.161 33.4723V33.5597L152.537 36.6291L153.238 35.8839L150.564 33.517ZM159.728 33.1664V20.3189L157.01 17.8632L156.308 18.6083L158.807 20.8444V33.6044L162.096 36.6738L162.797 35.928L159.728 33.1664ZM174.505 45.2241C173.059 43.6457 172.05 42.988 170.691 42.988C169.244 42.988 167.577 43.5582 165.867 44.4789L165.736 44.3481L171.787 37.3321L167.49 33.9122L166.657 34.7895L166.306 34.4824L167.27 33.4301V21.0206L175.602 15.0569L180.249 18.7405L181.039 17.8632L181.39 18.2144L180.469 19.2226V34.2193C180.469 36.4995 181.74 36.412 181.74 38.1213C181.74 40.0943 178.89 41.9357 174.505 45.2241ZM168.674 33.0783V20.6694L167.753 21.3278V33.4735L172.094 36.9815L172.752 36.1917L168.674 33.0783ZM171.743 41.8483C170.296 41.8483 168.98 42.2869 167.753 43.1195V43.2077C168.542 42.9005 169.419 42.5059 170.91 42.5059C172.269 42.5059 173.409 43.2511 174.549 44.5671L175.427 43.8653C174.33 42.5941 173.014 41.8483 171.743 41.8483ZM177.092 37.6386C175.997 36.9368 175.733 36.1917 175.733 34.3062V33.5163L168.454 41.9351L168.498 41.9785C169.901 41.1459 171.173 40.5323 173.234 40.5323C174.988 40.5323 176.172 41.2334 177.531 42.3738C178.364 41.672 178.934 40.971 178.934 39.8746C178.934 38.998 178.188 38.3403 177.092 37.6386ZM175.733 20.9325L172.094 18.0828L172.005 18.1703V31.6314L174.812 33.8241L175.733 32.7718V20.9325ZM178.408 37.0249C177.267 36.1476 177.136 35.4025 177.136 33.517V20.1874L173.452 17.2055L172.62 17.7757L176.215 20.6254V34.1306C176.215 36.0161 176.303 36.5429 177.487 37.3314C178.539 38.0332 179.372 38.7783 179.372 39.7872C179.372 40.0496 179.329 40.4882 179.329 40.4882L179.372 40.5323C179.592 40.3126 179.855 39.9621 179.855 39.3919C179.855 38.4278 179.373 37.7701 178.408 37.0249ZM188.932 37.3314L184.898 34.1746L184.064 35.0954L183.714 34.7442L184.678 33.6919V18.3452H182.135L182.047 18.2578L183.582 15.977H184.677V13.0399L189.326 8.08499L189.413 8.17311V15.9776H192.921L193.009 16.0658L191.474 18.3459H189.413V31.6321L191.826 33.4742L192.746 32.4653L193.097 32.8159L188.932 37.3314ZM186.081 12.2941L185.161 13.3029V15.9776H186.081V12.2941ZM186.081 33.2539V18.3452H185.161V33.78L188.888 36.6744L189.545 35.9727L186.081 33.2539ZM207.435 19.6172V31.8945L200.025 37.3755L194.456 33.1664L193.798 33.9116L193.447 33.5604L194.237 32.6837V20.6694L201.998 15.1003L207.172 19.1351L208.005 18.2578L208.356 18.6083L207.435 19.6172ZM195.641 32.2457V20.2748L194.719 20.9325V32.7278L199.981 36.7619L200.815 36.1483L195.641 32.2457ZM202.7 21.064L199.016 18.1697L198.973 18.2137V31.2802L202.7 34.0865V21.064ZM204.104 20.2748L200.025 17.1174L199.193 17.731L203.183 20.8003V34.4377L204.104 33.7366V20.2748ZM224.186 37.3314L220.371 33.8675V21.064L218.047 18.9595L216.819 20.2748V32.1135L218.178 33.3848V33.5604L214.583 37.3314L210.505 33.6044V33.4729L212.084 31.807V20.7569L210.023 18.8714L209.189 19.7921L208.839 19.4416L212.829 15.1003L216.819 18.6524V19.5291L220.985 15.1003L224.887 18.6083L225.764 17.6876L226.158 18.0381L225.106 19.1345V31.6748L227.079 33.5163L228.044 32.464L228.394 32.8146L224.186 37.3314ZM212.609 33.517V33.4295C212.609 33.517 213.486 32.5522 213.486 32.5522V20.0986L210.987 17.8185L210.374 18.4761L212.566 20.4932V32.0688L211.207 33.4723V33.5597L214.583 36.6291L215.285 35.8839L212.609 33.517ZM221.774 33.1664V20.3189L219.056 17.8632L218.354 18.6083L220.853 20.8444V33.6044L224.141 36.6738L224.843 35.928L221.774 33.1664ZM251.274 37.3314C250.046 36.0161 249.608 35.5774 248.161 35.1828V43.7772L248.073 43.8206L246.319 42.2416L241.232 46.9334L241.144 46.89V35.0954C239.61 35.4459 237.987 36.2357 236.408 37.8135L236.321 37.7701C236.628 34.3936 238.294 31.8945 241.143 30.9297V22.3794H240.223C238.951 22.3794 238.25 23.037 237.636 24.2208H237.505C237.373 23.8269 237.285 23.212 237.285 22.2044C237.285 20.3623 238.644 18.4334 240.881 18.4334H241.143V13.6975L239.346 12.0751L238.469 12.9524L238.162 12.6452L242.59 7.95346L246.712 11.7245V15.7146L247.677 14.6623V9.61933H248.159V14.2237L253.99 7.95281L258.945 12.4697V31.544L251.274 37.3314ZM241.145 33.4729C239.348 33.8234 238.077 34.9198 237.243 36.3666L237.287 36.4548C238.515 35.4025 239.655 34.9204 241.145 34.5692V33.4729ZM242.549 20.8891H240.137C238.471 20.8891 237.813 21.9414 237.77 23.1692L237.813 23.2126C238.339 22.3353 238.865 22.0288 239.918 21.898H241.628V45.7949L242.549 44.9176V20.8891ZM242.549 12.9958L240.356 10.9794L239.655 11.7245L241.628 13.4779V18.4327H242.549V12.9958ZM247.679 15.4949L246.715 16.5038V41.8923L247.679 42.7697V15.4949ZM253.423 14.4867L250.836 12.1191L248.161 15.0135V30.4476C250.442 30.6673 252.02 31.325 253.379 32.8152L253.423 32.7718V14.4867ZM248.161 33.4729V34.6133C249.652 34.9638 250.266 35.4025 251.318 36.6297L252.327 35.8405C251.274 34.5252 250.222 33.7366 248.161 33.4729ZM254.826 13.7856L251.844 11.0228L251.143 11.7679L253.905 14.3111V34.7008L254.826 33.999V13.7856ZM274.251 19.6172V31.8945L266.84 37.3755L261.271 33.1664L260.613 33.9116L260.262 33.5604L261.052 32.6837V20.6694L268.813 15.1003L273.987 19.1351L274.82 18.2578L275.171 18.6083L274.251 19.6172ZM262.456 32.2457V20.2748L261.534 20.9325V32.7278L266.796 36.7619L267.63 36.1483L262.456 32.2457ZM269.515 21.064L265.832 18.1697L265.788 18.2137V31.2802L269.515 34.0865V21.064ZM270.919 20.2748L266.84 17.1174L266.008 17.731L269.998 20.8003V34.4377L270.919 33.7366V20.2748ZM284.423 23.037H288.94V32.4206L281.968 37.3314C281.047 36.2792 279.732 35.534 278.11 35.534C276.794 35.534 275.742 35.9727 274.339 37.1565L274.12 37.0684L280.083 28.3865H276.399V20.2308L283.722 15.1444C284.599 15.8461 285.256 16.2401 286.397 16.2401C287.274 16.2401 288.545 16.0645 289.51 15.2759L289.686 15.3634L284.423 23.037ZM279.512 34.2621C278.241 34.2621 277.232 34.7008 276.356 35.3144V35.4025C277.057 35.0954 277.758 35.0079 278.417 35.0079C279.426 35.0079 281.003 35.4906 282.056 36.7185L283.064 35.9733C282.232 35.0079 281.223 34.2621 279.512 34.2621ZM284.205 26.8956H281.749L276.619 34.3068L276.663 34.3943C277.934 33.4735 279.162 32.8599 280.653 32.8599C281.968 32.8599 283.328 33.4735 284.161 34.5258L284.204 34.4824V26.8956H284.205ZM277.803 26.8956V19.8368L276.882 20.4945V27.861H280.433L281.135 26.8962H277.803V26.8956ZM286.967 18.3012C286.046 18.9595 285.52 19.31 283.985 19.31C283.107 19.31 282.055 18.9154 281.222 18.0381L281.134 18.0822V24.4839H282.8L287.01 18.3446L286.967 18.3012ZM284.862 17.9066C284.073 17.9066 283.064 17.5126 282.407 16.6353L281.31 17.3805C282.144 18.3893 282.933 18.8273 284.161 18.8273C284.95 18.8273 286.09 18.6077 287.274 17.5988L287.318 17.4679C286.572 17.7757 285.652 17.9066 284.862 17.9066ZM285.608 25.4494H282.758L282.1 26.3701H284.687V34.8764L285.608 34.2187V25.4494ZM296.219 37.3314L292.185 34.1746L291.352 35.0954L291.001 34.7442L291.965 33.6919V18.3452H289.422L289.335 18.2578L290.869 15.977H291.965V13.0399L296.613 8.08499L296.701 8.17311V15.9776H300.208L300.297 16.0658L298.762 18.3459H296.701V31.6321L299.113 33.4742L300.034 32.4653L300.384 32.8159L296.219 37.3314ZM293.369 12.2941L292.448 13.3029V15.9776H293.369V12.2941ZM293.369 33.2539V18.3452H292.448V33.78L296.175 36.6744L296.833 35.9727L293.369 33.2539Z" fill="#322F37"/>
</g>
<defs>
<clipPath id="clip0_454_224">
<rect width="300" height="46.6523" fill="white" transform="translate(0.527222 0.459229)"/>
</clipPath>
</defs>
</svg>
