<svg width="1440" height="548" viewBox="0 0 1440 548" fill="none" xmlns="http://www.w3.org/2000/svg">
<path d="M-2.9707 27.4258L1631.26 446.257L1462.4 548.007H-2.9707V27.4258Z" fill="#172424"/>
<g filter="url(#filter0_d_433_1656)">
<rect x="112" y="6" width="1216" height="349.341" rx="24" fill="white" shape-rendering="crispEdges"/>
<path d="M578.223 70L571.768 46.7273H575.462L579.996 64.75H580.212L584.928 46.7273H588.587L593.303 64.7614H593.518L598.041 46.7273H601.746L595.28 70H591.746L586.848 52.5682H586.666L581.768 70H578.223ZM604.675 70V52.5455H608.072V70H604.675ZM606.391 49.8523C605.8 49.8523 605.292 49.6553 604.868 49.2614C604.451 48.8598 604.243 48.3826 604.243 47.8295C604.243 47.2689 604.451 46.7917 604.868 46.3977C605.292 45.9962 605.8 45.7955 606.391 45.7955C606.982 45.7955 607.485 45.9962 607.902 46.3977C608.326 46.7917 608.538 47.2689 608.538 47.8295C608.538 48.3826 608.326 48.8598 607.902 49.2614C607.485 49.6553 606.982 49.8523 606.391 49.8523ZM620.791 52.5455V55.2727H611.257V52.5455H620.791ZM613.814 48.3636H617.212V64.875C617.212 65.5341 617.31 66.0303 617.507 66.3636C617.704 66.6894 617.958 66.9129 618.268 67.0341C618.587 67.1477 618.931 67.2045 619.303 67.2045C619.575 67.2045 619.814 67.1856 620.018 67.1477C620.223 67.1098 620.382 67.0795 620.496 67.0568L621.109 69.8636C620.912 69.9394 620.632 70.0152 620.268 70.0909C619.905 70.1742 619.45 70.2197 618.905 70.2273C618.011 70.2424 617.178 70.0833 616.405 69.75C615.632 69.4167 615.007 68.9015 614.53 68.2045C614.053 67.5076 613.814 66.6326 613.814 65.5795V48.3636ZM628.322 59.6364V70H624.925V46.7273H628.277V55.3864H628.493C628.902 54.447 629.527 53.7008 630.368 53.1477C631.209 52.5947 632.307 52.3182 633.663 52.3182C634.86 52.3182 635.906 52.5644 636.8 53.0568C637.701 53.5492 638.398 54.2841 638.891 55.2614C639.391 56.2311 639.641 57.4432 639.641 58.8977V70H636.243V59.3068C636.243 58.0265 635.913 57.0341 635.254 56.3295C634.595 55.6174 633.679 55.2614 632.504 55.2614C631.701 55.2614 630.982 55.4318 630.345 55.7727C629.716 56.1136 629.22 56.6136 628.857 57.2727C628.5 57.9242 628.322 58.7121 628.322 59.6364ZM660.791 52.5455V55.2727H651.257V52.5455H660.791ZM653.814 48.3636H657.212V64.875C657.212 65.5341 657.31 66.0303 657.507 66.3636C657.704 66.6894 657.958 66.9129 658.268 67.0341C658.587 67.1477 658.931 67.2045 659.303 67.2045C659.575 67.2045 659.814 67.1856 660.018 67.1477C660.223 67.1098 660.382 67.0795 660.496 67.0568L661.109 69.8636C660.912 69.9394 660.632 70.0152 660.268 70.0909C659.905 70.1742 659.45 70.2197 658.905 70.2273C658.011 70.2424 657.178 70.0833 656.405 69.75C655.632 69.4167 655.007 68.9015 654.53 68.2045C654.053 67.5076 653.814 66.6326 653.814 65.5795V48.3636ZM668.322 59.6364V70H664.925V46.7273H668.277V55.3864H668.493C668.902 54.447 669.527 53.7008 670.368 53.1477C671.209 52.5947 672.307 52.3182 673.663 52.3182C674.86 52.3182 675.906 52.5644 676.8 53.0568C677.701 53.5492 678.398 54.2841 678.891 55.2614C679.391 56.2311 679.641 57.4432 679.641 58.8977V70H676.243V59.3068C676.243 58.0265 675.913 57.0341 675.254 56.3295C674.595 55.6174 673.679 55.2614 672.504 55.2614C671.701 55.2614 670.982 55.4318 670.345 55.7727C669.716 56.1136 669.22 56.6136 668.857 57.2727C668.5 57.9242 668.322 58.7121 668.322 59.6364ZM691.697 70.3523C689.978 70.3523 688.497 69.9848 687.254 69.25C686.019 68.5076 685.065 67.4659 684.391 66.125C683.724 64.7765 683.391 63.197 683.391 61.3864C683.391 59.5985 683.724 58.0227 684.391 56.6591C685.065 55.2955 686.004 54.2311 687.209 53.4659C688.421 52.7008 689.838 52.3182 691.459 52.3182C692.444 52.3182 693.398 52.4811 694.322 52.8068C695.247 53.1326 696.076 53.6439 696.811 54.3409C697.546 55.0379 698.125 55.9432 698.55 57.0568C698.974 58.1629 699.186 59.5076 699.186 61.0909V62.2955H685.311V59.75H695.857C695.857 58.8561 695.675 58.0644 695.311 57.375C694.947 56.678 694.436 56.1288 693.777 55.7273C693.125 55.3258 692.36 55.125 691.482 55.125C690.527 55.125 689.694 55.3598 688.982 55.8295C688.277 56.2917 687.732 56.8977 687.345 57.6477C686.966 58.3902 686.777 59.197 686.777 60.0682V62.0568C686.777 63.2235 686.982 64.2159 687.391 65.0341C687.807 65.8523 688.387 66.4773 689.129 66.9091C689.872 67.3333 690.739 67.5455 691.732 67.5455C692.375 67.5455 692.963 67.4545 693.493 67.2727C694.023 67.0833 694.482 66.803 694.868 66.4318C695.254 66.0606 695.55 65.6023 695.754 65.0568L698.97 65.6364C698.713 66.5833 698.25 67.4129 697.584 68.125C696.925 68.8295 696.095 69.3788 695.095 69.7727C694.103 70.1591 692.97 70.3523 691.697 70.3523ZM724.504 56.8068L721.425 57.3523C721.296 56.9583 721.091 56.5833 720.811 56.2273C720.538 55.8712 720.167 55.5795 719.697 55.3523C719.228 55.125 718.641 55.0114 717.936 55.0114C716.974 55.0114 716.171 55.2273 715.527 55.6591C714.883 56.0833 714.561 56.6326 714.561 57.3068C714.561 57.8902 714.777 58.3598 715.209 58.7159C715.641 59.072 716.338 59.3636 717.3 59.5909L720.072 60.2273C721.679 60.5985 722.875 61.1705 723.663 61.9432C724.451 62.7159 724.845 63.7197 724.845 64.9545C724.845 66 724.542 66.9318 723.936 67.75C723.338 68.5606 722.5 69.197 721.425 69.6591C720.357 70.1212 719.118 70.3523 717.709 70.3523C715.754 70.3523 714.16 69.9356 712.925 69.1023C711.69 68.2614 710.932 67.0682 710.652 65.5227L713.936 65.0227C714.141 65.8788 714.561 66.5265 715.197 66.9659C715.834 67.3977 716.663 67.6136 717.686 67.6136C718.8 67.6136 719.69 67.3826 720.357 66.9205C721.023 66.4508 721.357 65.8788 721.357 65.2045C721.357 64.6591 721.152 64.2008 720.743 63.8295C720.341 63.4583 719.724 63.178 718.891 62.9886L715.936 62.3409C714.307 61.9697 713.103 61.3788 712.322 60.5682C711.55 59.7576 711.163 58.7311 711.163 57.4886C711.163 56.4583 711.451 55.5568 712.027 54.7841C712.603 54.0114 713.398 53.4091 714.413 52.9773C715.429 52.5379 716.591 52.3182 717.902 52.3182C719.788 52.3182 721.273 52.7273 722.357 53.5455C723.44 54.3561 724.156 55.4432 724.504 56.8068ZM739.638 62.7614V52.5455H743.047V70H739.706V66.9773H739.524C739.123 67.9091 738.479 68.6856 737.592 69.3068C736.714 69.9205 735.619 70.2273 734.308 70.2273C733.187 70.2273 732.195 69.9811 731.331 69.4886C730.475 68.9886 729.801 68.25 729.308 67.2727C728.823 66.2955 728.581 65.0871 728.581 63.6477V52.5455H731.979V63.2386C731.979 64.428 732.308 65.375 732.967 66.0795C733.626 66.7841 734.482 67.1364 735.536 67.1364C736.172 67.1364 736.804 66.9773 737.433 66.6591C738.07 66.3409 738.596 65.8598 739.013 65.2159C739.437 64.572 739.645 63.7538 739.638 62.7614ZM747.612 76.5455V52.5455H750.93V55.375H751.214C751.411 55.0114 751.696 54.5909 752.067 54.1136C752.438 53.6364 752.953 53.2197 753.612 52.8636C754.271 52.5 755.143 52.3182 756.226 52.3182C757.635 52.3182 758.893 52.6742 759.999 53.3864C761.105 54.0985 761.972 55.125 762.601 56.4659C763.237 57.8068 763.555 59.4205 763.555 61.3068C763.555 63.1932 763.241 64.8106 762.612 66.1591C761.983 67.5 761.12 68.5341 760.021 69.2614C758.923 69.9811 757.669 70.3409 756.26 70.3409C755.199 70.3409 754.332 70.1629 753.658 69.8068C752.991 69.4508 752.468 69.0341 752.089 68.5568C751.711 68.0795 751.419 67.6553 751.214 67.2841H751.01V76.5455H747.612ZM750.942 61.2727C750.942 62.5 751.12 63.5758 751.476 64.5C751.832 65.4242 752.347 66.1477 753.021 66.6705C753.696 67.1856 754.521 67.4432 755.499 67.4432C756.514 67.4432 757.362 67.1742 758.044 66.6364C758.726 66.0909 759.241 65.3523 759.589 64.4205C759.946 63.4886 760.124 62.4394 760.124 61.2727C760.124 60.1212 759.949 59.0871 759.601 58.1705C759.26 57.2538 758.745 56.5303 758.055 56C757.374 55.4697 756.521 55.2045 755.499 55.2045C754.514 55.2045 753.68 55.4583 752.999 55.9659C752.324 56.4735 751.813 57.1818 751.464 58.0909C751.116 59 750.942 60.0606 750.942 61.2727ZM767.362 76.5455V52.5455H770.68V55.375H770.964C771.161 55.0114 771.446 54.5909 771.817 54.1136C772.188 53.6364 772.703 53.2197 773.362 52.8636C774.021 52.5 774.893 52.3182 775.976 52.3182C777.385 52.3182 778.643 52.6742 779.749 53.3864C780.855 54.0985 781.722 55.125 782.351 56.4659C782.987 57.8068 783.305 59.4205 783.305 61.3068C783.305 63.1932 782.991 64.8106 782.362 66.1591C781.733 67.5 780.87 68.5341 779.771 69.2614C778.673 69.9811 777.419 70.3409 776.01 70.3409C774.949 70.3409 774.082 70.1629 773.408 69.8068C772.741 69.4508 772.218 69.0341 771.839 68.5568C771.461 68.0795 771.169 67.6553 770.964 67.2841H770.76V76.5455H767.362ZM770.692 61.2727C770.692 62.5 770.87 63.5758 771.226 64.5C771.582 65.4242 772.097 66.1477 772.771 66.6705C773.446 67.1856 774.271 67.4432 775.249 67.4432C776.264 67.4432 777.112 67.1742 777.794 66.6364C778.476 66.0909 778.991 65.3523 779.339 64.4205C779.696 63.4886 779.874 62.4394 779.874 61.2727C779.874 60.1212 779.699 59.0871 779.351 58.1705C779.01 57.2538 778.495 56.5303 777.805 56C777.124 55.4697 776.271 55.2045 775.249 55.2045C774.264 55.2045 773.43 55.4583 772.749 55.9659C772.074 56.4735 771.563 57.1818 771.214 58.0909C770.866 59 770.692 60.0606 770.692 61.2727ZM794.464 70.3523C792.828 70.3523 791.4 69.9773 790.18 69.2273C788.961 68.4773 788.014 67.428 787.339 66.0795C786.665 64.7311 786.328 63.1553 786.328 61.3523C786.328 59.5417 786.665 57.9583 787.339 56.6023C788.014 55.2462 788.961 54.1932 790.18 53.4432C791.4 52.6932 792.828 52.3182 794.464 52.3182C796.101 52.3182 797.529 52.6932 798.749 53.4432C799.968 54.1932 800.915 55.2462 801.589 56.6023C802.264 57.9583 802.601 59.5417 802.601 61.3523C802.601 63.1553 802.264 64.7311 801.589 66.0795C800.915 67.428 799.968 68.4773 798.749 69.2273C797.529 69.9773 796.101 70.3523 794.464 70.3523ZM794.476 67.5C795.536 67.5 796.415 67.2197 797.112 66.6591C797.809 66.0985 798.324 65.3523 798.658 64.4205C798.999 63.4886 799.169 62.4621 799.169 61.3409C799.169 60.2273 798.999 59.2045 798.658 58.2727C798.324 57.3333 797.809 56.5795 797.112 56.0114C796.415 55.4432 795.536 55.1591 794.476 55.1591C793.408 55.1591 792.521 55.4432 791.817 56.0114C791.12 56.5795 790.601 57.3333 790.26 58.2727C789.927 59.2045 789.76 60.2273 789.76 61.3409C789.76 62.4621 789.927 63.4886 790.26 64.4205C790.601 65.3523 791.12 66.0985 791.817 66.6591C792.521 67.2197 793.408 67.5 794.476 67.5ZM806.393 70V52.5455H809.678V55.3182H809.859C810.178 54.3788 810.738 53.6402 811.541 53.1023C812.352 52.5568 813.268 52.2841 814.291 52.2841C814.503 52.2841 814.753 52.2917 815.041 52.3068C815.337 52.322 815.568 52.3409 815.734 52.3636V55.6136C815.598 55.5758 815.356 55.5341 815.007 55.4886C814.659 55.4356 814.31 55.4091 813.962 55.4091C813.159 55.4091 812.443 55.5795 811.814 55.9205C811.193 56.2538 810.7 56.7197 810.337 57.3182C809.973 57.9091 809.791 58.5833 809.791 59.3409V70H806.393ZM827.854 52.5455V55.2727H818.32V52.5455H827.854ZM820.876 48.3636H824.274V64.875C824.274 65.5341 824.373 66.0303 824.57 66.3636C824.767 66.6894 825.02 66.9129 825.331 67.0341C825.649 67.1477 825.994 67.2045 826.365 67.2045C826.638 67.2045 826.876 67.1856 827.081 67.1477C827.286 67.1098 827.445 67.0795 827.558 67.0568L828.172 69.8636C827.975 69.9394 827.695 70.0152 827.331 70.0909C826.967 70.1742 826.513 70.2197 825.967 70.2273C825.073 70.2424 824.24 70.0833 823.467 69.75C822.695 69.4167 822.07 68.9015 821.592 68.2045C821.115 67.5076 820.876 66.6326 820.876 65.5795V48.3636ZM847.433 70.3523C845.797 70.3523 844.369 69.9773 843.149 69.2273C841.929 68.4773 840.982 67.428 840.308 66.0795C839.634 64.7311 839.297 63.1553 839.297 61.3523C839.297 59.5417 839.634 57.9583 840.308 56.6023C840.982 55.2462 841.929 54.1932 843.149 53.4432C844.369 52.6932 845.797 52.3182 847.433 52.3182C849.07 52.3182 850.498 52.6932 851.717 53.4432C852.937 54.1932 853.884 55.2462 854.558 56.6023C855.232 57.9583 855.57 59.5417 855.57 61.3523C855.57 63.1553 855.232 64.7311 854.558 66.0795C853.884 67.428 852.937 68.4773 851.717 69.2273C850.498 69.9773 849.07 70.3523 847.433 70.3523ZM847.445 67.5C848.505 67.5 849.384 67.2197 850.081 66.6591C850.778 66.0985 851.293 65.3523 851.626 64.4205C851.967 63.4886 852.138 62.4621 852.138 61.3409C852.138 60.2273 851.967 59.2045 851.626 58.2727C851.293 57.3333 850.778 56.5795 850.081 56.0114C849.384 55.4432 848.505 55.1591 847.445 55.1591C846.376 55.1591 845.49 55.4432 844.786 56.0114C844.089 56.5795 843.57 57.3333 843.229 58.2727C842.895 59.2045 842.729 60.2273 842.729 61.3409C842.729 62.4621 842.895 63.4886 843.229 64.4205C843.57 65.3523 844.089 66.0985 844.786 66.6591C845.49 67.2197 846.376 67.5 847.445 67.5ZM867.669 52.5455V55.2727H857.805V52.5455H867.669ZM860.51 70V50.5227C860.51 49.4318 860.749 48.5265 861.226 47.8068C861.703 47.0795 862.336 46.5379 863.124 46.1818C863.911 45.8182 864.768 45.6364 865.692 45.6364C866.374 45.6364 866.957 45.6932 867.442 45.8068C867.927 45.9129 868.286 46.0114 868.521 46.1023L867.726 48.8523C867.567 48.8068 867.362 48.7538 867.112 48.6932C866.862 48.625 866.559 48.5909 866.203 48.5909C865.377 48.5909 864.786 48.7955 864.43 49.2045C864.082 49.6136 863.908 50.2045 863.908 50.9773V70H860.51Z" fill="#646464"/>
<rect width="185.145" height="51.5708" transform="translate(161.473 128)" fill="#646464"/>
<path d="M210.331 147.015H208.568V163.732H205.263L197.22 152.347V160.017H198.983V163.732H191.545V160.017H193.308V147.015H191.545V143.3H197.22L204.712 153.905V147.015H202.949V143.3H210.386C210.331 143.3 210.331 147.015 210.331 147.015ZM222.121 156.542C222.121 156.841 222.121 157.141 222.121 157.5H213.912C213.692 160.376 214.683 161.215 216.171 161.215C217.438 161.215 218.374 160.316 218.374 158.878H221.9C221.845 161.395 220.633 164.271 215.95 164.271C211.323 164.271 209.174 160.616 209.174 156.542C209.174 152.887 211.378 148.992 215.895 148.992C220.192 148.992 222.121 152.287 222.121 156.542ZM242.394 152.887H241.182L238.152 163.971H234.13L232.257 157.92L230.549 163.971H226.473L223.112 152.887H221.9V149.112H229.007V152.887H227.244L229.117 158.759L231.541 149.112H233.745L236.719 158.759L238.317 152.887H236.554V149.112H242.504C242.394 149.112 242.394 152.887 242.394 152.887ZM247.407 153.006C247.407 153.546 247.793 153.905 249.115 154.325L251.043 154.984C252.806 155.643 254.954 157.021 254.954 159.657C254.954 162.713 252.861 164.211 250.217 164.211C248.123 164.211 246.526 163.133 246.085 162.593V163.852H242.614V158.699H246.03C246.14 160.376 247.517 161.275 248.729 161.275C249.721 161.275 250.217 160.796 250.217 160.257C250.217 159.597 249.831 159.178 248.123 158.579L246.415 157.98C244.708 157.381 242.779 156.002 242.779 153.486C242.779 150.43 245.258 148.932 247.352 148.932C249.556 148.932 250.602 149.591 251.153 150.25V149.112H254.624V153.726H251.043C250.988 152.467 249.886 151.928 248.729 151.928C247.793 151.988 247.407 152.407 247.407 153.006ZM275.723 152.887H274.511L271.482 163.971H267.46L265.587 157.92L263.879 163.971H259.802L256.442 152.887H255.23V149.112H262.337V152.887H260.574L262.447 158.759L264.816 149.112H267.019L269.994 158.759L271.592 152.887H269.774V149.112H275.723V152.887ZM288.284 156.542C288.284 156.841 288.284 157.141 288.284 157.5H280.131C279.91 160.376 280.902 161.215 282.389 161.215C283.656 161.215 284.593 160.316 284.593 158.878H288.119C288.064 161.395 286.797 164.271 282.169 164.271C277.486 164.271 275.338 160.616 275.338 156.542C275.338 152.887 277.597 148.992 282.114 148.992C286.411 148.992 288.284 152.228 288.284 156.542ZM301.726 156.482C301.726 156.781 301.726 157.081 301.726 157.44H293.573C293.352 160.316 294.344 161.155 295.831 161.155C297.099 161.155 298.035 160.257 298.035 158.819H301.561C301.506 161.335 300.239 164.211 295.611 164.211C290.928 164.211 288.78 160.556 288.78 156.482C288.78 152.827 291.039 148.932 295.556 148.932C299.853 148.932 301.726 152.168 301.726 156.482ZM316.545 163.912H312.469L308.227 157.86L306.85 158.998V160.197H308.062V163.971H301.726V160.257H302.938V147.075H301.175V143.3H306.85V155.164L309.714 152.887H307.951V149.112H315.499V152.887H314.287L311.312 155.283L314.727 160.137H316.49C316.545 160.197 316.545 163.912 316.545 163.912ZM293.573 155.044H298.035C298.035 152.947 296.768 152.108 295.887 152.108C294.785 152.108 293.628 153.066 293.573 155.044ZM280.131 155.044H284.593C284.593 152.947 283.326 152.108 282.389 152.108C281.343 152.168 280.186 153.126 280.131 155.044ZM213.967 155.104H218.43C218.43 153.006 217.162 152.168 216.226 152.168C215.124 152.168 214.022 153.126 213.967 155.104Z" fill="white"/>
<g clip-path="url(#clip0_433_1656)">
<path d="M627.461 131.843H447.684V168.147H627.461V131.843Z" fill="#1E1E1E"/>
<path d="M638.071 167.242H446.122V169.14H638.071V167.242Z" fill="white"/>
<path d="M627.461 169.204H447.684V175.901H627.461V169.204Z" fill="#646464"/>
<path d="M626.744 132.555V175.016H448.402V132.555H626.744ZM628.527 130.785H626.744H448.402H446.618V132.555V175.016V176.785H448.402H626.744H628.527V175.016V132.555V130.785Z" fill="white"/>
<path d="M496.617 140.661C503.371 140.661 506.544 142.996 507.906 146.379C508.25 147.26 508.521 148.271 508.521 148.949H502.45C502.45 148.646 502.28 148.039 502.074 147.631C501.359 146.142 499.891 145.365 496.481 145.365C492.014 145.365 491.126 146.345 491.126 147.868C491.126 149.831 492.731 150.608 497.131 151.488C498.491 151.757 500.266 152.131 500.881 152.233C506.238 153.249 509.033 155.448 509.033 160.019C509.033 160.823 508.917 161.578 508.704 162.287H512.952V167.732H507.692V164.319C505.962 166.677 502.554 168.103 497.435 168.103C489.284 168.103 486.351 165.667 485.264 162.282C484.986 161.405 484.884 160.084 484.884 159.544H490.955C490.955 160.019 491.126 160.831 491.331 161.236C492.082 162.792 493.856 163.466 497.435 163.466C501.53 163.466 502.962 162.352 502.962 160.592C502.962 158.391 501.833 157.616 497.473 156.804C496.687 156.667 494.709 156.292 493.516 156.057C488.261 155.076 485.023 152.675 485.023 148.241C485.023 143.704 488.705 140.662 496.617 140.661ZM606.816 147.513C612.269 147.513 615.707 148.911 616.718 151.74C616.97 152.497 617.08 153.711 617.08 154.106H611.479C611.478 153.891 611.402 153.284 611.225 153.033C610.826 152.498 609.779 152.028 607.034 152.028C603.853 152.028 602.91 152.534 602.91 153.463C602.91 154.323 603.529 154.644 606.347 155.076C607.503 155.251 610.286 155.649 610.971 155.756C615.739 156.474 617.838 158.231 617.838 161.923C617.838 166.009 614.73 168.088 607.865 168.088C601.141 168.088 597.962 166.764 597.13 163.537C596.951 162.75 596.916 162.21 596.916 161.564H602.661C602.661 161.816 602.695 162.174 602.84 162.57C603.203 163.501 604.72 163.751 607.864 163.751C611.152 163.751 612.165 163.177 612.165 162.031C612.165 160.917 610.97 160.669 608.043 160.239C607.286 160.131 604.9 159.772 603.709 159.592C599.336 158.984 597.241 157.084 597.241 153.316C597.241 149.807 600.418 147.513 606.816 147.513ZM463.204 158.799C463.204 161.61 465.321 163.264 469.175 163.264C472.55 163.264 474.937 161.61 474.938 158.834V141.001H480.836V159.643C480.836 160.609 480.69 161.489 480.418 162.287H484.621V167.732H479.359V164.269C477.409 166.812 473.673 168.071 469.037 168.071C462.32 168.07 457.308 165.569 457.308 159.304V141.001H463.204V158.799ZM550.641 147.547C555.193 147.547 558.304 149.194 560.071 151.741C561.553 153.892 562.095 156.727 561.771 159.698H544.93C544.93 160.6 545.329 161.279 546.013 162.032C546.849 162.929 548.473 163.5 550.641 163.5C552.267 163.5 553.459 163.214 554.293 162.855C555.338 162.389 555.845 161.746 555.951 161.314H561.625C561.158 163.214 560.002 165.003 558.017 166.263C556.28 167.372 553.856 168.053 550.641 168.053C546.229 168.053 542.653 166.764 540.739 163.751C539.761 162.21 539.219 160.239 539.219 157.763C539.219 155.504 539.836 153.497 540.954 151.92C542.87 149.159 546.303 147.547 550.641 147.547ZM531.982 158.222V141.001H537.609V167.732H531.233L520.387 149.627V167.732H514.76V141.001H521.614L531.982 158.222ZM571.625 162.674L575.997 148.014H582.427L586.91 162.674L591.569 148.014H597.248L590.057 167.732H583.229C583.214 167.691 579.322 156.405 579.252 155.756C579.214 155.504 578.994 154.335 578.994 154.335C578.992 154.345 578.782 155.505 578.745 155.72C578.709 156.407 574.816 167.703 574.806 167.732H567.934L560.82 148.014H566.855L571.625 162.674ZM550.676 152.168C548.619 152.168 547.1 152.709 546.123 153.57C545.48 154.141 544.962 155.215 544.899 155.822L544.894 155.936H556.021C556.021 155.36 555.774 154.43 555.053 153.677C554.219 152.853 552.846 152.168 550.676 152.168ZM558.926 140.892C560.969 140.892 561.811 141.832 561.812 143.627C561.811 145.513 560.907 146.442 558.926 146.442C556.939 146.442 556.037 145.483 556.037 143.648C556.037 141.934 556.923 140.892 558.926 140.892ZM602.862 140.892C604.901 140.892 605.746 141.832 605.746 143.627C605.746 145.513 604.841 146.442 602.862 146.442C600.872 146.442 599.969 145.483 599.97 143.648C599.97 141.934 600.856 140.892 602.862 140.892ZM542.61 140.934C543.641 140.934 544.243 141.526 544.281 142.178C544.288 142.227 544.281 142.375 544.281 142.411C544.263 143.092 543.737 143.565 543.197 143.897C543.441 144.094 543.753 144.37 544.064 144.624C544.242 144.401 544.342 144.116 544.357 143.809H545.876C545.85 144.483 545.574 145.065 545.141 145.475C545.501 145.739 545.911 146.051 546.303 146.361H544.242C544.152 146.297 544.065 146.223 543.988 146.156C543.57 146.328 543.012 146.414 542.497 146.414C541.21 146.414 540.051 146.181 540.004 145.197C539.999 145.112 540.004 144.987 540.004 144.918C540.018 144.307 540.603 143.926 541.244 143.627C540.929 143.185 540.809 142.817 540.8 142.492V142.22C540.829 141.56 541.482 140.934 542.61 140.934ZM565.975 140.99C566.695 140.99 567.163 141.195 567.437 141.553C567.647 141.824 567.749 142.185 567.749 142.688C567.749 143.12 567.654 143.462 567.51 143.7C567.339 143.987 567.095 144.155 566.845 144.21L568.111 146.361H566.251L565.3 144.543H564.18V146.362H562.547V140.99H565.975ZM585.472 140.99C586.193 140.99 586.661 141.195 586.935 141.553C587.145 141.824 587.246 142.185 587.246 142.688C587.246 143.12 587.15 143.462 587.008 143.7C586.839 143.987 586.59 144.155 586.341 144.21L587.608 146.361H585.752L584.796 144.543H583.678V146.362H582.046V140.99H585.472ZM597.486 140.99C598.139 140.99 598.604 141.133 598.9 141.439C599.217 141.71 599.388 142.173 599.388 142.84C599.388 143.436 599.257 143.858 598.987 144.143C598.676 144.503 598.157 144.675 597.492 144.689C597.288 144.692 595.823 144.68 595.823 144.68H595.822V146.362H594.154V140.99H597.486ZM609.925 140.99C610.642 140.99 611.116 141.195 611.391 141.553C611.598 141.824 611.704 142.185 611.704 142.688C611.704 143.12 611.607 143.462 611.468 143.7C611.293 143.987 611.051 144.155 610.797 144.21L612.062 146.361H610.207L609.252 144.543H608.132V146.362H606.498V140.99H609.925ZM549.402 140.99C549.417 141.047 550.229 144.308 550.229 144.476C550.229 144.308 551.017 141.048 551.031 140.99H552.734C552.75 141.052 553.556 144.308 553.556 144.476C553.556 144.308 554.353 141.053 554.369 140.99H555.977L554.458 146.361H552.647C552.641 146.334 551.839 143.272 551.816 143.092C551.805 143.279 550.987 146.328 550.979 146.361H549.182L547.631 140.99H549.402ZM570.57 145.032H573.17V146.361H568.895V140.99H570.57V145.032ZM576.969 140.99C577.947 140.99 578.557 141.227 578.892 141.689C579.224 142.145 579.289 142.593 579.289 143.571C579.289 144.716 579.207 145.136 578.907 145.581C578.582 146.077 578.022 146.361 577.049 146.361H573.998V140.99H576.969ZM593.063 142.254H590.091V143.033H592.954V144.31H590.091V145.109H593.093V146.361H588.461V140.99H593.063V142.254ZM617.328 142.281H615.597V146.361H613.909V142.281H612.191V140.99H617.328V142.281ZM542.034 144.528C541.787 144.666 541.614 144.813 541.614 144.964C541.615 145.223 541.857 145.322 542.421 145.323C542.574 145.322 542.76 145.303 542.895 145.269C542.584 145.004 542.262 144.756 542.034 144.528ZM558.926 142.162C558.043 142.162 557.727 142.586 557.728 143.665C557.728 144.804 558.143 145.183 558.935 145.183C559.696 145.183 560.138 144.862 560.138 143.665C560.138 142.601 559.844 142.162 558.926 142.162ZM602.862 142.162C601.974 142.162 601.662 142.586 601.662 143.665C601.662 144.804 602.073 145.183 602.863 145.183C603.628 145.183 604.07 144.862 604.07 143.665C604.07 142.601 603.78 142.162 602.862 142.162ZM575.646 145.092H576.69C577.113 145.092 577.337 145.004 577.523 144.786C577.664 144.615 577.68 144.007 577.68 143.571C577.68 143.185 577.641 142.688 577.509 142.535C577.298 142.306 577.1 142.245 576.69 142.245H575.646V145.092ZM595.804 143.477H597.104C597.419 143.477 597.574 143.373 597.652 143.225C597.706 143.128 597.721 143.027 597.721 142.87C597.721 142.703 597.698 142.565 597.647 142.492C597.555 142.322 597.398 142.239 597.125 142.239H595.804V143.477ZM564.195 143.349H565.629C565.832 143.349 566.006 143.302 566.067 143.169C566.109 143.074 566.131 142.931 566.131 142.824C566.131 142.704 566.118 142.558 566.071 142.479C565.992 142.306 565.833 142.254 565.593 142.254H564.195V143.349ZM583.693 143.349H585.123C585.325 143.349 585.504 143.302 585.565 143.169C585.607 143.074 585.625 142.931 585.625 142.824C585.625 142.704 585.614 142.558 585.572 142.479C585.488 142.306 585.325 142.254 585.087 142.254H583.693V143.349ZM608.146 143.349H609.576C609.779 143.349 609.96 143.302 610.02 143.169C610.059 143.074 610.079 142.931 610.079 142.824C610.079 142.704 610.067 142.558 610.025 142.479C609.943 142.306 609.78 142.254 609.543 142.254H608.146V143.349ZM542.594 142.083C542.354 142.084 542.253 142.246 542.23 142.436C542.224 142.479 542.224 142.536 542.23 142.58C542.239 142.729 542.316 142.9 542.45 143.074C542.726 142.912 542.92 142.734 542.938 142.526V142.416C542.929 142.239 542.843 142.083 542.594 142.083Z" fill="white"/>
</g>
<g clip-path="url(#clip1_433_1656)">
<path d="M745.721 145.188V161.412C747.913 160.229 749.448 158.167 750.193 155.843L750.369 155.931C749.886 161.72 745.94 167.507 739.802 167.507C733.619 167.507 729.059 162.903 729.059 155.536C729.059 150.012 732.654 146.547 737.258 143.434C736.586 143.257 735.893 143.169 735.197 143.171C732.04 143.171 730.198 145.319 730.198 147.512H729.935C729.891 147.205 729.891 146.898 729.891 146.591C729.891 142.689 731.952 137.953 736.951 137.953C740.152 137.953 742.608 140.891 746.335 140.891C747.826 140.891 749.667 140.189 750.412 138.566H750.544C750.5 141.417 749.624 144.355 745.721 145.188ZM748.089 161.807C745.896 164.131 743.529 166.104 740.459 166.104C734.759 166.104 730.375 161.631 730.375 155.142C730.375 151.327 731.953 149.267 733.707 146.854H733.531C732.435 147.951 729.541 150.713 729.541 155.405C729.541 162.596 734.058 167.025 739.977 167.025C744.099 167.025 746.905 164.175 748.177 161.851L748.089 161.807ZM749.842 140.541C749.097 141.944 747.519 143.741 744.318 143.741C741.117 143.741 738.179 141.548 735.592 141.548C733.224 141.548 731.602 143.127 730.988 144.311L731.032 144.399C731.865 143.566 733.136 142.733 735.197 142.733C738.617 142.733 740.81 144.838 744.274 144.838C747.957 144.838 749.623 142.426 749.93 140.585L749.842 140.541ZM737.652 143.566C735.416 145.89 733.355 148.433 733.355 153.388C733.355 156.106 734.276 158.913 736.337 160.667L737.608 160.008V148.258L736.424 148.871L736.205 148.433L742.344 145.1C740.678 144.75 739.187 144.005 737.652 143.566ZM745.239 145.276C744.931 145.319 744.625 145.319 744.274 145.319C743.66 145.319 743.09 145.276 742.52 145.144V157.947L736.776 161.062C737.959 161.939 739.406 162.465 741.248 162.465C742.739 162.465 744.054 162.158 745.238 161.631V145.276H745.239ZM738.924 147.513L738.091 147.995V159.747L738.924 159.308V147.513ZM764.137 149.179V164.35C764.137 168.559 760.41 171.41 756.245 172.243L756.157 172.067C758.218 171.058 759.402 168.998 759.402 166.805V151.107L757.034 148.96L756.114 149.968V162.202L757.429 163.385V163.474L753.878 167.332L749.8 163.605V163.429L751.378 161.763V142.382L756.026 137.428L756.114 137.471V149.223L759.929 145.101L763.919 148.697L764.664 147.907L765.015 148.215L764.137 149.179ZM751.86 163.517V163.429L752.781 162.508V141.636L751.86 142.602V162.07L750.456 163.474V163.561L753.876 166.63L754.49 165.929L751.86 163.517ZM760.805 150.406L757.954 147.951L757.341 148.608L759.884 150.889V166.674C759.884 167.727 759.665 168.822 759.27 169.437L759.315 169.481C760.411 168.691 760.805 167.507 760.805 165.973V150.406H760.805ZM771.109 157.992V160.228L775.362 163.56L777.818 160.93L778.169 161.28L772.469 167.375L766.681 162.727L765.804 163.648L765.453 163.297L766.462 162.245V151.152L774.749 145.1L779.091 152.116L771.109 157.992ZM767.864 161.851V150.713L766.943 151.371V162.29L772.381 166.718L773.083 165.973L767.864 161.851ZM771.197 148.345L771.109 148.389V157.378L775.012 154.528L771.197 148.345ZM772.337 147.469L771.548 148.038L775.407 154.221L776.196 153.651L772.337 147.469ZM807.672 167.331L801.577 162.069L796.929 167.331L790.615 161.894V153.3H789.387C788.291 153.3 787.721 154.002 787.458 154.834H787.326C787.186 154.29 787.113 153.731 787.107 153.169C787.107 152.028 787.414 149.047 790.615 149.047V141.505C790.615 140.058 788.905 139.488 788.905 137.558C788.905 135.06 791.273 132.604 795.614 131.068L795.789 131.2C794.211 132.121 793.378 132.998 793.378 134.883C793.378 137.778 796.184 137.032 796.184 141.592V143.346L801.315 137.953L806.708 143.258L811.794 137.953L816.705 142.776V159L807.672 167.331ZM792.018 161.193V151.941H789.563C788.291 151.941 787.721 152.774 787.633 153.52L787.677 153.564C788.115 153.082 788.554 152.819 789.562 152.819H791.096V161.676L796.885 166.675L797.542 165.885L792.018 161.193ZM792.018 141.066C792.018 139.269 790.44 138.655 790.44 137.515C790.44 135.936 791.054 134.621 792.018 133.393L791.931 133.35C790.616 134.359 789.388 135.981 789.388 137.559C789.388 139.138 791.098 139.883 791.098 141.287V149.048H792.018V141.066ZM801.27 145.452L797.938 142.207L796.184 144.004V159.526L800.174 162.903L801.27 161.675V145.452ZM802.673 161.105V144.838L798.946 141.154L798.245 141.856L801.753 145.232V161.587L807.672 166.718L808.374 166.06L802.673 161.105ZM811.18 144.881L808.418 142.25L806.84 143.872V159.483L811.137 163.253L811.18 163.21V144.881ZM812.583 144.268L809.382 141.154L808.724 141.856L811.662 144.662V162.991L812.583 162.114V144.268ZM831.215 167.331L827.049 163.56L823.322 167.331L818.762 163.297L818.148 163.955L817.797 163.604L818.586 162.771V151.021L826.83 145.057L831.566 148.74L832.399 147.863L832.75 148.214L831.786 149.223V161.369L834.109 163.517L834.855 162.728L835.205 163.035L831.215 167.331ZM819.99 162.465V150.625L819.069 151.283V162.903L823.279 166.674L823.98 165.973L819.99 162.465ZM827.049 150.933L823.454 148.126L823.322 148.214V160.974L826.304 163.56L827.049 162.815V150.933ZM828.453 162.859V150.275L824.726 147.249L823.849 147.863L827.532 150.757V163.297L831.215 166.63L831.873 165.928L828.453 162.859ZM843.975 153.037H848.491V162.421L841.519 167.331C840.598 166.279 839.282 165.534 837.661 165.534C836.345 165.534 835.292 165.973 833.889 167.156L833.67 167.068L839.634 158.387H835.951V150.231L843.274 145.144C844.15 145.846 844.808 146.24 845.948 146.24C846.826 146.24 848.097 146.064 849.062 145.276L849.237 145.363L843.975 153.037ZM839.064 164.262C837.792 164.262 836.784 164.701 835.907 165.314V165.402C836.608 165.095 837.31 165.008 837.968 165.008C838.976 165.008 840.555 165.491 841.607 166.718L842.616 165.973C841.782 165.008 840.774 164.262 839.064 164.262ZM843.755 156.896H841.299L836.169 164.307L836.213 164.394C837.484 163.474 838.712 162.86 840.203 162.86C841.518 162.86 842.878 163.474 843.711 164.526L843.755 164.482V156.896ZM837.353 156.896V149.837L836.433 150.494V157.861H839.984L840.686 156.896H837.353V156.896ZM846.518 148.301C845.597 148.96 845.071 149.31 843.536 149.31C842.659 149.31 841.607 148.915 840.774 148.038L840.686 148.082V154.484H842.352L846.562 148.345L846.518 148.301ZM844.413 147.907C843.624 147.907 842.616 147.513 841.958 146.635L840.861 147.38C841.695 148.389 842.484 148.827 843.711 148.827C844.5 148.827 845.641 148.608 846.824 147.599L846.868 147.468C846.123 147.776 845.203 147.907 844.413 147.907ZM845.159 155.449H842.308L841.651 156.37H844.238V164.876L845.159 164.219V155.449ZM863.619 149.179V164.35C863.619 168.559 859.892 171.41 855.726 172.243L855.639 172.067C857.7 171.058 858.883 168.998 858.883 166.805V151.107L856.516 148.96L855.595 149.968V162.202L856.91 163.385V163.474L853.359 167.332L849.281 163.605V163.429L850.86 161.763V142.382L855.508 137.428L855.595 137.471V149.223L859.41 145.101L863.4 148.697L864.145 147.907L864.497 148.215L863.619 149.179ZM851.341 163.517V163.429L852.262 162.508V141.636L851.341 142.601V162.069L849.938 163.473V163.56L853.358 166.63L853.971 165.928L851.341 163.517ZM860.286 150.406L857.436 147.951L856.822 148.608L859.366 150.889V166.674C859.366 167.727 859.146 168.822 858.752 169.437L858.796 169.481C859.892 168.691 860.287 167.507 860.287 165.973V150.406H860.286ZM871.599 167.331L867.828 163.868L866.951 164.788L866.6 164.437L867.609 163.341V150.669L865.767 148.915L865.066 149.705L864.714 149.354L868.66 145.057L872.168 148.214L873.046 147.25L873.44 147.557L872.344 148.74V161.545L874.449 163.518L875.414 162.509L875.764 162.86L871.599 167.331ZM869.012 163.035V149.968L866.732 147.863L866.118 148.565L868.091 150.45V163.474L871.599 166.63L872.257 165.929L869.012 163.035ZM870.327 144.706L866.732 141.418L870.021 137.91L873.616 141.198L870.327 144.706ZM868.091 140.716L867.434 141.373L870.283 144.048L870.941 143.303L868.091 140.716ZM890.14 167.331L886.325 163.868V151.064L884.001 148.96L882.773 150.275V162.114L884.133 163.385V163.56L880.537 167.331L876.459 163.604V163.473L878.038 161.807V150.757L875.977 148.871L875.144 149.792L874.793 149.442L878.783 145.1L882.773 148.652V149.529L886.939 145.1L890.841 148.608L891.718 147.688L892.113 148.038L891.061 149.134V161.675L893.034 163.516L893.998 162.464L894.349 162.815L890.14 167.331ZM878.564 163.517V163.429C878.564 163.517 879.442 162.552 879.442 162.552V150.099L876.942 147.818L876.327 148.476L878.52 150.493V162.069L877.161 163.472V163.56L880.537 166.629L881.238 165.884L878.564 163.517ZM887.728 163.166V150.319L885.01 147.863L884.308 148.608L886.807 150.844V163.604L890.096 166.674L890.797 165.928L887.728 163.166ZM902.505 175.224C901.059 173.646 900.05 172.988 898.691 172.988C897.244 172.988 895.577 173.558 893.867 174.479L893.736 174.348L899.787 167.332L895.49 163.912L894.657 164.79L894.306 164.482L895.27 163.43V151.021L903.602 145.057L908.249 148.74L909.039 147.863L909.39 148.214L908.469 149.223V164.219C908.469 166.499 909.74 166.412 909.74 168.121C909.74 170.094 906.89 171.936 902.505 175.224ZM896.674 163.078V150.669L895.753 151.328V163.474L900.094 166.982L900.752 166.192L896.674 163.078ZM899.743 171.848C898.296 171.848 896.98 172.287 895.753 173.12V173.208C896.542 172.901 897.419 172.506 898.91 172.506C900.269 172.506 901.409 173.251 902.549 174.567L903.427 173.865C902.33 172.594 901.014 171.848 899.743 171.848ZM905.092 167.639C903.997 166.937 903.733 166.192 903.733 164.306V163.516L896.454 171.935L896.498 171.979C897.901 171.146 899.173 170.532 901.234 170.532C902.988 170.532 904.172 171.233 905.531 172.374C906.364 171.672 906.934 170.971 906.934 169.875C906.934 168.998 906.188 168.34 905.092 167.639ZM903.733 150.933L900.094 148.083L900.005 148.17V161.631L902.812 163.824L903.733 162.772V150.933ZM906.408 167.025C905.267 166.148 905.136 165.402 905.136 163.517V150.187L901.452 147.206L900.62 147.776L904.215 150.625V164.131C904.215 166.016 904.303 166.543 905.487 167.331C906.539 168.033 907.372 168.778 907.372 169.787C907.372 170.05 907.329 170.488 907.329 170.488L907.372 170.532C907.592 170.313 907.855 169.962 907.855 169.392C907.855 168.428 907.373 167.77 906.408 167.025ZM916.932 167.331L912.898 164.175L912.064 165.095L911.714 164.744L912.678 163.692V148.345H910.135L910.047 148.258L911.582 145.977H912.677V143.04L917.326 138.085L917.413 138.173V145.978H920.921L921.009 146.066L919.474 148.346H917.413V161.632L919.826 163.474L920.746 162.465L921.097 162.816L916.932 167.331ZM914.081 142.294L913.161 143.303V145.978H914.081V142.294ZM914.081 163.254V148.345H913.161V163.78L916.888 166.674L917.545 165.973L914.081 163.254ZM935.435 149.617V161.894L928.025 167.375L922.456 163.166L921.798 163.912L921.447 163.56L922.237 162.684V150.669L929.998 145.1L935.172 149.135L936.005 148.258L936.356 148.608L935.435 149.617ZM923.641 162.246V150.275L922.719 150.933V162.728L927.981 166.762L928.815 166.148L923.641 162.246ZM930.7 151.064L927.016 148.17L926.973 148.214V161.28L930.7 164.087V151.064ZM932.104 150.275L928.025 147.117L927.193 147.731L931.183 150.8V164.438L932.104 163.737V150.275ZM952.186 167.331L948.371 163.868V151.064L946.047 148.96L944.819 150.275V162.114L946.178 163.385V163.56L942.583 167.331L938.505 163.604V163.473L940.084 161.807V150.757L938.023 148.871L937.189 149.792L936.839 149.442L940.829 145.1L944.819 148.652V149.529L948.985 145.1L952.887 148.608L953.764 147.688L954.158 148.038L953.106 149.134V161.675L955.079 163.516L956.044 162.464L956.394 162.815L952.186 167.331ZM940.609 163.517V163.429C940.609 163.517 941.486 162.552 941.486 162.552V150.099L938.987 147.818L938.374 148.476L940.566 150.493V162.069L939.207 163.472V163.56L942.583 166.629L943.285 165.884L940.609 163.517ZM949.774 163.166V150.319L947.056 147.863L946.354 148.608L948.853 150.844V163.604L952.141 166.674L952.843 165.928L949.774 163.166ZM979.274 167.331C978.046 166.016 977.608 165.577 976.161 165.183V173.777L976.073 173.821L974.319 172.242L969.232 176.933L969.144 176.89V165.095C967.61 165.446 965.987 166.236 964.408 167.814L964.321 167.77C964.628 164.394 966.294 161.894 969.143 160.93V152.379H968.223C966.951 152.379 966.25 153.037 965.636 154.221H965.505C965.373 153.827 965.285 153.212 965.285 152.204C965.285 150.362 966.644 148.433 968.881 148.433H969.143V143.698L967.346 142.075L966.469 142.952L966.162 142.645L970.59 137.953L974.712 141.725V145.715L975.677 144.662V139.619H976.159V144.224L981.99 137.953L986.945 142.47V161.544L979.274 167.331ZM969.145 163.473C967.348 163.823 966.077 164.92 965.243 166.367L965.287 166.455C966.515 165.402 967.655 164.92 969.145 164.569V163.473ZM970.549 150.889H968.137C966.471 150.889 965.813 151.941 965.77 153.169L965.813 153.213C966.339 152.335 966.865 152.029 967.918 151.898H969.628V175.795L970.549 174.918V150.889ZM970.549 142.996L968.356 140.979L967.655 141.725L969.628 143.478V148.433H970.549V142.996ZM975.679 145.495L974.715 146.504V171.892L975.679 172.77V145.495ZM981.423 144.487L978.836 142.119L976.161 145.014V160.448C978.442 160.667 980.02 161.325 981.379 162.815L981.423 162.772V144.487ZM976.161 163.473V164.613C977.652 164.964 978.266 165.402 979.318 166.63L980.327 165.84C979.274 164.525 978.222 163.737 976.161 163.473ZM982.826 143.786L979.844 141.023L979.143 141.768L981.905 144.311V164.701L982.826 163.999V143.786ZM1002.25 149.617V161.894L994.84 167.375L989.271 163.166L988.613 163.912L988.262 163.56L989.052 162.684V150.669L996.813 145.1L1001.99 149.135L1002.82 148.258L1003.17 148.608L1002.25 149.617ZM990.456 162.246V150.275L989.534 150.933V162.728L994.796 166.762L995.63 166.148L990.456 162.246ZM997.515 151.064L993.832 148.17L993.788 148.214V161.28L997.515 164.087V151.064ZM998.919 150.275L994.84 147.117L994.008 147.731L997.998 150.8V164.438L998.919 163.737V150.275ZM1012.42 153.037H1016.94V162.421L1009.97 167.331C1009.05 166.279 1007.73 165.534 1006.11 165.534C1004.79 165.534 1003.74 165.973 1002.34 167.156L1002.12 167.068L1008.08 158.387H1004.4V150.231L1011.72 145.144C1012.6 145.846 1013.26 146.24 1014.4 146.24C1015.27 146.24 1016.54 146.064 1017.51 145.276L1017.69 145.363L1012.42 153.037ZM1007.51 164.262C1006.24 164.262 1005.23 164.701 1004.36 165.314V165.402C1005.06 165.095 1005.76 165.008 1006.42 165.008C1007.43 165.008 1009 165.491 1010.06 166.718L1011.06 165.973C1010.23 165.008 1009.22 164.262 1007.51 164.262ZM1012.2 156.896H1009.75L1004.62 164.307L1004.66 164.394C1005.93 163.474 1007.16 162.86 1008.65 162.86C1009.97 162.86 1011.33 163.474 1012.16 164.526L1012.2 164.482V156.896H1012.2ZM1005.8 156.896V149.837L1004.88 150.494V157.861H1008.43L1009.13 156.896H1005.8V156.896ZM1014.97 148.301C1014.05 148.96 1013.52 149.31 1011.98 149.31C1011.11 149.31 1010.05 148.915 1009.22 148.038L1009.13 148.082V154.484H1010.8L1015.01 148.345L1014.97 148.301ZM1012.86 147.907C1012.07 147.907 1011.06 147.513 1010.41 146.635L1009.31 147.38C1010.14 148.389 1010.93 148.827 1012.16 148.827C1012.95 148.827 1014.09 148.608 1015.27 147.599L1015.32 147.468C1014.57 147.776 1013.65 147.907 1012.86 147.907ZM1013.61 155.449H1010.76L1010.1 156.37H1012.69V164.876L1013.61 164.219V155.449ZM1024.22 167.331L1020.18 164.175L1019.35 165.095L1019 164.744L1019.97 163.692V148.345H1017.42L1017.33 148.258L1018.87 145.977H1019.96V143.04L1024.61 138.085L1024.7 138.173V145.978H1028.21L1028.3 146.066L1026.76 148.346H1024.7V161.632L1027.11 163.474L1028.03 162.465L1028.38 162.816L1024.22 167.331ZM1021.37 142.294L1020.45 143.303V145.978H1021.37V142.294ZM1021.37 163.254V148.345H1020.45V163.78L1024.18 166.674L1024.83 165.973L1021.37 163.254Z" fill="#322F37"/>
</g>
<g clip-path="url(#clip2_433_1656)">
<path d="M1262.86 163.714H1268.28C1268.49 164.398 1269.21 165.081 1270.55 165.081C1272.36 165.081 1272.99 163.954 1272.99 162.288V161.101H1272.87C1271.97 162.144 1270.78 162.911 1269.03 162.911C1265.57 162.911 1262.57 160.358 1262.57 155.365C1262.57 150.792 1265.04 147.225 1268.76 147.225C1270.91 147.225 1272.22 148.088 1273.08 149.455H1273.17V147.705H1278.53V161.545C1278.53 164.098 1277.64 166.088 1276.3 167.281C1274.9 168.528 1272.9 169.031 1270.64 169.031C1266.38 169.031 1263.4 167.275 1262.86 163.714ZM1273.23 155.095C1273.23 153.105 1272.28 151.499 1270.64 151.499C1269.06 151.499 1268.05 152.926 1268.05 155.095C1268.05 157.235 1269.06 158.776 1270.64 158.776C1272.27 158.782 1273.23 157.205 1273.23 155.095ZM1256.58 150.432H1256.67C1257.83 148.202 1259.35 147.375 1261.29 147.375C1261.73 147.375 1262.03 147.435 1262.21 147.525V152.428H1262.09C1258.79 151.835 1256.85 153.411 1256.85 157.001V163.685H1251.23V147.705H1256.58V150.432ZM1128.53 141.285H1139.55C1141.63 141.285 1143.24 141.789 1144.37 142.712C1145.65 143.749 1146.34 145.295 1146.34 147.135C1146.34 149.275 1145.47 150.612 1143.69 151.445V151.535C1146.01 152.308 1147.35 154.388 1147.35 156.911C1147.35 159.315 1146.43 161.191 1144.91 162.318C1143.63 163.241 1141.97 163.685 1139.76 163.685H1128.53V141.285ZM1139.01 158.722C1140.35 158.722 1141.33 157.918 1141.33 156.432C1141.33 154.886 1140.26 154.142 1138.98 154.142H1134.63V158.716H1139.01V158.722ZM1138.44 150.048C1139.63 150.048 1140.5 149.395 1140.5 148.088C1140.5 146.812 1139.6 146.188 1138.41 146.188H1134.63V150.048H1138.44Z" fill="#322F37"/>
<path d="M1148.36 141.285H1154.14V163.685H1148.36V141.285ZM1155.24 155.719C1155.24 150.672 1158.52 147.255 1163.58 147.255C1168.65 147.255 1171.86 150.672 1171.86 155.719C1171.86 160.801 1168.65 164.182 1163.58 164.182C1158.52 164.188 1155.24 160.801 1155.24 155.719ZM1166.14 155.719C1166.14 152.926 1165.24 151.175 1163.52 151.175C1161.8 151.175 1160.96 152.926 1160.96 155.719C1160.96 158.542 1161.8 160.292 1163.52 160.292C1165.24 160.298 1166.14 158.542 1166.14 155.719ZM1172.51 155.719C1172.51 150.672 1175.79 147.255 1180.85 147.255C1185.92 147.255 1189.13 150.672 1189.13 155.719C1189.13 160.801 1185.92 164.182 1180.85 164.182C1175.79 164.188 1172.51 160.801 1172.51 155.719ZM1183.41 155.719C1183.41 152.926 1182.52 151.175 1180.79 151.175C1179.07 151.175 1178.23 152.926 1178.23 155.719C1178.23 158.542 1179.07 160.292 1180.79 160.292C1182.52 160.298 1183.41 158.542 1183.41 155.719ZM1190.23 147.705H1195.59V150.108H1195.68C1196.75 148.238 1198.21 147.225 1200.51 147.225C1202.53 147.225 1204.05 148.232 1204.83 149.989H1204.92C1206.23 147.879 1207.93 147.225 1209.89 147.225C1213.62 147.225 1215.22 149.959 1215.22 153.639V163.679H1209.59V154.652C1209.59 153.015 1209.09 151.949 1207.66 151.949C1206.26 151.949 1205.54 153.255 1205.54 154.981V163.685H1199.91V154.652C1199.91 153.015 1199.4 151.949 1197.97 151.949C1196.57 151.949 1195.86 153.255 1195.86 154.981V163.685H1190.23V147.705ZM1222.1 161.605H1222.04V163.685H1216.68V141.285H1222.31V149.365H1222.4C1223.47 147.969 1224.9 147.225 1226.95 147.225C1230.97 147.225 1233.3 150.852 1233.3 155.659C1233.3 161.095 1230.77 164.212 1226.6 164.212C1224.87 164.218 1223.08 163.385 1222.1 161.605ZM1227.58 155.605C1227.58 153.021 1226.63 151.355 1224.93 151.355C1223.2 151.355 1222.1 153.021 1222.1 155.605C1222.1 158.158 1223.2 159.854 1224.93 159.854C1226.65 159.848 1227.58 158.188 1227.58 155.605ZM1234.01 155.665C1234.01 150.672 1237.32 147.201 1242.11 147.201C1244.49 147.201 1246.34 147.945 1247.74 149.281C1249.58 151.061 1250.42 153.855 1250.36 157.151H1239.61C1239.85 159.141 1240.8 160.154 1242.5 160.154C1243.49 160.154 1244.35 159.711 1244.71 158.638H1250.13C1249.18 162.288 1246.35 164.134 1242.33 164.134C1237.35 164.128 1234.01 160.771 1234.01 155.665ZM1239.61 153.998H1244.73C1244.64 152.068 1243.57 151.055 1242.23 151.055C1240.68 151.055 1239.81 152.158 1239.61 153.998Z" fill="#322F37"/>
</g>
<g clip-path="url(#clip3_433_1656)">
<path d="M297.44 246.802V237.114L294.501 238.435C294.501 238.435 293.744 240.108 293.877 242.531C293.966 244.424 295.035 246.67 295.882 247.639L297.44 246.802ZM306.08 226.853C306.793 226.897 307.951 227.249 308.797 227.998C309.732 228.879 309.91 230.2 309.599 231.433C309.331 232.49 308.975 233.062 307.862 233.811C306.748 234.56 305.368 234.516 305.368 234.516V239.184L307.683 241.033L305.368 242.883V249.268C305.368 249.268 307.683 247.947 309.109 245.041C309.109 245.041 309.153 244.865 309.287 244.6C309.42 245.393 309.331 246.978 308.441 249.004C307.817 250.457 306.57 251.911 305.056 252.791C302.339 254.289 300.291 254.421 298.064 253.98C295.481 253.452 293.165 252.043 291.562 249.533C290.448 247.771 289.958 245.745 290.003 243.543C290.092 239.228 293.343 235.528 297.084 234.119C297.529 233.943 297.707 233.855 298.376 233.767C298.064 233.987 297.752 234.207 297.307 234.516C296.104 235.308 295.08 236.85 294.635 238.039L301.894 234.824V244.865L296.015 247.771C296.683 248.696 298.732 250.061 300.424 250.281C303.364 250.589 305.1 249.312 305.1 249.312V242.795L302.829 240.945L305.1 239.096V234.516C303.853 234.383 302.339 233.987 301.448 233.767C300.201 233.415 295.837 232.226 295.169 232.094C294.501 232.005 293.655 232.005 293.12 232.49C292.63 232.93 292.274 233.723 292.497 234.472C292.63 234.868 292.898 235.132 293.12 235.352C293.12 235.352 292.853 235.352 292.408 235.044C291.606 234.56 290.983 233.591 290.893 232.446C290.804 230.904 291.472 229.495 292.764 228.57C293.877 227.866 295.124 227.425 296.594 227.602C298.732 227.91 301.627 229.099 304.165 229.715C305.145 229.936 305.947 230.024 306.615 229.627C306.926 229.407 307.505 228.791 307.06 227.998C306.526 227.073 305.457 227.073 304.566 226.941C305.323 226.809 305.501 226.809 306.08 226.853Z" fill="#322F37"/>
<path d="M334.316 244.291L331.02 246.669V238.698L334.316 244.291ZM334.227 236.628C334.227 236.628 332 237.949 330.486 238.83C328.972 239.711 326.968 240.68 326.968 240.68V249.928L325.632 250.985L325.81 251.205L327.101 250.148L331.199 253.803L338.324 248.21L338.146 247.99L334.227 251.029L330.976 248.034V246.933L337.478 242.221L334.227 236.628Z" fill="#322F37"/>
<path d="M315.611 257.326C316.546 257.546 318.194 257.678 320.198 256.709C322.38 255.608 323.494 253.319 323.494 250.94L323.583 247.594V240.239L325.008 239.182L324.83 238.962L323.405 239.975L320.198 236.452L316.101 239.931V228.129L310.979 232.048C311.202 232.18 311.915 232.312 311.959 233.325V249.884L309.821 251.469L309.955 251.689L311.024 250.896L313.919 253.583L318.506 250.016L318.328 249.795L317.259 250.632L316.101 249.531V240.327L317.437 239.182L319.441 241.648C319.441 241.648 319.441 247.638 319.441 249.619C319.441 251.733 319.441 254.375 318.283 255.653C317.214 256.886 316.724 256.974 315.611 257.326Z" fill="#322F37"/>
<path d="M347.454 256.489C345.628 256.269 344.871 255.168 344.871 254.331C344.871 253.759 345.405 252.702 346.519 252.526C347.632 252.394 348.79 252.878 349.725 254.023L353.956 249.399L353.734 249.223L352.576 250.5C351.418 249.179 349.77 248.386 348.167 248.122V234.03L359.167 253.847C359.167 253.847 359.256 254.067 359.746 254.067C360.147 254.067 360.058 253.759 360.058 253.759V233.81C360.948 233.766 362.329 233.281 362.997 232.621C365.135 230.463 364.244 228.129 364.021 227.909C363.888 228.921 363.086 229.978 361.75 229.978C360.013 229.978 358.944 228.701 358.944 228.701L354.669 233.413L354.892 233.59L356.094 232.224C357.564 233.59 358.677 233.678 359.791 233.766V245.348L351.596 230.683C350.839 229.494 349.725 228.393 347.989 228.393C345.94 228.393 344.515 230.155 344.337 231.652C344.158 233.369 344.337 233.766 344.337 233.766C344.337 233.766 344.648 231.872 345.851 231.872C346.92 231.872 347.499 232.885 347.899 233.59V237.817C346.786 237.905 343.891 238.037 343.713 240.988C343.713 242.089 344.381 243.234 345.005 243.63C345.806 244.159 346.385 244.115 346.385 244.115C346.385 244.115 345.45 243.63 345.717 242.661C345.984 241.781 347.81 241.648 347.855 242.001V247.99C346.964 247.99 344.158 248.078 342.867 250.456C342.11 251.909 342.154 253.539 342.956 254.684C343.713 255.697 345.094 256.886 347.454 256.489Z" fill="#322F37"/>
<path d="M370.746 244.291L367.451 246.669V238.698L370.746 244.291ZM370.657 236.628C370.657 236.628 368.43 237.949 366.916 238.83C365.402 239.711 363.398 240.68 363.398 240.68V249.928L362.062 250.985L362.24 251.205L363.532 250.148L367.629 253.803L374.755 248.21L374.576 247.99L370.657 251.029L367.406 248.034V246.933L373.908 242.221L370.657 236.628Z" fill="#322F37"/>
<path d="M380.633 253.891L377.16 251.029L375.645 252.13L375.512 251.909L377.07 250.764V242.794C377.16 239.491 373.997 240.327 374.176 236.804C374.265 235.263 375.734 234.118 376.536 233.722C377.338 233.325 378.228 233.325 378.228 233.325C378.228 233.325 376.803 234.206 377.16 235.483C377.694 237.421 381.079 237.597 381.123 240.239V249.267L383.617 251.249L384.285 250.72V240.9L382.949 239.579L386.423 236.54L389.585 239.315L388.383 240.592V249.311L391.366 251.733L391.901 251.381V240.944L390.565 239.711L394.039 236.584L397.29 239.227L398.581 238.082L398.759 238.302L395.82 240.856V249.399L388.338 253.935L384.508 250.941L380.633 253.891Z" fill="#322F37"/>
<path d="M533.525 244.291L530.229 246.669V238.698L533.525 244.291ZM533.436 236.628C533.436 236.628 531.209 237.949 529.695 238.83C528.18 239.711 526.176 240.68 526.176 240.68V249.928L524.84 250.985L525.018 251.205L526.31 250.148L530.407 253.803L537.533 248.21L537.355 247.99L533.436 251.029L530.185 248.034V246.933L536.731 242.265L533.436 236.628Z" fill="#322F37"/>
<path d="M500.034 240.504L500.212 240.724L501.548 239.579L503.552 241.781V249.443L502.572 250.324L505.69 253.759L508.852 250.676L507.56 249.311V240.107L508.362 239.447L510.544 242.001V249.619L509.698 250.456L512.637 253.671L515.755 250.588L514.597 249.399V240.107L515.443 239.447L517.714 241.957V249.531L516.957 250.28L520.164 253.759L524.528 249.796L524.306 249.619L523.281 250.544L521.678 248.783V240.151L523.237 238.962L523.059 238.742L521.5 239.931L518.561 236.672L514.33 239.931L511.39 236.76L507.338 239.931L504.354 236.804L500.034 240.504Z" fill="#322F37"/>
<path d="M491.26 240.283L491.438 240.459L492.552 239.491L494.333 241.56V250.324L493.086 251.381L493.264 251.601L494.556 250.5L497.406 253.759L501.548 250.104L501.37 249.884L500.167 250.94L498.43 249.003V240.459L499.9 239.226L499.722 239.05L498.341 240.195L495.357 236.716L491.26 240.283Z" fill="#322F37"/>
<path d="M492.418 233.017L495.536 230.199L498.074 232.973L494.957 235.792L492.418 233.017Z" fill="#322F37"/>
<path d="M479.636 246.801V237.113L476.697 238.434C476.697 238.434 475.94 240.107 476.074 242.529C476.163 244.423 477.231 246.669 478.078 247.638L479.636 246.801ZM488.276 226.852C488.989 226.896 490.147 227.248 490.993 227.997C491.928 228.877 492.106 230.199 491.795 231.432C491.527 232.489 491.171 233.061 490.058 233.81C488.944 234.558 487.564 234.514 487.564 234.514V239.182L489.88 241.032L487.564 242.882V249.267C487.564 249.267 489.88 247.946 491.305 245.039C491.305 245.039 491.349 244.863 491.483 244.599C491.617 245.392 491.527 246.977 490.637 249.003C489.969 250.544 488.722 251.997 487.207 252.834C484.491 254.331 482.442 254.464 480.26 254.023C477.677 253.495 475.361 252.085 473.758 249.575C472.644 247.814 472.154 245.788 472.199 243.586C472.288 239.27 475.539 235.571 479.28 234.162C479.725 233.986 479.904 233.898 480.572 233.81C480.26 234.03 479.948 234.25 479.503 234.558C478.3 235.351 477.276 236.892 476.831 238.081L484.09 234.867V244.907L478.256 247.814C478.924 248.739 480.972 250.104 482.665 250.324C485.604 250.632 487.341 249.355 487.341 249.355V242.837L485.07 240.988L487.341 239.138V234.514C486.094 234.382 484.58 233.986 483.689 233.766C482.398 233.457 478.033 232.224 477.365 232.136C476.697 232.048 475.851 232.048 475.316 232.533C474.827 232.973 474.47 233.766 474.693 234.514C474.826 234.911 475.094 235.175 475.316 235.395C475.316 235.395 475.049 235.395 474.604 235.087C473.802 234.602 473.179 233.634 473.09 232.489C473.001 230.947 473.624 229.582 474.916 228.613C476.029 227.909 477.276 227.468 478.746 227.644C480.883 227.953 483.778 229.142 486.317 229.758C487.297 229.978 488.098 230.066 488.766 229.67C489.078 229.45 489.657 228.833 489.212 228.041C488.677 227.116 487.608 227.116 486.718 226.984C487.519 226.808 487.697 226.808 488.276 226.852Z" fill="#322F37"/>
<path d="M542.699 238.434V243.014L544.258 244.335C544.258 244.335 547.598 241.693 548.845 239.227C548.845 239.227 547.331 241.252 545.282 240.636C543.59 240.107 542.699 238.434 542.699 238.434ZM538.958 250.588C538.958 250.588 540.428 248.166 542.966 248.695C545.371 249.179 546.217 251.733 546.217 251.733V245.92L544.525 244.467C542.655 246.317 539.359 248.959 538.958 250.588ZM541.363 255.036C540.873 255.168 538.824 254.684 538.335 252.57C537.845 250.544 539.314 249.135 541.452 246.977L538.869 244.643V240.239C538.869 240.239 540.74 239.315 542.209 238.39C543.679 237.465 545.193 236.496 545.193 236.496C545.193 236.496 546.306 237.861 547.553 237.773C549.513 237.597 549.424 236.1 549.335 235.748C549.647 236.32 550.537 238.082 547.153 242.001L549.958 244.247V249.972C549.958 249.972 546.707 251.645 543.679 253.847C543.679 253.847 541.987 251.733 540.472 252.746C539.493 253.363 539.938 254.508 541.363 255.036Z" fill="#322F37"/>
<path d="M429.355 248.519L432.963 251.733V241.869L429.355 238.566V248.519ZM436.748 240.46L437.995 239.315L438.174 239.535L436.971 240.636V249.752C436.971 249.752 434.655 250.985 433.007 251.865C431.404 252.79 429.667 253.847 429.667 253.847L425.392 250.28L424.278 251.249L424.1 251.029L425.303 250.016V240.239C425.303 240.239 427.307 239.359 428.999 238.39C430.513 237.553 432.206 236.584 432.206 236.584L436.748 240.46Z" fill="#322F37"/>
<path d="M445.121 239.535L447.838 236.805C447.838 236.805 448.194 237.113 448.55 237.289C448.729 237.377 449.575 237.817 450.332 237.377C450.733 237.157 450.777 237.113 451.223 236.672C451.312 238.786 450.287 240.284 448.996 240.9C448.461 241.164 446.947 241.649 445.299 239.711V249.532L446.992 251.029L448.417 249.84L448.595 250.06L444.097 253.759L440.712 250.677L439.465 251.822L439.242 251.601L441.113 249.928V241.429L439.688 239.535L438.441 240.592L438.263 240.416L442.583 236.54L445.121 239.535Z" fill="#322F37"/>
<path d="M456.522 243.63L461.51 236.452C461.51 236.452 462.178 237.245 463.336 237.509C464.895 237.905 466.276 236.408 466.276 236.408C466.008 238.346 465.029 240.504 462.98 240.856C461.199 241.164 459.506 239.755 459.506 239.755L459.194 240.239L466.142 250.632L467.523 249.443L467.701 249.664L462.935 253.803L456.522 243.63Z" fill="#322F37"/>
<path d="M452.425 234.03C452.425 232.489 451.802 231.52 450.955 231.608L456.433 227.821V249.267L457.858 250.764L458.972 249.84L459.15 250.06L454.741 253.847L451.757 251.073L450.555 252.13L450.376 251.909L452.47 250.104V234.03" fill="#322F37"/>
<path d="M417.375 240.063C417.375 240.063 416.752 240.724 415.817 240.724C414.881 240.724 414.258 240.063 414.258 240.063V243.014C414.258 243.014 414.881 242.353 415.817 242.353C416.752 242.353 417.375 243.014 417.375 243.014V240.063ZM417.375 233.766L415.282 231.916L414.258 232.709V239.579C414.258 239.579 414.881 240.372 415.817 240.372C416.752 240.372 417.375 239.623 417.375 239.623V233.766ZM414.258 253.275C414.258 253.275 415.549 253.627 416.44 252.878C417.464 252.042 417.375 250.853 417.375 250.853V243.41C417.375 243.41 416.796 242.661 415.817 242.661C414.881 242.661 414.258 243.454 414.258 243.454V253.275ZM406.776 233.678C406.776 232.224 406.197 231.432 405.217 231.388C403.836 231.344 403.48 233.281 403.48 233.281C403.48 233.281 403.213 231.784 404.504 230.419C405.217 229.67 406.553 228.613 408.602 229.098C410.739 229.626 411.363 231.256 411.363 232.709V252.658C411.363 252.658 412.165 252.746 412.744 252.878C413.367 253.01 413.991 253.187 413.991 253.187V229.142H414.258V232.401L418.622 228.922L421.829 231.74L423.343 230.463L423.521 230.683L421.962 232.004V250.544C421.873 251.733 421.695 252.966 420.537 253.715C417.954 255.212 414.837 253.495 412.076 253.098C410.027 252.79 406.776 252.394 405.974 254.287C405.707 254.904 405.707 255.829 406.642 256.445C408.513 257.678 416.841 254.376 419.691 255.697C422.319 256.886 422.274 258.779 421.873 260.1C421.205 262.567 418.088 262.963 418.088 262.963C418.088 262.963 419.602 262.082 419.201 260.629C418.979 259.88 418.489 259.704 416.841 259.88C413.278 260.277 409.003 261.994 406.108 260.805C404.638 260.189 403.569 258.383 403.703 256.577C403.792 253.979 406.776 252.966 406.776 252.966V243.41C406.687 243.014 405.083 243.146 404.727 243.851C404.193 244.907 405.395 245.392 405.395 245.392C405.395 245.392 404.415 245.524 403.569 244.599C403.168 244.115 402.322 242.485 403.436 240.988C404.326 239.755 405.44 239.535 406.82 239.403V233.678H406.776Z" fill="#322F37"/>
</g>
<path d="M819.669 235.848C818.49 234.844 817.246 234.093 815.934 233.59C814.623 233.089 813.243 232.839 811.799 232.839C809.001 232.839 806.725 233.738 804.97 235.533C803.216 237.327 802.34 239.653 802.34 242.509C802.34 245.272 803.193 247.55 804.9 249.348C806.608 251.142 808.763 252.038 811.361 252.038C812.878 252.038 814.32 251.771 815.689 251.235C817.058 250.699 818.375 249.888 819.634 248.804V253.508C818.515 254.311 817.296 254.915 815.979 255.31C814.66 255.706 813.233 255.903 811.694 255.903C809.737 255.903 807.924 255.583 806.265 254.942C804.603 254.301 803.143 253.358 801.884 252.109C800.637 250.884 799.676 249.443 799.008 247.783C798.337 246.121 798.002 244.351 798.002 242.474C798.002 240.596 798.337 238.834 799.008 237.185C799.676 235.535 800.647 234.086 801.919 232.839C803.191 231.58 804.648 230.626 806.29 229.981C807.934 229.332 809.711 229.009 811.624 229.009C813.128 229.009 814.563 229.227 815.927 229.665C817.291 230.103 818.613 230.764 819.897 231.65L819.669 235.848Z" fill="#1E1E1E"/>
<path fill-rule="evenodd" clip-rule="evenodd" d="M743.21 247.633C743.893 246.013 744.234 244.294 744.234 242.474C744.234 240.667 743.893 238.949 743.21 237.325C742.529 235.698 741.535 234.238 740.228 232.944C738.924 231.673 737.445 230.706 735.795 230.041C734.146 229.377 732.401 229.044 730.559 229.044C728.704 229.044 726.952 229.377 725.295 230.041C723.64 230.706 722.158 231.673 720.854 232.944C719.547 234.226 718.556 235.678 717.88 237.297C717.204 238.919 716.866 240.644 716.866 242.474C716.866 244.316 717.204 246.041 717.88 247.65C718.556 249.26 719.547 250.699 720.854 251.971C722.136 253.227 723.615 254.199 725.287 254.882C726.959 255.563 728.716 255.903 730.559 255.903C732.379 255.903 734.116 255.565 735.77 254.89C737.425 254.214 738.912 253.24 740.228 251.971C741.535 250.699 742.529 249.252 743.21 247.633ZM739.19 238.784C739.66 239.951 739.896 241.18 739.896 242.474C739.896 243.758 739.66 244.977 739.19 246.138C738.717 247.297 738.038 248.334 737.152 249.242C736.253 250.151 735.242 250.844 734.118 251.323C732.992 251.801 731.805 252.038 730.559 252.038C729.287 252.038 728.088 251.801 726.957 251.323C725.825 250.844 724.816 250.151 723.93 249.242C723.044 248.334 722.368 247.3 721.903 246.146C721.437 244.992 721.204 243.768 721.204 242.474C721.204 241.17 721.437 239.933 721.903 238.767C722.368 237.603 723.044 236.569 723.93 235.673C724.816 234.762 725.83 234.068 726.964 233.59C728.103 233.114 729.3 232.874 730.559 232.874C731.818 232.874 733.017 233.117 734.153 233.6C735.29 234.083 736.288 234.774 737.152 235.673C738.038 236.581 738.717 237.618 739.19 238.784Z" fill="#1E1E1E"/>
<path fill-rule="evenodd" clip-rule="evenodd" d="M703.9 255.222V243.733H706.295C708.16 243.733 709.532 243.635 710.413 243.435C711.294 243.237 712.06 242.907 712.714 242.439C713.517 241.856 714.145 241.052 714.601 240.026C715.057 239.002 715.282 237.881 715.282 236.669C715.282 235.457 715.057 234.346 714.601 233.337C714.145 232.328 713.517 231.527 712.714 230.932C712.06 230.466 711.294 230.131 710.413 229.928C709.532 229.723 708.16 229.62 706.295 229.62H700V255.222H703.9ZM705.229 240.324H704.163V233.19H705.229C707.432 233.19 708.944 233.467 709.765 234.028C710.588 234.586 710.999 235.55 710.999 236.914C710.999 238.183 710.613 239.07 709.845 239.573C709.076 240.073 707.537 240.324 705.229 240.324Z" fill="#1E1E1E"/>
<path d="M747.933 255.222V229.623H752.093V251.498H761.398V255.222H747.933Z" fill="#1E1E1E"/>
<path d="M767.931 229.623H763.768V255.222H767.931V229.623Z" fill="#1E1E1E"/>
<path d="M781.108 233.155V255.222H776.945V233.155H770.144V229.623H787.876V233.155H781.108Z" fill="#1E1E1E"/>
<path d="M794.214 229.623H790.054V255.222H794.214V229.623Z" fill="#1E1E1E"/>
<path fill-rule="evenodd" clip-rule="evenodd" d="M848.976 247.633C849.66 246.013 850 244.294 850 242.474C850 240.667 849.66 238.949 848.976 237.325C848.295 235.698 847.302 234.238 845.995 232.944C844.691 231.673 843.211 230.706 841.562 230.041C839.912 229.377 838.168 229.044 836.325 229.044C834.473 229.044 832.718 229.377 831.061 230.041C829.406 230.706 827.925 231.673 826.62 232.944C825.314 234.226 824.322 235.678 823.647 237.297C822.971 238.919 822.633 240.644 822.633 242.474C822.633 244.316 822.971 246.041 823.647 247.65C824.322 249.26 825.314 250.699 826.62 251.971C827.902 253.227 829.379 254.199 831.054 254.882C832.726 255.563 834.483 255.903 836.325 255.903C838.145 255.903 839.882 255.565 841.537 254.89C843.191 254.214 844.678 253.24 845.995 251.971C847.302 250.699 848.295 249.252 848.976 247.633ZM844.956 238.784C845.427 239.951 845.665 241.18 845.665 242.474C845.665 243.758 845.427 244.977 844.956 246.138C844.483 247.297 843.805 248.334 842.919 249.242C842.02 250.151 841.009 250.844 839.885 251.323C838.758 251.801 837.572 252.038 836.325 252.038C835.054 252.038 833.855 251.801 832.723 251.323C831.592 250.844 830.583 250.151 829.697 249.242C828.813 248.334 828.135 247.3 827.669 246.146C827.204 244.992 826.971 243.768 826.971 242.474C826.971 241.17 827.204 239.933 827.669 238.767C828.135 237.603 828.813 236.569 829.697 235.673C830.583 234.762 831.597 234.068 832.731 233.59C833.87 233.114 835.066 232.874 836.325 232.874C837.584 232.874 838.783 233.117 839.92 233.6C841.056 234.083 842.055 234.774 842.919 235.673C843.805 236.581 844.483 237.618 844.956 238.784Z" fill="#1E1E1E"/>
<path d="M1071.57 219.571C1071.57 219.571 1069.88 219.606 1068.9 219.59C1068.86 220 1068.39 223.719 1067.98 226.711C1067.52 229.48 1063.82 250.016 1062.57 256.164C1062.24 258.02 1061.22 263.264 1061.13 263.788C1059.95 263.928 1058.56 264.058 1057.65 264.093C1057.53 264.097 1057.33 264.137 1057.23 264.137V265.201C1057.35 265.197 1057.93 265.242 1058.35 265.224C1059.35 265.192 1062.18 265.058 1062.72 265.058C1064.75 265.058 1066.11 265.193 1068 265.23C1068.02 265.23 1068.54 265.228 1068.77 265.199V264.123C1068.61 264.123 1068.4 264.118 1068.28 264.118C1067.75 264.135 1065.79 263.984 1064.8 263.849C1064.91 263.146 1066.64 252.51 1067.48 248.257C1069.06 240.384 1070.15 234.805 1070.15 234.805L1070.45 235.497L1082.94 265.271L1085.22 265.282C1085.22 265.282 1086.52 262.058 1088.07 258.442C1088.11 258.356 1088.22 258.097 1088.37 257.727C1090 253.972 1098.03 234.915 1098.03 234.915C1098.03 234.915 1098.11 235.258 1098.24 235.871C1099 239.607 1101.59 253.068 1102.14 256.316C1102.4 257.987 1102.65 259.682 1102.79 260.674C1102.99 262.08 1103.13 263.456 1103.13 263.851C1102.88 263.863 1100.33 264.093 1099.37 264.134C1099.23 264.13 1098.98 264.143 1098.96 264.145V265.228C1099.31 265.228 1099.64 265.243 1099.97 265.236C1101.94 265.198 1103.83 265.044 1105.8 265.045C1108.01 265.047 1111.59 265.24 1113.89 265.255C1114.14 265.255 1114.6 265.232 1114.6 265.232V264.138C1114.47 264.137 1113.9 264.109 1113.68 264.092C1112.65 264.011 1110.92 263.851 1110.48 263.821C1110.48 263.821 1110.2 262.249 1109.82 260.433C1108.32 253.167 1104.05 231.083 1103.4 225.649C1103.17 223.781 1102.54 219.588 1102.54 219.588L1099.97 219.587C1099.97 219.587 1098.66 223.353 1097.46 226.786C1096.65 229.133 1095.54 232.029 1094.69 234.25C1090.51 245.225 1085.83 255.451 1085.83 255.451C1085.83 255.451 1075.88 231.703 1075.35 230.33C1074.82 228.956 1071.57 219.571 1071.57 219.571V219.571ZM1000.02 219.581L1000.04 222.091L1000 228.203L1000.66 228.185L1000.73 222.748C1000.73 222.748 1004.36 222.717 1004.83 222.717L1011.6 222.72L1015.97 222.742L1015.98 260.55L1015.98 263.815L1015.89 263.828C1015.31 263.873 1013.07 264.01 1012.16 264.043C1011.96 264.05 1011.83 264.055 1011.8 264.052L1011.81 265.158C1011.97 265.167 1012.41 265.177 1012.47 265.175C1014.62 265.147 1017.53 264.96 1019.6 264.962C1021.69 264.963 1024.64 265.167 1026.47 265.188C1026.65 265.189 1026.86 265.172 1027.04 265.172V264.134L1026.81 264.136C1026.23 264.134 1023.01 263.926 1022.68 263.883C1022.67 263.376 1022.61 260.927 1022.61 260.873L1022.62 222.738L1025.95 222.729L1034.63 222.735L1037.53 222.775C1037.55 222.982 1037.69 225.735 1037.69 225.81C1037.68 226.011 1037.8 228.062 1037.79 228.567L1038.48 228.575L1038.43 222.392L1038.46 219.611C1035.91 219.681 1029.41 219.768 1019.32 219.763C1010.67 219.757 1002.33 219.685 1000.02 219.581L1000.02 219.581ZM1040.43 219.591L1040.44 220.673C1040.79 220.692 1042.8 220.87 1043.29 220.894C1043.68 220.942 1044.23 220.991 1044.62 221.029C1044.62 221.375 1044.62 223.768 1044.63 224.712C1044.69 233.661 1044.64 253.439 1044.61 260.437C1044.6 262.46 1044.6 263.764 1044.6 263.764C1044.35 263.838 1043.79 263.866 1043.19 263.906C1042.68 263.941 1040.84 264.096 1040.43 264.104V265.187C1040.6 265.187 1040.91 265.223 1041.09 265.222C1043.17 265.222 1046.07 264.964 1048.2 264.965C1050.36 264.967 1053.24 265.229 1054.93 265.23L1054.93 265.231C1055.08 265.233 1055.43 265.195 1055.57 265.195V264.113H1055.43C1055.36 264.098 1053.17 264.006 1052.64 263.951C1052.36 263.933 1051.15 263.829 1051.14 263.789C1051.13 263.767 1051.13 263.444 1051.13 262.904C1051.13 262.392 1051.13 261.54 1051.13 260.616C1051.14 253.558 1051.16 232.593 1051.16 224.58C1051.16 223.031 1051.17 221.773 1051.17 221.098C1051.64 221.068 1053.57 220.867 1054.25 220.806C1054.28 220.803 1055.2 220.751 1055.57 220.728V219.6C1053.22 219.599 1050.1 219.783 1047.8 219.782C1045.39 219.78 1042.43 219.591 1040.43 219.591V219.591ZM1149.49 219.621C1149.49 219.621 1149.24 219.622 1148.78 219.623C1147.2 219.63 1143.17 219.66 1138.45 219.686C1135.55 219.702 1133.29 219.726 1130.3 219.724C1128.21 219.749 1125.28 219.829 1123.47 219.826C1120.58 219.821 1118.23 219.643 1116.94 219.638C1116.34 219.635 1116 219.658 1115.83 219.648C1115.84 219.663 1115.84 220.717 1115.84 220.717C1115.95 220.736 1116.17 220.761 1116.38 220.757C1117.11 220.805 1118.46 220.915 1119.15 221.006C1119.29 221.031 1119.52 221.07 1120.17 221.142C1120.17 221.381 1120.2 224.094 1120.2 225.724C1120.2 227.234 1120.18 260.929 1120.18 260.929C1120.18 260.984 1120.11 263.639 1120.11 263.853C1118.96 264.049 1116.76 264.17 1116.01 264.173H1115.79V265.245C1115.89 265.244 1116.39 265.263 1116.67 265.263C1117.88 265.263 1121 265.07 1124.19 265.068C1126.42 265.066 1128.88 265.15 1131.37 265.185C1134.43 265.228 1137.53 265.23 1140.32 265.269C1144.92 265.334 1148.64 265.34 1149.85 265.341C1149.85 265.341 1150 256.816 1150 256.129L1149.34 256.137C1149.34 256.862 1149.07 259.562 1149.06 259.68C1148.97 260.697 1148.88 261.762 1148.81 262.287C1148.81 262.287 1148.48 262.313 1148.33 262.31C1147.57 262.296 1145.16 262.383 1145.11 262.383L1134.35 262.388L1126.8 262.261L1126.74 260.165L1126.74 243.892C1128.09 243.847 1130.15 243.775 1131.4 243.778C1132.46 243.78 1134.97 243.72 1136.37 243.723C1139.78 243.729 1142.81 243.751 1143.06 243.758C1143.62 243.774 1144.66 243.809 1145.06 243.833C1145.07 243.976 1145.12 244.2 1145.12 244.264C1145.33 245.51 1145.44 246.373 1145.58 247.596C1145.6 247.706 1145.61 247.813 1145.62 247.913H1146.4C1146.4 247.913 1146.42 247.476 1146.41 247.203C1146.39 246.244 1146.33 244.331 1146.33 242.21C1146.33 240.74 1146.41 238.492 1146.42 237.411C1146.43 237.119 1146.39 236.911 1146.39 236.827L1145.68 236.841C1145.68 237.075 1145.62 237.419 1145.62 237.419C1145.56 238.225 1145.33 239.255 1145.15 240.341C1145.1 240.477 1145.06 240.666 1145.06 240.666C1144.98 240.693 1142.76 240.812 1142.56 240.81C1142.48 240.81 1139.25 240.9 1139.19 240.9L1126.74 240.854L1126.76 222.909C1126.76 222.909 1128.35 222.853 1128.79 222.856C1130.58 222.856 1133.5 222.84 1136.47 222.844C1140.83 222.849 1145.05 222.876 1145.06 222.883C1145.09 222.895 1146.38 222.913 1146.4 222.935C1146.43 222.959 1148.04 223.007 1148.44 223.02C1148.44 223.02 1148.47 223.154 1148.49 223.322C1148.67 225.214 1148.81 227.461 1148.88 228.257L1148.89 228.576L1149.55 228.574C1149.55 227.409 1149.49 223.841 1149.48 221.571C1149.47 220.842 1149.49 220.248 1149.49 219.91V219.621Z" fill="#1E1E1E"/>
</g>
<defs>
<filter id="filter0_d_433_1656" x="102" y="0" width="1236" height="369.341" filterUnits="userSpaceOnUse" color-interpolation-filters="sRGB">
<feFlood flood-opacity="0" result="BackgroundImageFix"/>
<feColorMatrix in="SourceAlpha" type="matrix" values="0 0 0 0 0 0 0 0 0 0 0 0 0 0 0 0 0 0 127 0" result="hardAlpha"/>
<feOffset dy="4"/>
<feGaussianBlur stdDeviation="5"/>
<feComposite in2="hardAlpha" operator="out"/>
<feColorMatrix type="matrix" values="0 0 0 0 0 0 0 0 0 0 0 0 0 0 0 0 0 0 0.2 0"/>
<feBlend mode="normal" in2="BackgroundImageFix" result="effect1_dropShadow_433_1656"/>
<feBlend mode="normal" in="SourceGraphic" in2="effect1_dropShadow_433_1656" result="shape"/>
</filter>
<clipPath id="clip0_433_1656">
<rect width="181.909" height="46" fill="white" transform="translate(446.618 130.785)"/>
</clipPath>
<clipPath id="clip1_433_1656">
<rect width="300" height="46.6523" fill="white" transform="translate(728.527 130.459)"/>
</clipPath>
<clipPath id="clip2_433_1656">
<rect width="150" height="33.3333" fill="white" transform="translate(1128.53 137.119)"/>
</clipPath>
<clipPath id="clip3_433_1656">
<rect width="260" height="38.5185" fill="white" transform="translate(290 223.197)"/>
</clipPath>
</defs>
</svg>
